Montserrat-Bold.ufo
<glyph name="exclam" format="1">
  <advance width="254"/>
  <unicode hex="0021"/>
  <outline>
    <contour>
      <point x="52" y="696" type="line"/>
      <point x="52" y="518" type="line"/>
      <point x="82" y="240" type="line"/>
      <point x="187" y="240" type="line"/>
      <point x="216" y="518" type="line"/>
      <point x="216" y="696" type="line"/>
    </contour>
    <component base="period" xOffset="10.256"/>
  </outline>
</glyph>
<glyph name="numbersign" format="1">
  <advance width="735"/>
  <unicode hex="0023"/>
  <outline>
    <contour>
      <point x="518" y="0" type="line"/>
      <point x="605" y="700" type="line"/>
      <point x="481" y="700" type="line"/>
      <point x="394" y="0" type="line"/>
    </contour>
    <contour>
      <point x="687" y="275" type="line"/>
      <point x="29" y="275" type="line"/>
      <point x="15" y="156" type="line"/>
      <point x="673" y="156" type="line"/>
    </contour>
    <contour>
      <point x="255" y="0" type="line"/>
      <point x="342" y="700" type="line"/>
      <point x="218" y="700" type="line"/>
      <point x="131" y="0" type="line"/>
    </contour>
    <contour>
      <point x="720" y="537" type="line"/>
      <point x="62" y="537" type="line"/>
      <point x="49" y="418" type="line"/>
      <point x="707" y="418" type="line"/>
    </contour>
  </outline>
</glyph>
<glyph name="ampersand" format="1">
  <advance width="685"/>
  <unicode hex="0026"/>
  <outline>
    <contour>
      <point x="213" y="708"/>
      <point x="136" y="642"/>
      <point x="136" y="540" type="curve" smooth="yes"/>
      <point x="136" y="413"/>
      <point x="244" y="306"/>
      <point x="591" y="-30" type="curve"/>
      <point x="679" y="55" type="line"/>
      <point x="376" y="340"/>
      <point x="270" y="449"/>
      <point x="270" y="540" type="curve" smooth="yes"/>
      <point x="270" y="581"/>
      <point x="296" y="611"/>
      <point x="337" y="611" type="curve" smooth="yes"/>
      <point x="375" y="611"/>
      <point x="400" y="586"/>
      <point x="400" y="550" type="curve" smooth="yes"/>
      <point x="400" y="409"/>
      <point x="55" y="412"/>
      <point x="55" y="196" type="curve" smooth="yes"/>
      <point x="55" y="77"/>
      <point x="157" y="-8"/>
      <point x="293" y="-8" type="curve" smooth="yes"/>
      <point x="442" y="-8"/>
      <point x="572" y="102"/>
      <point x="638" y="278" type="curve"/>
      <point x="528" y="356" type="line"/>
      <point x="487" y="213"/>
      <point x="397" y="113"/>
      <point x="300" y="113" type="curve" smooth="yes"/>
      <point x="241" y="113"/>
      <point x="196" y="151"/>
      <point x="196" y="208" type="curve" smooth="yes"/>
      <point x="196" y="347"/>
      <point x="535" y="351"/>
      <point x="535" y="551" type="curve" smooth="yes"/>
      <point x="535" y="643"/>
      <point x="453" y="708"/>
      <point x="335" y="708" type="curve" smooth="yes"/>
    </contour>
  </outline>
</glyph>
<glyph name="parenleft" format="1">
  <advance width="346"/>
  <unicode hex="0028"/>
  <outline>
    <contour>
      <point x="189" y="742" type="line"/>
      <point x="106" y="625"/>
      <point x="61" y="472"/>
      <point x="61" y="309" type="curve" smooth="yes"/>
      <point x="61" y="146"/>
      <point x="106" y="-7"/>
      <point x="189" y="-124" type="curve"/>
      <point x="343" y="-124" type="line"/>
      <point x="270" y="-7"/>
      <point x="223" y="146"/>
      <point x="223" y="309" type="curve" smooth="yes"/>
      <point x="223" y="472"/>
      <point x="270" y="625"/>
      <point x="343" y="742" type="curve"/>
    </contour>
  </outline>
</glyph>
<glyph name="asterisk" format="1">
  <advance width="378"/>
  <unicode hex="002A"/>
  <outline>
    <contour>
      <point x="356" y="505" type="line"/>
      <point x="272" y="552" type="line"/>
      <point x="356" y="597" type="line"/>
      <point x="313" y="672" type="line"/>
      <point x="231" y="624" type="line"/>
      <point x="233" y="719" type="line"/>
      <point x="146" y="719" type="line"/>
      <point x="148" y="624" type="line"/>
      <point x="66" y="674" type="line"/>
      <point x="23" y="597" type="line"/>
      <point x="107" y="552" type="line"/>
      <point x="23" y="505" type="line"/>
      <point x="66" y="431" type="line"/>
      <point x="149" y="480" type="line"/>
      <point x="146" y="384" type="line"/>
      <point x="233" y="384" type="line"/>
      <point x="231" y="480" type="line"/>
      <point x="313" y="429" type="line"/>
    </contour>
  </outline>
</glyph>
<glyph name="plus" format="1">
  <advance width="510"/>
  <unicode hex="002B"/>
  <outline>
    <contour>
      <point x="33" y="381" type="line"/>
      <point x="33" y="272" type="line"/>
      <point x="478" y="272" type="line"/>
      <point x="478" y="381" type="line"/>
    </contour>
    <contour>
      <point x="200" y="549" type="line"/>
      <point x="200" y="104" type="line"/>
      <point x="309" y="104" type="line"/>
      <point x="309" y="549" type="line"/>
    </contour>
  </outline>
</glyph>
<glyph name="comma" format="1">
  <advance width="241"/>
  <unicode hex="002C"/>
  <outline>
    <contour>
      <point x="27" y="-96" type="line"/>
      <point x="109" y="-96" type="line"/>
      <point x="182" y="10" type="line" smooth="yes"/>
      <point x="196" y="30"/>
      <point x="205" y="51"/>
      <point x="205" y="76" type="curve" smooth="yes"/>
      <point x="205" y="129"/>
      <point x="166" y="158"/>
      <point x="122" y="158" type="curve" smooth="yes"/>
      <point x="74" y="158"/>
      <point x="39" y="124"/>
      <point x="39" y="76" type="curve" smooth="yes"/>
      <point x="39" y="30"/>
      <point x="71" y="-9"/>
      <point x="144" y="-6" type="curve"/>
      <point x="98" y="72" type="line"/>
    </contour>
  </outline>
</glyph>
<glyph name="hyphen" format="1">
  <advance width="374"/>
  <unicode hex="002D"/>
  <outline>
    <contour>
      <point x="55" y="361" type="line"/>
      <point x="55" y="252" type="line"/>
      <point x="319" y="252" type="line"/>
      <point x="319" y="361" type="line"/>
    </contour>
  </outline>
</glyph>
<glyph name="period" format="1">
  <advance width="243"/>
  <unicode hex="002E"/>
  <outline>
    <contour>
      <point x="73" y="159"/>
      <point x="38" y="125"/>
      <point x="38" y="76" type="curve" smooth="yes"/>
      <point x="38" y="26"/>
      <point x="73" y="-8"/>
      <point x="121" y="-8" type="curve" smooth="yes"/>
      <point x="171" y="-8"/>
      <point x="205" y="26"/>
      <point x="205" y="76" type="curve" smooth="yes"/>
      <point x="205" y="125"/>
      <point x="171" y="159"/>
      <point x="121" y="159" type="curve" smooth="yes"/>
    </contour>
  </outline>
</glyph>
<glyph name="slash" format="1">
  <advance width="353"/>
  <unicode hex="002F"/>
  <outline>
    <contour>
      <point x="287" y="811" type="line"/>
      <point x="-36" y="-111" type="line"/>
      <point x="109" y="-111" type="line"/>
      <point x="432" y="811" type="line"/>
    </contour>
  </outline>
</glyph>
<glyph name="zero" format="1">
  <advance width="703"/>
  <unicode hex="0030"/>
  <outline>
    <contour>
      <point x="151" y="706"/>
      <point x="41" y="579"/>
      <point x="41" y="351" type="curve" smooth="yes"/>
      <point x="41" y="122"/>
      <point x="151" y="-5"/>
      <point x="351" y="-5" type="curve" smooth="yes"/>
      <point x="550" y="-5"/>
      <point x="661" y="122"/>
      <point x="661" y="351" type="curve" smooth="yes"/>
      <point x="661" y="579"/>
      <point x="550" y="706"/>
      <point x="351" y="706" type="curve" smooth="yes"/>
    </contour>
    <contour>
      <point x="441" y="576"/>
      <point x="480" y="511"/>
      <point x="480" y="351" type="curve" smooth="yes"/>
      <point x="480" y="191"/>
      <point x="441" y="125"/>
      <point x="352" y="125" type="curve" smooth="yes"/>
      <point x="263" y="125"/>
      <point x="224" y="191"/>
      <point x="224" y="351" type="curve" smooth="yes"/>
      <point x="224" y="511"/>
      <point x="263" y="576"/>
      <point x="352" y="576" type="curve" smooth="yes"/>
    </contour>
  </outline>
</glyph>
<glyph name="one" format="1">
  <advance width="412"/>
  <unicode hex="0031"/>
  <outline>
    <contour>
      <point x="7" y="701" type="line"/>
      <point x="7" y="558" type="line"/>
      <point x="136" y="558" type="line"/>
      <point x="136" y="0" type="line"/>
      <point x="314" y="0" type="line"/>
      <point x="314" y="701" type="line"/>
    </contour>
  </outline>
</glyph>
<glyph name="two" format="1">
  <advance width="600"/>
  <unicode hex="0032"/>
  <outline>
    <contour>
      <point x="206" y="708"/>
      <point x="110" y="669"/>
      <point x="22" y="603" type="curve"/>
      <point x="90" y="475" type="line"/>
      <point x="153" y="530"/>
      <point x="223" y="564"/>
      <point x="280" y="564" type="curve" smooth="yes"/>
      <point x="331" y="564"/>
      <point x="360" y="540"/>
      <point x="360" y="500" type="curve" smooth="yes"/>
      <point x="360" y="468"/>
      <point x="332" y="421"/>
      <point x="292" y="380" type="curve" smooth="yes"/>
      <point x="43" y="115" type="line"/>
      <point x="43" y="0" type="line"/>
      <point x="566" y="0" type="line"/>
      <point x="566" y="141" type="line"/>
      <point x="271" y="141" type="line"/>
      <point x="414" y="292" type="line" smooth="yes"/>
      <point x="490" y="370"/>
      <point x="545" y="449"/>
      <point x="545" y="525" type="curve" smooth="yes"/>
      <point x="545" y="636"/>
      <point x="445" y="708"/>
      <point x="307" y="708" type="curve" smooth="yes"/>
    </contour>
  </outline>
</glyph>
<glyph name="three" format="1">
  <advance width="558"/>
  <unicode hex="0033"/>
  <outline>
    <contour>
      <point x="320" y="416" type="line"/>
      <point x="495" y="598" type="line"/>
      <point x="495" y="699" type="line"/>
      <point x="33" y="699" type="line"/>
      <point x="33" y="563" type="line"/>
      <point x="288" y="563" type="line" smooth="yes"/>
      <point x="132" y="401" type="line"/>
      <point x="132" y="306" type="line"/>
      <point x="245" y="306" type="line" smooth="yes"/>
      <point x="314" y="306"/>
      <point x="353" y="277"/>
      <point x="353" y="218" type="curve" smooth="yes"/>
      <point x="353" y="161"/>
      <point x="315" y="127"/>
      <point x="245" y="127" type="curve" smooth="yes"/>
      <point x="183" y="127"/>
      <point x="122" y="156"/>
      <point x="70" y="212" type="curve"/>
      <point x="-2" y="77" type="line"/>
      <point x="62" y="26"/>
      <point x="163" y="-8"/>
      <point x="259" y="-8" type="curve" smooth="yes"/>
      <point x="422" y="-8"/>
      <point x="527" y="86"/>
      <point x="527" y="220" type="curve" smooth="yes"/>
      <point x="527" y="328"/>
      <point x="455" y="395"/>
      <point x="353" y="411" type="curve" smooth="yes"/>
    </contour>
  </outline>
</glyph>
<glyph name="four" format="1">
  <advance width="633"/>
  <unicode hex="0034"/>
  <outline>
    <contour>
      <point x="248" y="700" type="line"/>
      <point x="27" y="273" type="line"/>
      <point x="27" y="154" type="line"/>
      <point x="359" y="154" type="line"/>
      <point x="359" y="0" type="line"/>
      <point x="524" y="0" type="line"/>
      <point x="524" y="154" type="line"/>
      <point x="619" y="154" type="line"/>
      <point x="619" y="289" type="line"/>
      <point x="524" y="289" type="line"/>
      <point x="524" y="439" type="line"/>
      <point x="359" y="439" type="line"/>
      <point x="359" y="289" type="line"/>
      <point x="210" y="289" type="line"/>
      <point x="418" y="700" type="line"/>
    </contour>
  </outline>
</glyph>
<glyph name="five" format="1">
  <advance width="595"/>
  <unicode hex="0035"/>
  <outline>
    <contour>
      <point x="73" y="700" type="line"/>
      <point x="73" y="305" type="line"/>
      <point x="116" y="308"/>
      <point x="228" y="310"/>
      <point x="264" y="310" type="curve" smooth="yes"/>
      <point x="333" y="310"/>
      <point x="372" y="278"/>
      <point x="372" y="223" type="curve" smooth="yes"/>
      <point x="372" y="163"/>
      <point x="333" y="129"/>
      <point x="263" y="129" type="curve" smooth="yes"/>
      <point x="201" y="129"/>
      <point x="138" y="159"/>
      <point x="85" y="215" type="curve"/>
      <point x="14" y="80" type="line"/>
      <point x="87" y="28"/>
      <point x="193" y="-7"/>
      <point x="284" y="-7" type="curve" smooth="yes"/>
      <point x="453" y="-7"/>
      <point x="563" y="88"/>
      <point x="563" y="235" type="curve" smooth="yes"/>
      <point x="563" y="360"/>
      <point x="459" y="446"/>
      <point x="298" y="446" type="curve" smooth="yes"/>
      <point x="284" y="446"/>
      <point x="251" y="446"/>
      <point x="236" y="446" type="curve"/>
      <point x="236" y="559" type="line"/>
      <point x="532" y="559" type="line"/>
      <point x="532" y="700" type="line"/>
    </contour>
  </outline>
</glyph>
<glyph name="seven" format="1">
  <advance width="594"/>
  <unicode hex="0037"/>
  <outline>
    <contour>
      <point x="33" y="700" type="line"/>
      <point x="33" y="461" type="line"/>
      <point x="190" y="461" type="line"/>
      <point x="190" y="559" type="line"/>
      <point x="383" y="559" type="line"/>
      <point x="132" y="0" type="line"/>
      <point x="320" y="0" type="line"/>
      <point x="579" y="579" type="line"/>
      <point x="579" y="700" type="line"/>
    </contour>
  </outline>
</glyph>
<glyph name="less" format="1">
  <advance width="510"/>
  <unicode hex="003C"/>
  <outline>
    <contour>
      <point x="33" y="394" type="line"/>
      <point x="33" y="255" type="line"/>
      <point x="478" y="70" type="line"/>
      <point x="478" y="191" type="line"/>
      <point x="145" y="324" type="line"/>
      <point x="478" y="457" type="line"/>
      <point x="478" y="579" type="line"/>
    </contour>
  </outline>
</glyph>
<glyph name="equal" format="1">
  <advance width="510"/>
  <unicode hex="003D"/>
  <outline>
    <contour>
      <point x="33" y="489" type="line"/>
      <point x="33" y="380" type="line"/>
      <point x="478" y="380" type="line"/>
      <point x="478" y="489" type="line"/>
    </contour>
    <contour>
      <point x="33" y="274" type="line"/>
      <point x="33" y="165" type="line"/>
      <point x="478" y="165" type="line"/>
      <point x="478" y="274" type="line"/>
    </contour>
  </outline>
</glyph>
<glyph name="question" format="1">
  <advance width="472"/>
  <unicode hex="003F"/>
  <outline>
    <contour>
      <point x="136" y="475" type="line"/>
      <point x="138" y="537"/>
      <point x="165" y="566"/>
      <point x="215" y="566" type="curve" smooth="yes"/>
      <point x="261" y="566"/>
      <point x="288" y="546"/>
      <point x="288" y="501" type="curve" smooth="yes"/>
      <point x="288" y="402"/>
      <point x="164" y="394"/>
      <point x="164" y="239" type="curve"/>
      <point x="293" y="239" type="line"/>
      <point x="293" y="359"/>
      <point x="447" y="377"/>
      <point x="447" y="529" type="curve" smooth="yes"/>
      <point x="447" y="641"/>
      <point x="364" y="703"/>
      <point x="231" y="703" type="curve" smooth="yes"/>
      <point x="90" y="703"/>
      <point x="5" y="619"/>
      <point x="3" y="476" type="curve"/>
    </contour>
    <component base="period" xOffset="105"/>
  </outline>
</glyph>
<glyph name="at" format="1">
  <advance width="917"/>
  <unicode hex="0040"/>
  <outline>
    <contour>
      <point x="219" y="700"/>
      <point x="24" y="511"/>
      <point x="24" y="268" type="curve" smooth="yes"/>
      <point x="24" y="29"/>
      <point x="209" y="-149"/>
      <point x="452" y="-149" type="curve" smooth="yes"/>
      <point x="529" y="-149"/>
      <point x="628" y="-121"/>
      <point x="687" y="-77" type="curve"/>
      <point x="640" y="3" type="line"/>
      <point x="584" y="-39"/>
      <point x="510" y="-58"/>
      <point x="452" y="-58" type="curve" smooth="yes"/>
      <point x="265" y="-58"/>
      <point x="122" y="80"/>
      <point x="122" y="268" type="curve" smooth="yes"/>
      <point x="122" y="458"/>
      <point x="274" y="610"/>
      <point x="465" y="610" type="curve" smooth="yes"/>
      <point x="673" y="610"/>
      <point x="796" y="462"/>
      <point x="796" y="271" type="curve" smooth="yes"/>
      <point x="796" y="175"/>
      <point x="755" y="108"/>
      <point x="713" y="108" type="curve" smooth="yes"/>
      <point x="691" y="108"/>
      <point x="676" y="121"/>
      <point x="676" y="157" type="curve" smooth="yes"/>
      <point x="676" y="494" type="line"/>
      <point x="554" y="494" type="line"/>
      <point x="554" y="441" type="line"/>
      <point x="549" y="452"/>
      <point x="498" y="505"/>
      <point x="418" y="505" type="curve" smooth="yes"/>
      <point x="293" y="505"/>
      <point x="213" y="398"/>
      <point x="213" y="270" type="curve" smooth="yes"/>
      <point x="213" y="131"/>
      <point x="319" y="39"/>
      <point x="431" y="39" type="curve" smooth="yes"/>
      <point x="488" y="39"/>
      <point x="543" y="63"/>
      <point x="582" y="119" type="curve"/>
      <point x="584" y="106" type="line" smooth="yes"/>
      <point x="597" y="52"/>
      <point x="641" y="28"/>
      <point x="701" y="28" type="curve" smooth="yes"/>
      <point x="813" y="28"/>
      <point x="893" y="125"/>
      <point x="893" y="274" type="curve" smooth="yes"/>
      <point x="893" y="520"/>
      <point x="710" y="700"/>
      <point x="465" y="700" type="curve" smooth="yes"/>
    </contour>
    <contour>
      <point x="507" y="394"/>
      <point x="546" y="340"/>
      <point x="546" y="274" type="curve" smooth="yes"/>
      <point x="546" y="205"/>
      <point x="508" y="148"/>
      <point x="444" y="148" type="curve" smooth="yes"/>
      <point x="384" y="148"/>
      <point x="346" y="207"/>
      <point x="346" y="275" type="curve" smooth="yes"/>
      <point x="346" y="340"/>
      <point x="384" y="394"/>
      <point x="443" y="394" type="curve" smooth="yes"/>
    </contour>
  </outline>
</glyph>
<glyph name="B" format="1">
  <advance width="715"/>
  <unicode hex="0042"/>
  <outline>
    <contour>
      <point x="70" y="700" type="line"/>
      <point x="70" y="0" type="line"/>
      <point x="413" y="0" type="line" smooth="yes"/>
      <point x="578" y="0"/>
      <point x="682" y="75"/>
      <point x="682" y="194" type="curve" smooth="yes"/>
      <point x="682" y="285"/>
      <point x="626" y="354"/>
      <point x="538" y="371" type="curve"/>
      <point x="612" y="392"/>
      <point x="658" y="451"/>
      <point x="658" y="525" type="curve" smooth="yes"/>
      <point x="658" y="632"/>
      <point x="558" y="700"/>
      <point x="401" y="700" type="curve" smooth="yes"/>
    </contour>
    <contour>
      <point x="457" y="292"/>
      <point x="498" y="263"/>
      <point x="498" y="216" type="curve" smooth="yes"/>
      <point x="498" y="166"/>
      <point x="457" y="137"/>
      <point x="391" y="137" type="curve" smooth="yes"/>
      <point x="247" y="137" type="line"/>
      <point x="247" y="292" type="line"/>
      <point x="391" y="292" type="line" smooth="yes"/>
    </contour>
    <contour>
      <point x="443" y="564"/>
      <point x="476" y="538"/>
      <point x="476" y="493" type="curve" smooth="yes"/>
      <point x="476" y="448"/>
      <point x="443" y="420"/>
      <point x="391" y="420" type="curve" smooth="yes"/>
      <point x="247" y="420" type="line"/>
      <point x="247" y="564" type="line"/>
      <point x="391" y="564" type="line" smooth="yes"/>
    </contour>
  </outline>
</glyph>
<glyph name="C" format="1">
  <advance width="692"/>
  <unicode hex="0043"/>
  <outline>
    <contour>
      <point x="184" y="706"/>
      <point x="24" y="554"/>
      <point x="24" y="352" type="curve" smooth="yes"/>
      <point x="24" y="147"/>
      <point x="181" y="-8"/>
      <point x="392" y="-8" type="curve" smooth="yes"/>
      <point x="495" y="-8"/>
      <point x="606" y="43"/>
      <point x="680" y="120" type="curve"/>
      <point x="577" y="230" type="line"/>
      <point x="528" y="180"/>
      <point x="460" y="148"/>
      <point x="401" y="148" type="curve" smooth="yes"/>
      <point x="290" y="148"/>
      <point x="206" y="237"/>
      <point x="206" y="354" type="curve" smooth="yes"/>
      <point x="206" y="469"/>
      <point x="290" y="557"/>
      <point x="401" y="557" type="curve" smooth="yes"/>
      <point x="463" y="557"/>
      <point x="531" y="522"/>
      <point x="577" y="466" type="curve"/>
      <point x="680" y="588" type="line"/>
      <point x="610" y="660"/>
      <point x="501" y="706"/>
      <point x="398" y="706" type="curve" smooth="yes"/>
    </contour>
    <contour>
      <point x="384" y="701" type="move" name="top"/>
    </contour>
    <contour>
      <point x="375" y="0" type="move" name="bottom"/>
    </contour>
  </outline>
</glyph>
<glyph name="D" format="1">
  <advance width="767"/>
  <unicode hex="0044"/>
  <outline>
    <contour>
      <point x="70" y="700" type="line"/>
      <point x="70" y="0" type="line"/>
      <point x="364" y="0" type="line" smooth="yes"/>
      <point x="589" y="0"/>
      <point x="743" y="143"/>
      <point x="743" y="350" type="curve" smooth="yes"/>
      <point x="743" y="558"/>
      <point x="591" y="700"/>
      <point x="371" y="700" type="curve" smooth="yes"/>
    </contour>
    <contour>
      <point x="480" y="558"/>
      <point x="562" y="473"/>
      <point x="562" y="349" type="curve" smooth="yes"/>
      <point x="562" y="226"/>
      <point x="484" y="142"/>
      <point x="376" y="142" type="curve" smooth="yes"/>
      <point x="248" y="142" type="line"/>
      <point x="248" y="558" type="line"/>
      <point x="368" y="558" type="line" smooth="yes"/>
    </contour>
    <contour>
      <point x="378" y="351" type="move" name="center"/>
    </contour>
    <contour>
      <point x="358" y="700" type="move" name="top"/>
    </contour>
  </outline>
</glyph>
<glyph name="E" format="1">
  <advance width="674"/>
  <unicode hex="0045"/>
  <outline>
    <contour>
      <point x="70" y="700" type="line"/>
      <point x="70" y="0" type="line"/>
      <point x="629" y="0" type="line"/>
      <point x="629" y="140" type="line"/>
      <point x="248" y="140" type="line"/>
      <point x="248" y="281" type="line"/>
      <point x="582" y="281" type="line"/>
      <point x="582" y="421" type="line"/>
      <point x="248" y="421" type="line"/>
      <point x="248" y="560" type="line"/>
      <point x="618" y="560" type="line"/>
      <point x="618" y="700" type="line"/>
    </contour>
    <contour>
      <point x="622.998" y="10" type="move" name="ogonek"/>
    </contour>
    <contour>
      <point x="342" y="0" type="move" name="bottom"/>
    </contour>
    <contour>
      <point x="346" y="700" type="move" name="top"/>
    </contour>
  </outline>
</glyph>
<glyph name="F" format="1">
  <advance width="604"/>
  <unicode hex="0046"/>
  <outline>
    <contour>
      <point x="70" y="700" type="line"/>
      <point x="70" y="0" type="line"/>
      <point x="248" y="0" type="line"/>
      <point x="248" y="258" type="line"/>
      <point x="562" y="258" type="line"/>
      <point x="562" y="398" type="line"/>
      <point x="248" y="398" type="line"/>
      <point x="248" y="560" type="line"/>
      <point x="589" y="560" type="line"/>
      <point x="589" y="700" type="line"/>
    </contour>
  </outline>
</glyph>
<glyph name="G" format="1">
  <advance width="743"/>
  <unicode hex="0047"/>
  <outline>
    <contour>
      <point x="189" y="706"/>
      <point x="24" y="553"/>
      <point x="24" y="350" type="curve" smooth="yes"/>
      <point x="24" y="146"/>
      <point x="184" y="-8"/>
      <point x="398" y="-8" type="curve" smooth="yes"/>
      <point x="496" y="-8"/>
      <point x="614" y="30"/>
      <point x="689" y="83" type="curve"/>
      <point x="588" y="207" type="line"/>
      <point x="534" y="168"/>
      <point x="463" y="141"/>
      <point x="410" y="141" type="curve" smooth="yes"/>
      <point x="295" y="141"/>
      <point x="206" y="231"/>
      <point x="206" y="350" type="curve" smooth="yes"/>
      <point x="206" y="467"/>
      <point x="294" y="557"/>
      <point x="409" y="557" type="curve" smooth="yes"/>
      <point x="474" y="557"/>
      <point x="545" y="528"/>
      <point x="596" y="481" type="curve"/>
      <point x="696" y="602" type="line"/>
      <point x="624" y="666"/>
      <point x="514" y="706"/>
      <point x="409" y="706" type="curve" smooth="yes"/>
    </contour>
    <contour>
      <point x="535" y="356" type="line"/>
      <point x="535" y="83" type="line"/>
      <point x="688" y="83" type="line"/>
      <point x="688" y="356" type="line"/>
    </contour>
    <contour>
      <point x="392" y="701" type="move" name="top"/>
    </contour>
    <contour>
      <point x="392" y="0" type="move" name="bottom"/>
    </contour>
  </outline>
</glyph>
<glyph name="H" format="1">
  <advance width="786"/>
  <unicode hex="0048"/>
  <outline>
    <contour>
      <point x="538" y="700" type="line"/>
      <point x="538" y="412" type="line"/>
      <point x="248" y="412" type="line"/>
      <point x="248" y="700" type="line"/>
      <point x="70" y="700" type="line"/>
      <point x="70" y="0" type="line"/>
      <point x="248" y="0" type="line"/>
      <point x="248" y="272" type="line"/>
      <point x="538" y="272" type="line"/>
      <point x="538" y="0" type="line"/>
      <point x="716" y="0" type="line"/>
      <point x="716" y="700" type="line"/>
    </contour>
    <contour>
      <point x="393" y="351" type="move" name="center"/>
    </contour>
    <contour>
      <point x="401" y="700" type="move" name="top"/>
    </contour>
  </outline>
</glyph>
<glyph name="I" format="1">
  <advance width="318"/>
  <unicode hex="0049"/>
  <outline>
    <contour>
      <point x="70" y="700" type="line"/>
      <point x="70" y="0" type="line"/>
      <point x="248" y="0" type="line"/>
      <point x="248" y="700" type="line"/>
    </contour>
    <contour>
      <point x="275" y="10" type="move" name="ogonek"/>
    </contour>
    <contour>
      <point x="159" y="700" type="move" name="top"/>
    </contour>
  </outline>
</glyph>
<glyph name="J" format="1">
  <advance width="536"/>
  <unicode hex="004A"/>
  <outline>
    <contour>
      <point x="59" y="701" type="line"/>
      <point x="59" y="557" type="line"/>
      <point x="299" y="557" type="line"/>
      <point x="299" y="231" type="line" smooth="yes"/>
      <point x="299" y="174"/>
      <point x="271" y="145"/>
      <point x="224" y="145" type="curve" smooth="yes"/>
      <point x="183" y="145"/>
      <point x="127" y="171"/>
      <point x="76" y="223" type="curve"/>
      <point x="-5" y="104" type="line"/>
      <point x="57" y="33"/>
      <point x="137" y="-8"/>
      <point x="236" y="-8" type="curve" smooth="yes"/>
      <point x="384" y="-8"/>
      <point x="478" y="78"/>
      <point x="478" y="227" type="curve" smooth="yes"/>
      <point x="478" y="701" type="line"/>
    </contour>
    <contour>
      <point x="266" y="701" type="move" name="top"/>
    </contour>
  </outline>
</glyph>
<glyph name="K" format="1">
  <advance width="747"/>
  <unicode hex="004B"/>
  <outline>
    <contour>
      <point x="516" y="700" type="line"/>
      <point x="248" y="397" type="line"/>
      <point x="248" y="700" type="line"/>
      <point x="70" y="700" type="line"/>
      <point x="70" y="0" type="line"/>
      <point x="248" y="0" type="line"/>
      <point x="248" y="172" type="line"/>
      <point x="722" y="700" type="line"/>
    </contour>
    <contour>
      <point x="330" y="291" type="line"/>
      <point x="526" y="0" type="line"/>
      <point x="739" y="0" type="line"/>
      <point x="448" y="431" type="line"/>
    </contour>
    <contour>
      <point x="363" y="700" type="move" name="top"/>
    </contour>
    <contour>
      <point x="363" y="0" type="move" name="bottom"/>
    </contour>
  </outline>
</glyph>
<glyph name="L" format="1">
  <advance width="560"/>
  <unicode hex="004C"/>
  <outline>
    <contour>
      <point x="70" y="700" type="line"/>
      <point x="70" y="0" type="line"/>
      <point x="545" y="0" type="line"/>
      <point x="545" y="149" type="line"/>
      <point x="248" y="149" type="line"/>
      <point x="248" y="700" type="line"/>
    </contour>
    <contour>
      <point x="156" y="700" type="move" name="top"/>
    </contour>
    <contour>
      <point x="291" y="0" type="move" name="bottom"/>
    </contour>
  </outline>
</glyph>
<glyph name="M" format="1">
  <advance width="910"/>
  <unicode hex="004D"/>
  <outline>
    <contour>
      <point x="645" y="701" type="line"/>
      <point x="455" y="284" type="line"/>
      <point x="265" y="701" type="line"/>
      <point x="70" y="701" type="line"/>
      <point x="70" y="0" type="line"/>
      <point x="229" y="0" type="line"/>
      <point x="229" y="455" type="line"/>
      <point x="397" y="70" type="line"/>
      <point x="513" y="70" type="line"/>
      <point x="681" y="455" type="line"/>
      <point x="682" y="0" type="line"/>
      <point x="839" y="0" type="line"/>
      <point x="839" y="701" type="line"/>
    </contour>
  </outline>
</glyph>
<glyph name="N" format="1">
  <advance width="786"/>
  <unicode hex="004E"/>
  <outline>
    <contour>
      <point x="550" y="700" type="line"/>
      <point x="550" y="268" type="line"/>
      <point x="227" y="700" type="line"/>
      <point x="70" y="700" type="line"/>
      <point x="70" y="0" type="line"/>
      <point x="237" y="0" type="line"/>
      <point x="237" y="431" type="line"/>
      <point x="559.005" y="0" type="line"/>
      <point x="716" y="0" type="line"/>
      <point x="716" y="700" type="line"/>
    </contour>
    <contour>
      <point x="393" y="700" type="move" name="top"/>
    </contour>
    <contour>
      <point x="393" y="0" type="move" name="bottom"/>
    </contour>
  </outline>
</glyph>
<glyph name="O" format="1">
  <advance width="805"/>
  <unicode hex="004F"/>
  <outline>
    <contour>
      <point x="186" y="706"/>
      <point x="24" y="555"/>
      <point x="24" y="351" type="curve" smooth="yes"/>
      <point x="24" y="146"/>
      <point x="186" y="-8"/>
      <point x="402" y="-8" type="curve" smooth="yes"/>
      <point x="619" y="-8"/>
      <point x="781" y="147"/>
      <point x="781" y="351" type="curve" smooth="yes"/>
      <point x="781" y="554"/>
      <point x="619" y="706"/>
      <point x="402" y="706" type="curve" smooth="yes"/>
    </contour>
    <contour>
      <point x="512" y="557"/>
      <point x="599" y="468"/>
      <point x="599" y="350" type="curve" smooth="yes"/>
      <point x="599" y="232"/>
      <point x="512" y="141"/>
      <point x="405" y="141" type="curve" smooth="yes"/>
      <point x="297" y="141"/>
      <point x="206" y="232"/>
      <point x="206" y="350" type="curve" smooth="yes"/>
      <point x="206" y="468"/>
      <point x="296" y="557"/>
      <point x="405" y="557" type="curve" smooth="yes"/>
    </contour>
    <contour>
      <point x="395" y="701" type="move" name="top"/>
    </contour>
  </outline>
</glyph>
<glyph name="P" format="1">
  <advance width="680"/>
  <unicode hex="0050"/>
  <outline>
    <contour>
      <point x="70" y="700" type="line"/>
      <point x="70" y="0" type="line"/>
      <point x="248" y="0" type="line"/>
      <point x="248" y="197" type="line"/>
      <point x="375" y="197" type="line" smooth="yes"/>
      <point x="554" y="197"/>
      <point x="657" y="292"/>
      <point x="657" y="456" type="curve" smooth="yes"/>
      <point x="657" y="612"/>
      <point x="554" y="700"/>
      <point x="375" y="700" type="curve" smooth="yes"/>
    </contour>
    <contour>
      <point x="444" y="560"/>
      <point x="489" y="523"/>
      <point x="489" y="450" type="curve" smooth="yes"/>
      <point x="489" y="376"/>
      <point x="444" y="337"/>
      <point x="367" y="337" type="curve" smooth="yes"/>
      <point x="248" y="337" type="line"/>
      <point x="248" y="560" type="line"/>
      <point x="367" y="560" type="line" smooth="yes"/>
    </contour>
  </outline>
</glyph>
<glyph name="Q" format="1">
  <advance width="810"/>
  <unicode hex="0051"/>
  <outline>
    <contour>
      <point x="385" y="-1" type="line"/>
      <point x="430" y="-102"/>
      <point x="514" y="-165"/>
      <point x="614" y="-165" type="curve" smooth="yes"/>
      <point x="683" y="-165"/>
      <point x="762" y="-136"/>
      <point x="816" y="-88" type="curve"/>
      <point x="753" y="22" type="line"/>
      <point x="711" y="-11"/>
      <point x="666" y="-31"/>
      <point x="633" y="-31" type="curve" smooth="yes"/>
      <point x="593" y="-31"/>
      <point x="556" y="-1"/>
      <point x="528" y="46" type="curve"/>
    </contour>
    <component base="O"/>
  </outline>
</glyph>
<glyph name="R" format="1">
  <advance width="724"/>
  <unicode hex="0052"/>
  <outline>
    <contour>
      <point x="70" y="700" type="line"/>
      <point x="70" y="0" type="line"/>
      <point x="248" y="0" type="line"/>
      <point x="248" y="197" type="line"/>
      <point x="383" y="197" type="line" smooth="yes"/>
      <point x="568" y="197"/>
      <point x="674" y="292"/>
      <point x="674" y="456" type="curve" smooth="yes"/>
      <point x="674" y="612"/>
      <point x="568" y="700"/>
      <point x="383" y="700" type="curve" smooth="yes"/>
    </contour>
    <contour>
      <point x="354" y="262" type="line"/>
      <point x="493" y="0" type="line"/>
      <point x="694" y="0" type="line"/>
      <point x="527" y="262" type="line"/>
    </contour>
    <contour>
      <point x="461" y="560"/>
      <point x="505" y="523"/>
      <point x="505" y="450" type="curve" smooth="yes"/>
      <point x="505" y="376"/>
      <point x="461" y="337"/>
      <point x="383" y="337" type="curve" smooth="yes"/>
      <point x="248" y="337" type="line"/>
      <point x="248" y="560" type="line"/>
      <point x="383" y="560" type="line" smooth="yes"/>
    </contour>
    <contour>
      <point x="364" y="700" type="move" name="top"/>
    </contour>
    <contour>
      <point x="360" y="0" type="move" name="bottom"/>
    </contour>
  </outline>
</glyph>
<glyph name="S" format="1">
  <advance width="644"/>
  <unicode hex="0053"/>
  <outline>
    <contour>
      <point x="171" y="708"/>
      <point x="61" y="626"/>
      <point x="61" y="497" type="curve" smooth="yes"/>
      <point x="61" y="249"/>
      <point x="431" y="323"/>
      <point x="431" y="199" type="curve" smooth="yes"/>
      <point x="431" y="159"/>
      <point x="396" y="138"/>
      <point x="339" y="138" type="curve" smooth="yes"/>
      <point x="266" y="138"/>
      <point x="158" y="180"/>
      <point x="86" y="243" type="curve"/>
      <point x="17" y="106" type="line"/>
      <point x="100" y="38"/>
      <point x="221" y="-6"/>
      <point x="337" y="-6" type="curve" smooth="yes"/>
      <point x="493" y="-6"/>
      <point x="617" y="68"/>
      <point x="617" y="208" type="curve" smooth="yes"/>
      <point x="618" y="461"/>
      <point x="248" y="392"/>
      <point x="248" y="513" type="curve" smooth="yes"/>
      <point x="248" y="547"/>
      <point x="278" y="564"/>
      <point x="324" y="564" type="curve" smooth="yes"/>
      <point x="382" y="564"/>
      <point x="475" y="534"/>
      <point x="548" y="491" type="curve"/>
      <point x="616" y="630" type="line"/>
      <point x="543" y="677"/>
      <point x="441" y="708"/>
      <point x="339" y="708" type="curve" smooth="yes"/>
    </contour>
    <contour>
      <point x="340" y="701" type="move" name="top"/>
    </contour>
    <contour>
      <point x="331" y="0" type="move" name="bottom"/>
    </contour>
  </outline>
</glyph>
<glyph name="T" format="1">
  <advance width="611"/>
  <unicode hex="0054"/>
  <outline>
    <contour>
      <point x="7" y="701" type="line"/>
      <point x="7" y="557" type="line"/>
      <point x="216" y="557" type="line"/>
      <point x="216" y="0" type="line"/>
      <point x="394" y="0" type="line"/>
      <point x="394" y="557" type="line"/>
      <point x="605" y="557" type="line"/>
      <point x="605" y="701" type="line"/>
    </contour>
    <contour>
      <point x="296" y="351" type="move" name="center"/>
    </contour>
    <contour>
      <point x="293" y="0" type="move" name="bottom"/>
    </contour>
    <contour>
      <point x="318" y="701" type="move" name="top"/>
    </contour>
  </outline>
</glyph>
<glyph name="U" format="1">
  <advance width="758"/>
  <unicode hex="0055"/>
  <outline>
    <contour>
      <point x="523" y="700" type="line"/>
      <point x="523" y="294" type="line" smooth="yes"/>
      <point x="523" y="199"/>
      <point x="466" y="141"/>
      <point x="382" y="141" type="curve" smooth="yes"/>
      <point x="297" y="141"/>
      <point x="236" y="199"/>
      <point x="236" y="294" type="curve" smooth="yes"/>
      <point x="236" y="700" type="line"/>
      <point x="58" y="700" type="line"/>
      <point x="58" y="294" type="line" smooth="yes"/>
      <point x="58" y="109"/>
      <point x="184" y="-8"/>
      <point x="381" y="-8" type="curve" smooth="yes"/>
      <point x="577" y="-8"/>
      <point x="700" y="109"/>
      <point x="700" y="294" type="curve" smooth="yes"/>
      <point x="700" y="700" type="line"/>
    </contour>
    <contour>
      <point x="563" y="10" type="move" name="ogonek"/>
    </contour>
    <contour>
      <point x="380" y="700" type="move" name="top"/>
    </contour>
  </outline>
</glyph>
<glyph name="V" format="1">
  <advance width="729"/>
  <unicode hex="0056"/>
  <outline>
    <contour>
      <point x="547" y="700" type="line"/>
      <point x="368" y="185" type="line"/>
      <point x="189" y="700" type="line"/>
      <point x="-1" y="700" type="line"/>
      <point x="271" y="0" type="line"/>
      <point x="455" y="0" type="line"/>
      <point x="730" y="700" type="line"/>
    </contour>
  </outline>
</glyph>
<glyph name="W" format="1">
  <advance width="1081"/>
  <unicode hex="0057"/>
  <outline>
    <contour>
      <point x="906" y="700" type="line"/>
      <point x="771" y="185" type="line"/>
      <point x="634" y="700" type="line"/>
      <point x="460" y="700" type="line"/>
      <point x="326" y="185" type="line"/>
      <point x="189" y="700" type="line"/>
      <point x="-1" y="700" type="line"/>
      <point x="228" y="0" type="line"/>
      <point x="411" y="0" type="line"/>
      <point x="544" y="484" type="line"/>
      <point x="673" y="0" type="line"/>
      <point x="857" y="0" type="line"/>
      <point x="1088" y="700" type="line"/>
    </contour>
    <contour>
      <point x="514" y="700" type="move" name="top"/>
    </contour>
  </outline>
</glyph>
<glyph name="X" format="1">
  <advance width="734"/>
  <unicode hex="0058"/>
  <outline>
    <contour>
      <point x="498" y="700" type="line"/>
      <point x="363" y="496" type="line"/>
      <point x="228" y="700" type="line"/>
      <point x="21" y="700" type="line"/>
      <point x="255" y="358" type="line"/>
      <point x="5" y="0" type="line"/>
      <point x="213" y="0" type="line"/>
      <point x="363" y="223" type="line"/>
      <point x="515" y="0" type="line"/>
      <point x="727" y="0" type="line"/>
      <point x="476" y="366" type="line"/>
      <point x="707" y="700" type="line"/>
    </contour>
  </outline>
</glyph>
<glyph name="Y" format="1">
  <advance width="680"/>
  <unicode hex="0059"/>
  <outline>
    <contour>
      <point x="507" y="700" type="line"/>
      <point x="342" y="395" type="line"/>
      <point x="173" y="700" type="line"/>
      <point x="-5" y="700" type="line"/>
      <point x="330" y="81" type="line"/>
      <point x="353" y="81" type="line"/>
      <point x="685" y="700" type="line"/>
    </contour>
    <contour>
      <point x="254" y="307" type="line"/>
      <point x="254" y="0" type="line"/>
      <point x="432" y="0" type="line"/>
      <point x="432" y="307" type="line"/>
    </contour>
    <contour>
      <point x="340" y="700" type="move" name="top"/>
    </contour>
  </outline>
</glyph>
<glyph name="Z" format="1">
  <advance width="675"/>
  <unicode hex="005A"/>
  <outline>
    <contour>
      <point x="41" y="700" type="line"/>
      <point x="40" y="559" type="line"/>
      <point x="403" y="559" type="line"/>
      <point x="28" y="114" type="line"/>
      <point x="28" y="0" type="line"/>
      <point x="646" y="0" type="line"/>
      <point x="646" y="141" type="line"/>
      <point x="266" y="141" type="line"/>
      <point x="640" y="586" type="line"/>
      <point x="640" y="700" type="line"/>
    </contour>
    <contour>
      <point x="353" y="700" type="move" name="top"/>
    </contour>
  </outline>
</glyph>
<glyph name="bracketleft" format="1">
  <advance width="362"/>
  <unicode hex="005B"/>
  <outline>
    <contour>
      <point x="70" y="742" type="line"/>
      <point x="70" y="-124" type="line"/>
      <point x="344" y="-124" type="line"/>
      <point x="344" y="4" type="line"/>
      <point x="224" y="4" type="line"/>
      <point x="224" y="614" type="line"/>
      <point x="344" y="614" type="line"/>
      <point x="344" y="742" type="line"/>
    </contour>
  </outline>
</glyph>
<glyph name="grave" format="1">
  <advance width="350"/>
  <unicode hex="0060"/>
  <outline>
    <contour>
      <point x="41" y="713" type="line"/>
      <point x="171" y="600" type="line"/>
      <point x="303" y="600" type="line"/>
      <point x="197" y="768" type="line"/>
    </contour>
    <contour>
      <point x="215" y="539" type="move" name="_top"/>
    </contour>
  </outline>
</glyph>
<glyph name="a" format="1">
  <advance width="600"/>
  <unicode hex="0061"/>
  <outline>
    <contour>
      <point x="221" y="547"/>
      <point x="145" y="525"/>
      <point x="61" y="486" type="curve"/>
      <point x="110" y="372" type="line"/>
      <point x="167" y="401"/>
      <point x="226" y="417"/>
      <point x="271" y="417" type="curve" smooth="yes"/>
      <point x="341" y="417"/>
      <point x="376" y="385"/>
      <point x="376" y="332" type="curve"/>
      <point x="377" y="0" type="line"/>
      <point x="546" y="0" type="line"/>
      <point x="546" y="352" type="line" smooth="yes"/>
      <point x="545" y="474"/>
      <point x="459" y="547"/>
      <point x="311" y="547" type="curve" smooth="yes"/>
    </contour>
    <contour>
      <point x="234" y="324" type="line" smooth="yes"/>
      <point x="100" y="323"/>
      <point x="27" y="263"/>
      <point x="27" y="161" type="curve" smooth="yes"/>
      <point x="27" y="62"/>
      <point x="96" y="-8"/>
      <point x="212" y="-8" type="curve" smooth="yes"/>
      <point x="306" y="-8"/>
      <point x="371" y="32"/>
      <point x="400" y="104" type="curve"/>
      <point x="376" y="185" type="line"/>
      <point x="366" y="140"/>
      <point x="320" y="109"/>
      <point x="264" y="109" type="curve" smooth="yes"/>
      <point x="217" y="109"/>
      <point x="189" y="134"/>
      <point x="189" y="173" type="curve" smooth="yes"/>
      <point x="189" y="213"/>
      <point x="215" y="231"/>
      <point x="266" y="231" type="curve" smooth="yes"/>
      <point x="393" y="231" type="line"/>
      <point x="393" y="324" type="line"/>
    </contour>
    <contour>
      <point x="571" y="10" type="move" name="ogonek"/>
    </contour>
    <contour>
      <point x="299" y="539" type="move" name="top"/>
    </contour>
  </outline>
</glyph>
<glyph name="c" format="1">
  <advance width="562"/>
  <unicode hex="0063"/>
  <outline>
    <contour>
      <point x="136" y="545"/>
      <point x="24" y="434"/>
      <point x="24" y="268" type="curve" smooth="yes"/>
      <point x="24" y="104"/>
      <point x="135" y="-6"/>
      <point x="302" y="-6" type="curve" smooth="yes"/>
      <point x="415" y="-6"/>
      <point x="503" y="40"/>
      <point x="546" y="119" type="curve"/>
      <point x="420" y="193" type="line"/>
      <point x="397" y="152"/>
      <point x="359" y="132"/>
      <point x="311" y="132" type="curve" smooth="yes"/>
      <point x="244" y="132"/>
      <point x="198" y="186"/>
      <point x="198" y="269" type="curve" smooth="yes"/>
      <point x="198" y="350"/>
      <point x="244" y="405"/>
      <point x="311" y="405" type="curve" smooth="yes"/>
      <point x="358" y="405"/>
      <point x="395" y="384"/>
      <point x="420" y="349" type="curve"/>
      <point x="543" y="424" type="line"/>
      <point x="496" y="501"/>
      <point x="411" y="545"/>
      <point x="303" y="545" type="curve" smooth="yes"/>
    </contour>
    <contour>
      <point x="293" y="539" type="move" name="top"/>
    </contour>
    <contour>
      <point x="290" y="0" type="move" name="bottom"/>
    </contour>
  </outline>
</glyph>
<glyph name="d" format="1">
  <advance width="686"/>
  <unicode hex="0064"/>
  <outline>
    <contour>
      <point x="429" y="264" type="move"/>
    </contour>
    <contour>
      <point x="124" y="546"/>
      <point x="25" y="437"/>
      <point x="25" y="272" type="curve" smooth="yes"/>
      <point x="25" y="105"/>
      <point x="125" y="-7"/>
      <point x="278" y="-7" type="curve" smooth="yes"/>
      <point x="413" y="-7"/>
      <point x="496" y="101"/>
      <point x="495" y="271" type="curve"/>
      <point x="496" y="440"/>
      <point x="411" y="546"/>
      <point x="274" y="546" type="curve" smooth="yes"/>
    </contour>
    <contour>
      <point x="390" y="408"/>
      <point x="439" y="351"/>
      <point x="439" y="268" type="curve" smooth="yes"/>
      <point x="439" y="185"/>
      <point x="390" y="127"/>
      <point x="319" y="127" type="curve" smooth="yes"/>
      <point x="247" y="127"/>
      <point x="198" y="185"/>
      <point x="198" y="268" type="curve" smooth="yes"/>
      <point x="198" y="351"/>
      <point x="247" y="408"/>
      <point x="319" y="408" type="curve" smooth="yes"/>
    </contour>
    <contour>
      <point x="439" y="742" type="line"/>
      <point x="439" y="0" type="line"/>
      <point x="612" y="0" type="line"/>
      <point x="612" y="742" type="line"/>
    </contour>
    <contour>
      <point x="-15" y="0" type="move" name="center"/>
    </contour>
  </outline>
</glyph>
<glyph name="e" format="1">
  <advance width="602"/>
  <unicode hex="0065"/>
  <outline>
    <contour>
      <point x="168" y="223" type="line"/>
      <point x="576" y="223" type="line"/>
      <point x="589" y="420"/>
      <point x="494" y="545"/>
      <point x="305" y="545" type="curve" smooth="yes"/>
      <point x="138" y="545"/>
      <point x="24" y="435"/>
      <point x="24" y="268" type="curve" smooth="yes"/>
      <point x="24" y="104"/>
      <point x="134" y="-6"/>
      <point x="309" y="-6" type="curve" smooth="yes"/>
      <point x="409" y="-6"/>
      <point x="489" y="29"/>
      <point x="544" y="89" type="curve"/>
      <point x="454" y="178" type="line"/>
      <point x="417" y="142"/>
      <point x="372" y="123"/>
      <point x="324" y="123" type="curve" smooth="yes"/>
      <point x="245" y="123"/>
      <point x="191" y="180"/>
      <point x="191" y="278" type="curve" smooth="yes"/>
      <point x="191" y="364"/>
      <point x="235" y="425"/>
      <point x="307" y="425" type="curve" smooth="yes"/>
      <point x="368" y="425"/>
      <point x="410" y="382"/>
      <point x="411" y="316" type="curve"/>
      <point x="167" y="316" type="line"/>
    </contour>
    <contour>
      <point x="541" y="10" type="move" name="ogonek"/>
    </contour>
    <contour>
      <point x="304" y="0" type="move" name="bottom"/>
    </contour>
    <contour>
      <point x="301" y="539" type="move" name="top"/>
    </contour>
  </outline>
</glyph>
<glyph name="f" format="1">
  <advance width="386"/>
  <unicode hex="0066"/>
  <outline>
    <contour>
      <point x="191" y="750"/>
      <point x="101" y="684"/>
      <point x="101" y="565" type="curve" smooth="yes"/>
      <point x="101" y="0" type="line"/>
      <point x="273" y="0" type="line"/>
      <point x="273" y="554" type="line"/>
      <point x="273" y="594"/>
      <point x="299" y="614"/>
      <point x="334" y="613" type="curve"/>
      <point x="354" y="613"/>
      <point x="378" y="605"/>
      <point x="398" y="591" type="curve"/>
      <point x="458" y="712" type="line"/>
      <point x="418" y="736"/>
      <point x="360" y="750"/>
      <point x="307" y="750" type="curve"/>
    </contour>
    <contour>
      <point x="28" y="515" type="line"/>
      <point x="28" y="401" type="line"/>
      <point x="394" y="401" type="line"/>
      <point x="394" y="515" type="line"/>
    </contour>
  </outline>
</glyph>
<glyph name="g" format="1">
  <advance width="647"/>
  <unicode hex="0067"/>
  <outline>
    <contour>
      <point x="412" y="539" type="line"/>
      <point x="412" y="44" type="line" smooth="yes"/>
      <point x="412" y="-23"/>
      <point x="362" y="-67"/>
      <point x="280" y="-67" type="curve" smooth="yes"/>
      <point x="221" y="-67"/>
      <point x="161" y="-47"/>
      <point x="113" y="-13" type="curve"/>
      <point x="52" y="-130" type="line"/>
      <point x="113" y="-171"/>
      <point x="198" y="-201"/>
      <point x="292" y="-201" type="curve" smooth="yes"/>
      <point x="467" y="-201"/>
      <point x="584" y="-104"/>
      <point x="584" y="49" type="curve" smooth="yes"/>
      <point x="584" y="539" type="line"/>
    </contour>
    <contour>
      <point x="118" y="545"/>
      <point x="25" y="443"/>
      <point x="25" y="290" type="curve" smooth="yes"/>
      <point x="25" y="133"/>
      <point x="121" y="29"/>
      <point x="257" y="29" type="curve" smooth="yes"/>
      <point x="390" y="29"/>
      <point x="465" y="129"/>
      <point x="465" y="289" type="curve"/>
      <point x="465" y="447"/>
      <point x="387" y="546"/>
      <point x="253" y="545" type="curve" smooth="yes"/>
    </contour>
    <contour>
      <point x="367" y="417"/>
      <point x="412" y="364"/>
      <point x="412" y="285" type="curve" smooth="yes"/>
      <point x="412" y="208"/>
      <point x="367" y="154"/>
      <point x="300" y="154" type="curve" smooth="yes"/>
      <point x="232" y="154"/>
      <point x="186" y="208"/>
      <point x="186" y="285" type="curve" smooth="yes"/>
      <point x="186" y="363"/>
      <point x="232" y="417"/>
      <point x="300" y="417" type="curve" smooth="yes"/>
    </contour>
    <contour>
      <point x="324" y="539" type="move" name="top"/>
    </contour>
  </outline>
</glyph>
<glyph name="h" format="1">
  <advance width="678"/>
  <unicode hex="0068"/>
  <outline>
    <contour>
      <point x="74" y="742" type="line"/>
      <point x="74" y="0" type="line"/>
      <point x="247" y="0" type="line"/>
      <point x="247" y="742" type="line"/>
    </contour>
    <contour>
      <point x="289" y="546"/>
      <point x="205" y="451"/>
      <point x="205" y="266" type="curve"/>
      <point x="246" y="266" type="line"/>
      <point x="246" y="340"/>
      <point x="288" y="394"/>
      <point x="357" y="394" type="curve" smooth="yes"/>
      <point x="415" y="394"/>
      <point x="452" y="355"/>
      <point x="452" y="292" type="curve" smooth="yes"/>
      <point x="452" y="0" type="line"/>
      <point x="624" y="0" type="line"/>
      <point x="624" y="340" type="line" smooth="yes"/>
      <point x="624" y="466"/>
      <point x="546" y="547"/>
      <point x="427" y="547" type="curve" smooth="yes"/>
    </contour>
    <contour>
      <point x="334" y="270" type="move" name="center"/>
    </contour>
    <contour>
      <point x="334" y="539" type="move" name="top"/>
    </contour>
    <contour>
      <point x="292" y="539" type="move" name="topright"/>
    </contour>
    <contour>
      <point x="514" y="0" type="move" name="bottom"/>
    </contour>
  </outline>
</glyph>
<glyph name="j" format="1">
  <advance width="319"/>
  <unicode hex="006A"/>
  <outline>
    <contour>
      <point x="71" y="539" type="line"/>
      <point x="71" y="-5" type="line"/>
      <point x="71" y="-46"/>
      <point x="50" y="-65"/>
      <point x="18" y="-64" type="curve"/>
      <point x="-2" y="-64"/>
      <point x="-23" y="-57"/>
      <point x="-43" y="-45" type="curve"/>
      <point x="-87" y="-166" type="line"/>
      <point x="-50" y="-189"/>
      <point x="-3" y="-201"/>
      <point x="48" y="-201" type="curve"/>
      <point x="158" y="-202"/>
      <point x="243" y="-137"/>
      <point x="243" y="-16" type="curve"/>
      <point x="243" y="539" type="line"/>
    </contour>
    <contour>
      <point x="100" y="785"/>
      <point x="59" y="747"/>
      <point x="59" y="693" type="curve" smooth="yes"/>
      <point x="59" y="640"/>
      <point x="100" y="602"/>
      <point x="157" y="602" type="curve" smooth="yes"/>
      <point x="215" y="602"/>
      <point x="255" y="640"/>
      <point x="255" y="693" type="curve" smooth="yes"/>
      <point x="255" y="747"/>
      <point x="215" y="785"/>
      <point x="157" y="785" type="curve" smooth="yes"/>
    </contour>
  </outline>
</glyph>
<glyph name="k" format="1">
  <advance width="630"/>
  <unicode hex="006B"/>
  <outline>
    <contour>
      <point x="230" y="111" type="move"/>
    </contour>
    <contour>
      <point x="74" y="742" type="line"/>
      <point x="74" y="0" type="line"/>
      <point x="247" y="0" type="line"/>
      <point x="247" y="742" type="line"/>
    </contour>
    <contour>
      <point x="425" y="539" type="line"/>
      <point x="237" y="339" type="line"/>
      <point x="237" y="137" type="line"/>
      <point x="621" y="539" type="line"/>
    </contour>
    <contour>
      <point x="283" y="247" type="line"/>
      <point x="422" y="0" type="line"/>
      <point x="627" y="0" type="line"/>
      <point x="411" y="351" type="line"/>
    </contour>
    <contour>
      <point x="161" y="742" type="move" name="top"/>
    </contour>
    <contour>
      <point x="133" y="0" type="move" name="bottom"/>
    </contour>
    <contour>
      <point x="292" y="539" type="move" name="topright"/>
    </contour>
  </outline>
</glyph>
<glyph name="l" format="1">
  <advance width="321"/>
  <unicode hex="006C"/>
  <outline>
    <contour>
      <point x="74" y="742" type="line"/>
      <point x="74" y="0" type="line"/>
      <point x="247" y="0" type="line"/>
      <point x="247" y="742" type="line"/>
    </contour>
    <contour>
      <point x="161" y="742" type="move" name="top"/>
    </contour>
    <contour>
      <point x="161" y="0" type="move" name="bottom"/>
    </contour>
    <contour>
      <point x="292" y="539" type="move" name="topright"/>
    </contour>
  </outline>
</glyph>
<glyph name="m" format="1">
  <advance width="1037"/>
  <unicode hex="006D"/>
  <outline>
    <contour>
      <point x="69" y="539" type="line"/>
      <point x="69" y="0" type="line"/>
      <point x="241" y="0" type="line"/>
      <point x="241" y="539" type="line"/>
    </contour>
    <contour>
      <point x="283" y="546"/>
      <point x="200" y="451"/>
      <point x="200" y="267" type="curve"/>
      <point x="241" y="267" type="line"/>
      <point x="241" y="340"/>
      <point x="282" y="393"/>
      <point x="348" y="395" type="curve" smooth="yes"/>
      <point x="405" y="395"/>
      <point x="440" y="356"/>
      <point x="440" y="292" type="curve" smooth="yes"/>
      <point x="440" y="0" type="line"/>
      <point x="613" y="0" type="line"/>
      <point x="613" y="340" type="line" smooth="yes"/>
      <point x="613" y="466"/>
      <point x="536" y="547"/>
      <point x="419" y="547" type="curve" smooth="yes"/>
    </contour>
    <contour>
      <point x="654" y="546"/>
      <point x="571" y="451"/>
      <point x="571" y="267" type="curve"/>
      <point x="613" y="267" type="line"/>
      <point x="613" y="340"/>
      <point x="653" y="393"/>
      <point x="719" y="395" type="curve" smooth="yes"/>
      <point x="775" y="395"/>
      <point x="811" y="356"/>
      <point x="811" y="292" type="curve" smooth="yes"/>
      <point x="811" y="0" type="line"/>
      <point x="984" y="0" type="line"/>
      <point x="984" y="340" type="line" smooth="yes"/>
      <point x="984" y="466"/>
      <point x="907" y="547"/>
      <point x="790" y="547" type="curve" smooth="yes"/>
    </contour>
  </outline>
</glyph>
<glyph name="n" format="1">
  <advance width="673"/>
  <unicode hex="006E"/>
  <outline>
    <contour>
      <point x="69" y="539" type="line"/>
      <point x="69" y="0" type="line"/>
      <point x="242" y="0" type="line"/>
      <point x="242" y="539" type="line"/>
    </contour>
    <contour>
      <point x="284" y="546"/>
      <point x="200" y="451"/>
      <point x="200" y="266" type="curve"/>
      <point x="241" y="266" type="line"/>
      <point x="241" y="340"/>
      <point x="283" y="394"/>
      <point x="352" y="394" type="curve" smooth="yes"/>
      <point x="410" y="394"/>
      <point x="447" y="355"/>
      <point x="447" y="292" type="curve" smooth="yes"/>
      <point x="447" y="0" type="line"/>
      <point x="619" y="0" type="line"/>
      <point x="619" y="340" type="line" smooth="yes"/>
      <point x="619" y="466"/>
      <point x="541" y="547"/>
      <point x="422" y="547" type="curve" smooth="yes"/>
    </contour>
    <contour>
      <point x="353" y="539" type="move" name="top"/>
    </contour>
    <contour>
      <point x="342" y="0" type="move" name="bottom"/>
    </contour>
  </outline>
</glyph>
<glyph name="o" format="1">
  <advance width="637"/>
  <unicode hex="006F"/>
  <outline>
    <contour>
      <point x="141" y="545"/>
      <point x="24" y="436"/>
      <point x="24" y="270" type="curve" smooth="yes"/>
      <point x="24" y="104"/>
      <point x="141" y="-6"/>
      <point x="318" y="-6" type="curve" smooth="yes"/>
      <point x="495" y="-6"/>
      <point x="612" y="104"/>
      <point x="612" y="270" type="curve" smooth="yes"/>
      <point x="612" y="436"/>
      <point x="495" y="545"/>
      <point x="318" y="545" type="curve" smooth="yes"/>
    </contour>
    <contour>
      <point x="390" y="408"/>
      <point x="438" y="351"/>
      <point x="438" y="268" type="curve" smooth="yes"/>
      <point x="438" y="184"/>
      <point x="390" y="128"/>
      <point x="318" y="128" type="curve" smooth="yes"/>
      <point x="247" y="128"/>
      <point x="198" y="184"/>
      <point x="198" y="268" type="curve" smooth="yes"/>
      <point x="198" y="351"/>
      <point x="247" y="408"/>
      <point x="318" y="408" type="curve" smooth="yes"/>
    </contour>
    <contour>
      <point x="319" y="539" type="move" name="top"/>
    </contour>
  </outline>
</glyph>
<glyph name="p" format="1">
  <advance width="685"/>
  <unicode hex="0070"/>
  <outline>
    <contour>
      <point x="74" y="539" type="line"/>
      <point x="74" y="-194" type="line"/>
      <point x="247" y="-194" type="line"/>
      <point x="247" y="539" type="line"/>
    </contour>
    <contour>
      <point x="310" y="24" type="move"/>
    </contour>
    <contour>
      <point x="274" y="545"/>
      <point x="191" y="439"/>
      <point x="191" y="268" type="curve"/>
      <point x="191" y="100"/>
      <point x="275" y="-6"/>
      <point x="413" y="-6" type="curve" smooth="yes"/>
      <point x="563" y="-6"/>
      <point x="661" y="103"/>
      <point x="661" y="267" type="curve" smooth="yes"/>
      <point x="661" y="434"/>
      <point x="560" y="545"/>
      <point x="408" y="545" type="curve" smooth="yes"/>
    </contour>
    <contour>
      <point x="438" y="412"/>
      <point x="487" y="354"/>
      <point x="487" y="272" type="curve" smooth="yes"/>
      <point x="487" y="189"/>
      <point x="438" y="131"/>
      <point x="367" y="131" type="curve" smooth="yes"/>
      <point x="296" y="131"/>
      <point x="247" y="188"/>
      <point x="247" y="272" type="curve" smooth="yes"/>
      <point x="247" y="354"/>
      <point x="296" y="412"/>
      <point x="367" y="412" type="curve" smooth="yes"/>
    </contour>
  </outline>
</glyph>
<glyph name="r" format="1">
  <advance width="427"/>
  <unicode hex="0072"/>
  <outline>
    <contour>
      <point x="69" y="539" type="line"/>
      <point x="69" y="0" type="line"/>
      <point x="242" y="0" type="line"/>
      <point x="242" y="539" type="line"/>
    </contour>
    <contour>
      <point x="284" y="546"/>
      <point x="200" y="442"/>
      <point x="200" y="266" type="curve"/>
      <point x="241" y="259" type="line"/>
      <point x="241" y="346"/>
      <point x="309" y="401"/>
      <point x="417" y="391" type="curve"/>
      <point x="417" y="547" type="line"/>
    </contour>
    <contour>
      <point x="225" y="539" type="move" name="top"/>
    </contour>
    <contour>
      <point x="151" y="0" type="move" name="bottom"/>
    </contour>
  </outline>
</glyph>
<glyph name="s" format="1">
  <advance width="513"/>
  <unicode hex="0073"/>
  <outline>
    <contour>
      <point x="137" y="547"/>
      <point x="42" y="487"/>
      <point x="42" y="376" type="curve" smooth="yes"/>
      <point x="42" y="187"/>
      <point x="321" y="228"/>
      <point x="321" y="149" type="curve" smooth="yes"/>
      <point x="321" y="124"/>
      <point x="296" y="112"/>
      <point x="262" y="112" type="curve" smooth="yes"/>
      <point x="202" y="112"/>
      <point x="131" y="136"/>
      <point x="71" y="179" type="curve"/>
      <point x="16" y="69" type="line"/>
      <point x="81" y="19"/>
      <point x="168" y="-7"/>
      <point x="258" y="-7" type="curve" smooth="yes"/>
      <point x="388" y="-7"/>
      <point x="485" y="54"/>
      <point x="485" y="165" type="curve" smooth="yes"/>
      <point x="485" y="353"/>
      <point x="202" y="317"/>
      <point x="202" y="391" type="curve" smooth="yes"/>
      <point x="202" y="416"/>
      <point x="224" y="428"/>
      <point x="255" y="428" type="curve" smooth="yes"/>
      <point x="300" y="428"/>
      <point x="360" y="409"/>
      <point x="425" y="374" type="curve"/>
      <point x="484" y="486" type="line"/>
      <point x="418" y="525"/>
      <point x="340" y="547"/>
      <point x="262" y="547" type="curve" smooth="yes"/>
    </contour>
    <contour>
      <point x="266" y="539" type="move" name="top"/>
    </contour>
    <contour>
      <point x="255" y="0" type="move" name="bottom"/>
    </contour>
  </outline>
</glyph>
<glyph name="t" format="1">
  <advance width="435"/>
  <unicode hex="0074"/>
  <outline>
    <contour>
      <point x="94" y="664" type="line"/>
      <point x="94" y="163" type="line"/>
      <point x="94" y="51"/>
      <point x="169" y="-8"/>
      <point x="273" y="-8" type="curve"/>
      <point x="325" y="-8"/>
      <point x="378" y="6"/>
      <point x="417" y="29" type="curve"/>
      <point x="383" y="149" type="line"/>
      <point x="357" y="138"/>
      <point x="334" y="131"/>
      <point x="316" y="131" type="curve"/>
      <point x="285" y="130"/>
      <point x="266" y="148"/>
      <point x="266" y="190" type="curve"/>
      <point x="266" y="664" type="line"/>
    </contour>
    <contour>
      <point x="19" y="514" type="line"/>
      <point x="19" y="401" type="line"/>
      <point x="408" y="401" type="line"/>
      <point x="408" y="515" type="line"/>
    </contour>
    <contour>
      <point x="217" y="270" type="move" name="center"/>
    </contour>
    <contour>
      <point x="258.992" y="0" type="move" name="bottom"/>
    </contour>
  </outline>
</glyph>
<glyph name="u" format="1">
  <advance width="663"/>
  <unicode hex="0075"/>
  <outline>
    <contour>
      <point x="594" y="0" type="line"/>
      <point x="594" y="539" type="line"/>
      <point x="421" y="539" type="line"/>
      <point x="421" y="0" type="line"/>
    </contour>
    <contour>
      <point x="380" y="-7"/>
      <point x="462" y="89"/>
      <point x="462" y="273" type="curve"/>
      <point x="421" y="273" type="line"/>
      <point x="421" y="200"/>
      <point x="381" y="146"/>
      <point x="316" y="145" type="curve" smooth="yes"/>
      <point x="261" y="145"/>
      <point x="226" y="184"/>
      <point x="226" y="248" type="curve" smooth="yes"/>
      <point x="226" y="539" type="line"/>
      <point x="53" y="539" type="line"/>
      <point x="53" y="199" type="line" smooth="yes"/>
      <point x="53" y="73"/>
      <point x="129" y="-7"/>
      <point x="246" y="-7" type="curve" smooth="yes"/>
    </contour>
    <contour>
      <point x="611" y="10" type="move" name="ogonek"/>
    </contour>
    <contour>
      <point x="327" y="539" type="move" name="top"/>
    </contour>
  </outline>
</glyph>
<glyph name="w" format="1">
  <advance width="937"/>
  <unicode hex="0077"/>
  <outline>
    <contour>
      <point x="775" y="539" type="line"/>
      <point x="666" y="166" type="line"/>
      <point x="556" y="539" type="line"/>
      <point x="390" y="539" type="line"/>
      <point x="282" y="166" type="line"/>
      <point x="171" y="539" type="line"/>
      <point x="-5" y="539" type="line"/>
      <point x="192" y="0" type="line"/>
      <point x="364" y="0" type="line"/>
      <point x="470" y="342" type="line"/>
      <point x="576" y="0" type="line"/>
      <point x="748" y="0" type="line"/>
      <point x="945" y="539" type="line"/>
    </contour>
    <contour>
      <point x="469" y="539" type="move" name="top"/>
    </contour>
  </outline>
</glyph>
<glyph name="x" format="1">
  <advance width="606"/>
  <unicode hex="0078"/>
  <outline>
    <contour>
      <point x="16" y="539" type="line"/>
      <point x="188" y="276" type="line"/>
      <point x="4" y="0" type="line"/>
      <point x="194" y="0" type="line"/>
      <point x="304" y="169" type="line"/>
      <point x="402" y="0" type="line"/>
      <point x="601" y="0" type="line"/>
      <point x="418" y="277" type="line"/>
      <point x="589" y="539" type="line"/>
      <point x="400" y="539" type="line"/>
      <point x="304" y="384" type="line"/>
      <point x="214" y="539" type="line"/>
    </contour>
  </outline>
</glyph>
<glyph name="y" format="1">
  <advance width="580"/>
  <unicode hex="0079"/>
  <outline>
    <contour>
      <point x="415" y="539" type="line"/>
      <point x="298" y="181" type="line"/>
      <point x="166" y="539" type="line"/>
      <point x="-12" y="539" type="line"/>
      <point x="212" y="12" type="line"/>
      <point x="199" y="-15" type="line" smooth="yes"/>
      <point x="185" y="-44"/>
      <point x="163" y="-58"/>
      <point x="132" y="-58" type="curve" smooth="yes"/>
      <point x="107" y="-58"/>
      <point x="86" y="-49"/>
      <point x="61" y="-29" type="curve"/>
      <point x="-11" y="-147" type="line"/>
      <point x="37" y="-184"/>
      <point x="86" y="-202"/>
      <point x="146" y="-202" type="curve" smooth="yes"/>
      <point x="246" y="-202"/>
      <point x="315" y="-154"/>
      <point x="354" y="-56" type="curve" smooth="yes"/>
      <point x="588" y="539" type="line"/>
    </contour>
    <contour>
      <point x="291" y="539" type="move" name="top"/>
    </contour>
  </outline>
</glyph>
<glyph name="z" format="1">
  <advance width="553"/>
  <unicode hex="007A"/>
  <outline>
    <contour>
      <point x="44" y="539" type="line"/>
      <point x="44" y="409" type="line"/>
      <point x="298" y="409" type="line"/>
      <point x="34" y="104" type="line"/>
      <point x="34" y="0" type="line"/>
      <point x="524" y="-0" type="line"/>
      <point x="524" y="130" type="line"/>
      <point x="250" y="130" type="line"/>
      <point x="515" y="435" type="line"/>
      <point x="515" y="539" type="line"/>
    </contour>
    <contour>
      <point x="277" y="539" type="move" name="top"/>
    </contour>
  </outline>
</glyph>
<glyph name="braceleft" format="1">
  <advance width="356"/>
  <unicode hex="007B"/>
  <outline>
    <contour>
      <point x="275" y="743" type="line" smooth="yes"/>
      <point x="145" y="743"/>
      <point x="99" y="707"/>
      <point x="99" y="604" type="curve" smooth="yes"/>
      <point x="99" y="418" type="line" smooth="yes"/>
      <point x="99" y="386"/>
      <point x="89" y="375"/>
      <point x="62" y="375" type="curve" smooth="yes"/>
      <point x="24" y="375" type="line"/>
      <point x="24" y="243" type="line"/>
      <point x="62" y="243" type="line"/>
      <point x="130" y="302" type="line"/>
      <point x="222" y="312"/>
      <point x="253" y="344"/>
      <point x="253" y="429" type="curve" smooth="yes"/>
      <point x="253" y="551" type="line" smooth="yes"/>
      <point x="253" y="598"/>
      <point x="272" y="616"/>
      <point x="341" y="616" type="curve"/>
      <point x="341" y="743" type="line"/>
    </contour>
    <contour>
      <point x="24" y="375" type="line"/>
      <point x="24" y="243" type="line"/>
      <point x="62" y="243" type="line" smooth="yes"/>
      <point x="89" y="243"/>
      <point x="99" y="231"/>
      <point x="99" y="199" type="curve" smooth="yes"/>
      <point x="99" y="14" type="line" smooth="yes"/>
      <point x="99" y="-89"/>
      <point x="145" y="-126"/>
      <point x="275" y="-126" type="curve" smooth="yes"/>
      <point x="341" y="-126" type="line"/>
      <point x="341" y="2" type="line"/>
      <point x="272" y="2"/>
      <point x="253" y="20"/>
      <point x="253" y="67" type="curve" smooth="yes"/>
      <point x="253" y="188" type="line" smooth="yes"/>
      <point x="253" y="273"/>
      <point x="222" y="305"/>
      <point x="130" y="315" type="curve"/>
      <point x="62" y="375" type="line"/>
    </contour>
  </outline>
</glyph>
<glyph name="asciitilde" format="1">
  <advance width="510"/>
  <unicode hex="007E"/>
  <outline>
    <contour>
      <point x="93" y="412"/>
      <point x="56" y="357"/>
      <point x="56" y="242" type="curve"/>
      <point x="172" y="242" type="line"/>
      <point x="172" y="273"/>
      <point x="182" y="288"/>
      <point x="204" y="288" type="curve"/>
      <point x="237" y="288"/>
      <point x="273" y="237"/>
      <point x="341" y="237" type="curve"/>
      <point x="417" y="237"/>
      <point x="454" y="293"/>
      <point x="454" y="407" type="curve"/>
      <point x="338" y="407" type="line"/>
      <point x="338" y="377"/>
      <point x="328" y="361"/>
      <point x="306" y="361" type="curve"/>
      <point x="273" y="361"/>
      <point x="236" y="412"/>
      <point x="169" y="412" type="curve"/>
    </contour>
  </outline>
</glyph>
<glyph name="cent" format="1">
  <advance width="559"/>
  <unicode hex="00A2"/>
  <outline>
    <contour>
      <point x="243" y="90" type="line"/>
      <point x="243" y="-154" type="line"/>
      <point x="377" y="-154" type="line"/>
      <point x="377" y="90" type="line"/>
    </contour>
    <contour>
      <point x="243" y="699" type="line"/>
      <point x="243" y="469" type="line"/>
      <point x="377" y="469" type="line"/>
      <point x="377" y="699" type="line"/>
    </contour>
    <component base="c"/>
  </outline>
</glyph>
<glyph name="sterling" format="1">
  <advance width="557"/>
  <unicode hex="00A3"/>
  <outline>
    <contour>
      <point x="540" y="0" type="line"/>
      <point x="540" y="134" type="line"/>
      <point x="282" y="134" type="line"/>
      <point x="282" y="470" type="line" smooth="yes"/>
      <point x="282" y="529"/>
      <point x="310" y="559"/>
      <point x="361" y="559" type="curve" smooth="yes"/>
      <point x="402" y="559"/>
      <point x="445" y="536"/>
      <point x="488" y="492" type="curve"/>
      <point x="554" y="622" type="line"/>
      <point x="500" y="677"/>
      <point x="423" y="708"/>
      <point x="342" y="708" type="curve" smooth="yes"/>
      <point x="190" y="708"/>
      <point x="104" y="623"/>
      <point x="104" y="474" type="curve" smooth="yes"/>
      <point x="104" y="0" type="line"/>
    </contour>
    <contour>
      <point x="28" y="0" type="line"/>
      <point x="206" y="0" type="line"/>
      <point x="206" y="134" type="line"/>
      <point x="28" y="134" type="line"/>
    </contour>
    <contour>
      <point x="28" y="281" type="line"/>
      <point x="450" y="281" type="line"/>
      <point x="450" y="399" type="line"/>
      <point x="28" y="399" type="line"/>
    </contour>
  </outline>
</glyph>
<glyph name="currency" format="1">
  <advance width="701"/>
  <unicode hex="00A4"/>
  <outline>
    <contour>
      <point x="207" y="580"/>
      <point x="90" y="464"/>
      <point x="90" y="321" type="curve" smooth="yes"/>
      <point x="90" y="179"/>
      <point x="207" y="63"/>
      <point x="351" y="63" type="curve" smooth="yes"/>
      <point x="495" y="63"/>
      <point x="612" y="179"/>
      <point x="612" y="321" type="curve" smooth="yes"/>
      <point x="612" y="464"/>
      <point x="496" y="580"/>
      <point x="351" y="580" type="curve" smooth="yes"/>
    </contour>
    <contour>
      <point x="24" y="88" type="line"/>
      <point x="121" y="-9" type="line"/>
      <point x="231" y="102" type="line"/>
      <point x="134" y="198" type="line"/>
    </contour>
    <contour>
      <point x="470" y="102" type="line"/>
      <point x="581" y="-9" type="line"/>
      <point x="677" y="88" type="line"/>
      <point x="567" y="198" type="line"/>
    </contour>
    <contour>
      <point x="24" y="547" type="line"/>
      <point x="134" y="437" type="line"/>
      <point x="231" y="533" type="line"/>
      <point x="121" y="644" type="line"/>
    </contour>
    <contour>
      <point x="420" y="446"/>
      <point x="477" y="390"/>
      <point x="477" y="321" type="curve" smooth="yes"/>
      <point x="477" y="253"/>
      <point x="420" y="198"/>
      <point x="350" y="198" type="curve" smooth="yes"/>
      <point x="281" y="198"/>
      <point x="225" y="253"/>
      <point x="225" y="321" type="curve" smooth="yes"/>
      <point x="225" y="390"/>
      <point x="281" y="446"/>
      <point x="350" y="446" type="curve" smooth="yes"/>
    </contour>
    <contour>
      <point x="470" y="533" type="line"/>
      <point x="567" y="437" type="line"/>
      <point x="677" y="547" type="line"/>
      <point x="581" y="644" type="line"/>
    </contour>
  </outline>
</glyph>
<glyph name="yen" format="1">
  <advance width="665"/>
  <unicode hex="00A5"/>
  <outline>
    <contour>
      <point x="69" y="339" type="line"/>
      <point x="69" y="274" type="line"/>
      <point x="606" y="274" type="line"/>
      <point x="606" y="339" type="line"/>
    </contour>
    <contour>
      <point x="69" y="209" type="line"/>
      <point x="69" y="143" type="line"/>
      <point x="606" y="143" type="line"/>
      <point x="606" y="209" type="line"/>
    </contour>
    <contour>
      <point x="507" y="701" type="line"/>
      <point x="342" y="394" type="line"/>
      <point x="173" y="701" type="line"/>
      <point x="-5" y="701" type="line"/>
      <point x="331" y="81" type="line"/>
      <point x="353" y="81" type="line"/>
      <point x="685" y="701" type="line"/>
    </contour>
    <contour>
      <point x="254" y="307" type="line"/>
      <point x="254" y="0" type="line"/>
      <point x="432" y="0" type="line"/>
      <point x="432" y="307" type="line"/>
    </contour>
  </outline>
</glyph>
<glyph name="brokenbar" format="1">
  <advance width="299"/>
  <unicode hex="00A6"/>
  <outline>
    <contour>
      <point x="85" y="233" type="line"/>
      <point x="85" y="-110" type="line"/>
      <point x="214" y="-110" type="line"/>
      <point x="214" y="233" type="line"/>
    </contour>
    <contour>
      <point x="85" y="803" type="line"/>
      <point x="85" y="461" type="line"/>
      <point x="214" y="461" type="line"/>
      <point x="214" y="803" type="line"/>
    </contour>
  </outline>
</glyph>
<glyph name="section" format="1">
  <advance width="545"/>
  <unicode hex="00A7"/>
  <outline>
    <contour>
      <point x="149" y="694"/>
      <point x="65" y="628"/>
      <point x="65" y="535" type="curve" smooth="yes"/>
      <point x="65" y="491"/>
      <point x="80" y="462"/>
      <point x="137" y="432" type="curve"/>
      <point x="71" y="408"/>
      <point x="31" y="362"/>
      <point x="31" y="300" type="curve" smooth="yes"/>
      <point x="31" y="121"/>
      <point x="326" y="148"/>
      <point x="326" y="67" type="curve" smooth="yes"/>
      <point x="326" y="45"/>
      <point x="301" y="28"/>
      <point x="257" y="28" type="curve" smooth="yes"/>
      <point x="199" y="28"/>
      <point x="131" y="51"/>
      <point x="65" y="96" type="curve"/>
      <point x="16" y="-11" type="line"/>
      <point x="85" y="-61"/>
      <point x="174" y="-88"/>
      <point x="261" y="-88" type="curve" smooth="yes"/>
      <point x="399" y="-88"/>
      <point x="486" y="-21"/>
      <point x="486" y="72" type="curve" smooth="yes"/>
      <point x="486" y="124"/>
      <point x="465" y="148"/>
      <point x="420" y="174" type="curve"/>
      <point x="479" y="198"/>
      <point x="520" y="248"/>
      <point x="520" y="307" type="curve" smooth="yes"/>
      <point x="520" y="488"/>
      <point x="220" y="459"/>
      <point x="220" y="542" type="curve" smooth="yes"/>
      <point x="220" y="565"/>
      <point x="243" y="580"/>
      <point x="283" y="580" type="curve" smooth="yes"/>
      <point x="325" y="580"/>
      <point x="383" y="563"/>
      <point x="453" y="527" type="curve"/>
      <point x="505" y="633" type="line"/>
      <point x="432" y="674"/>
      <point x="356" y="694"/>
      <point x="282" y="694" type="curve" smooth="yes"/>
    </contour>
    <contour>
      <point x="316" y="353"/>
      <point x="361" y="331"/>
      <point x="361" y="298" type="curve" smooth="yes"/>
      <point x="361" y="273"/>
      <point x="337" y="256"/>
      <point x="287" y="256" type="curve" smooth="yes"/>
      <point x="230" y="256"/>
      <point x="186" y="278"/>
      <point x="186" y="311" type="curve" smooth="yes"/>
      <point x="186" y="337"/>
      <point x="211" y="353"/>
      <point x="259" y="353" type="curve" smooth="yes"/>
    </contour>
  </outline>
</glyph>
<glyph name="dieresis" format="1">
  <advance width="368"/>
  <unicode hex="00A8"/>
  <outline>
    <component base="dotaccent" xOffset="123" yOffset="101" xScale="0.85" yScale="0.85"/>
    <component base="dotaccent" xOffset="-70" yOffset="101" xScale="0.85" yScale="0.85"/>
    <contour>
      <point x="175" y="539" type="move" name="_top"/>
    </contour>
  </outline>
</glyph>
<glyph name="copyright" format="1">
  <advance width="725"/>
  <unicode hex="00A9"/>
  <outline>
    <contour>
      <point x="172" y="689"/>
      <point x="24" y="533"/>
      <point x="24" y="348" type="curve" smooth="yes"/>
      <point x="24" y="163"/>
      <point x="171" y="9"/>
      <point x="361" y="9" type="curve" smooth="yes"/>
      <point x="552" y="9"/>
      <point x="701" y="165"/>
      <point x="701" y="350" type="curve" smooth="yes"/>
      <point x="701" y="536"/>
      <point x="553" y="689"/>
      <point x="363" y="689" type="curve" smooth="yes"/>
    </contour>
    <contour>
      <point x="509" y="609"/>
      <point x="622" y="492"/>
      <point x="622" y="350" type="curve" smooth="yes"/>
      <point x="622" y="208"/>
      <point x="509" y="89"/>
      <point x="361" y="89" type="curve" smooth="yes"/>
      <point x="216" y="89"/>
      <point x="104" y="206"/>
      <point x="104" y="348" type="curve" smooth="yes"/>
      <point x="104" y="490"/>
      <point x="217" y="609"/>
      <point x="363" y="609" type="curve" smooth="yes"/>
    </contour>
    <contour>
      <point x="269" y="515"/>
      <point x="194" y="444"/>
      <point x="194" y="349" type="curve" smooth="yes"/>
      <point x="194" y="253"/>
      <point x="268" y="181"/>
      <point x="366" y="181" type="curve" smooth="yes"/>
      <point x="415" y="181"/>
      <point x="466" y="204"/>
      <point x="501" y="241" type="curve"/>
      <point x="453" y="292" type="line"/>
      <point x="430" y="269"/>
      <point x="398" y="254"/>
      <point x="371" y="254" type="curve" smooth="yes"/>
      <point x="319" y="254"/>
      <point x="279" y="296"/>
      <point x="279" y="351" type="curve" smooth="yes"/>
      <point x="279" y="404"/>
      <point x="319" y="445"/>
      <point x="371" y="445" type="curve" smooth="yes"/>
      <point x="400" y="445"/>
      <point x="431" y="429"/>
      <point x="453" y="403" type="curve"/>
      <point x="501" y="460" type="line"/>
      <point x="468" y="494"/>
      <point x="417" y="515"/>
      <point x="369" y="515" type="curve" smooth="yes"/>
    </contour>
  </outline>
</glyph>
<glyph name="ordfeminine" format="1">
  <advance width="393"/>
  <unicode hex="00AA"/>
  <outline>
    <contour>
      <point x="154" y="785"/>
      <point x="97" y="773"/>
      <point x="42" y="752" type="curve"/>
      <point x="70" y="676" type="line"/>
      <point x="108" y="691"/>
      <point x="147" y="700"/>
      <point x="176" y="700" type="curve"/>
      <point x="217" y="700"/>
      <point x="238" y="683"/>
      <point x="238" y="654" type="curve"/>
      <point x="239" y="458" type="line"/>
      <point x="355" y="458" type="line"/>
      <point x="354" y="668" type="line"/>
      <point x="355" y="742"/>
      <point x="298" y="785"/>
      <point x="203" y="785" type="curve"/>
    </contour>
    <contour>
      <point x="250" y="649" type="line"/>
      <point x="152" y="649" type="line"/>
      <point x="67" y="649"/>
      <point x="21" y="615"/>
      <point x="21" y="553" type="curve"/>
      <point x="21" y="493"/>
      <point x="63" y="453"/>
      <point x="134" y="453" type="curve"/>
      <point x="195" y="453"/>
      <point x="236" y="480"/>
      <point x="254" y="527" type="curve"/>
      <point x="239" y="561" type="line"/>
      <point x="225" y="537"/>
      <point x="201" y="526"/>
      <point x="175" y="526" type="curve"/>
      <point x="148" y="526"/>
      <point x="132" y="540"/>
      <point x="132" y="562" type="curve"/>
      <point x="132" y="584"/>
      <point x="148" y="595"/>
      <point x="176" y="595" type="curve"/>
      <point x="250" y="595" type="line"/>
    </contour>
  </outline>
</glyph>
<glyph name="registered" format="1">
  <advance width="725"/>
  <unicode hex="00AE"/>
  <outline>
    <contour>
      <point x="172" y="689"/>
      <point x="24" y="533"/>
      <point x="24" y="348" type="curve" smooth="yes"/>
      <point x="24" y="163"/>
      <point x="171" y="9"/>
      <point x="361" y="9" type="curve" smooth="yes"/>
      <point x="552" y="9"/>
      <point x="701" y="165"/>
      <point x="701" y="350" type="curve" smooth="yes"/>
      <point x="701" y="536"/>
      <point x="553" y="689"/>
      <point x="363" y="689" type="curve" smooth="yes"/>
    </contour>
    <contour>
      <point x="360" y="320" type="line"/>
      <point x="424" y="200" type="line"/>
      <point x="515" y="200" type="line"/>
      <point x="437" y="320" type="line"/>
    </contour>
    <contour>
      <point x="509" y="609"/>
      <point x="622" y="492"/>
      <point x="622" y="350" type="curve" smooth="yes"/>
      <point x="622" y="208"/>
      <point x="509" y="89"/>
      <point x="361" y="89" type="curve" smooth="yes"/>
      <point x="216" y="89"/>
      <point x="104" y="206"/>
      <point x="104" y="348" type="curve" smooth="yes"/>
      <point x="104" y="490"/>
      <point x="217" y="609"/>
      <point x="363" y="609" type="curve" smooth="yes"/>
    </contour>
    <contour>
      <point x="234" y="520" type="line"/>
      <point x="234" y="200" type="line"/>
      <point x="314" y="200" type="line"/>
      <point x="314" y="290" type="line"/>
      <point x="373" y="290" type="line" smooth="yes"/>
      <point x="457" y="290"/>
      <point x="505" y="334"/>
      <point x="505" y="409" type="curve" smooth="yes"/>
      <point x="505" y="480"/>
      <point x="457" y="520"/>
      <point x="373" y="520" type="curve" smooth="yes"/>
    </contour>
    <contour>
      <point x="408" y="459"/>
      <point x="429" y="440"/>
      <point x="429" y="406" type="curve" smooth="yes"/>
      <point x="429" y="372"/>
      <point x="408" y="352"/>
      <point x="372" y="352" type="curve" smooth="yes"/>
      <point x="313" y="352" type="line"/>
      <point x="313" y="459" type="line"/>
      <point x="372" y="459" type="line" smooth="yes"/>
    </contour>
  </outline>
</glyph>
<glyph name="macron" format="1">
  <advance width="350"/>
  <unicode hex="00AF"/>
  <outline>
    <contour>
      <point x="36" y="748" type="line"/>
      <point x="36" y="632" type="line"/>
      <point x="315" y="632" type="line"/>
      <point x="315" y="748" type="line"/>
    </contour>
    <contour>
      <point x="175" y="539" type="move" name="_top"/>
    </contour>
  </outline>
</glyph>
<glyph name="degree" format="1">
  <advance width="374"/>
  <unicode hex="00B0"/>
  <outline>
    <contour>
      <point x="136" y="817"/>
      <point x="83" y="764"/>
      <point x="83" y="699" type="curve" smooth="yes"/>
      <point x="83" y="634"/>
      <point x="136" y="581"/>
      <point x="202" y="581" type="curve" smooth="yes"/>
      <point x="267" y="581"/>
      <point x="321" y="634"/>
      <point x="321" y="699" type="curve" smooth="yes"/>
      <point x="321" y="764"/>
      <point x="267" y="817"/>
      <point x="202" y="817" type="curve" smooth="yes"/>
    </contour>
    <contour>
      <point x="231" y="750"/>
      <point x="254" y="727"/>
      <point x="254" y="699" type="curve" smooth="yes"/>
      <point x="254" y="671"/>
      <point x="231" y="648"/>
      <point x="202" y="648" type="curve" smooth="yes"/>
      <point x="173" y="648"/>
      <point x="150" y="671"/>
      <point x="150" y="699" type="curve" smooth="yes"/>
      <point x="150" y="727"/>
      <point x="173" y="750"/>
      <point x="202" y="750" type="curve" smooth="yes"/>
    </contour>
  </outline>
</glyph>
<glyph name="acute" format="1">
  <advance width="350"/>
  <unicode hex="00B4"/>
  <outline>
    <contour>
      <point x="44" y="600" type="line"/>
      <point x="176" y="600" type="line"/>
      <point x="306" y="713" type="line"/>
      <point x="151" y="768" type="line"/>
    </contour>
    <contour>
      <point x="131" y="539" type="move" name="_top"/>
    </contour>
  </outline>
</glyph>
<glyph name="mu" format="1">
  <advance width="684"/>
  <unicode hex="00B5"/>
  <outline>
    <contour>
      <point x="74" y="539" type="line"/>
      <point x="74" y="-194" type="line"/>
      <point x="247" y="-194" type="line"/>
      <point x="247" y="539" type="line"/>
    </contour>
    <contour>
      <point x="309" y="24" type="move"/>
    </contour>
    <component base="u" xOffset="21"/>
  </outline>
</glyph>
<glyph name="paragraph" format="1">
  <advance width="650"/>
  <unicode hex="00B6"/>
  <outline>
    <contour>
      <point x="237" y="742" type="line" smooth="yes"/>
      <point x="62" y="742"/>
      <point x="-5" y="637"/>
      <point x="-5" y="529" type="curve" smooth="yes"/>
      <point x="-5" y="449"/>
      <point x="36" y="325"/>
      <point x="197" y="325" type="curve" smooth="yes"/>
      <point x="205" y="325"/>
      <point x="214" y="325"/>
      <point x="223" y="325" type="curve"/>
      <point x="223" y="-107" type="line"/>
      <point x="351" y="-107" type="line"/>
      <point x="351" y="645" type="line"/>
      <point x="452" y="645" type="line"/>
      <point x="452" y="-107" type="line"/>
      <point x="580" y="-107" type="line"/>
      <point x="580" y="742" type="line"/>
    </contour>
  </outline>
</glyph>
<glyph name="cedilla" format="1">
  <advance width="350"/>
  <unicode hex="00B8"/>
  <outline>
    <contour>
      <point x="250" y="14" type="line"/>
      <point x="153" y="14" type="line"/>
      <point x="106" y="-84" type="line"/>
      <point x="118" y="-82"/>
      <point x="132" y="-80"/>
      <point x="142" y="-80" type="curve" smooth="yes"/>
      <point x="171" y="-80"/>
      <point x="187" y="-96"/>
      <point x="187" y="-116" type="curve" smooth="yes"/>
      <point x="187" y="-136"/>
      <point x="172" y="-153"/>
      <point x="146" y="-153" type="curve" smooth="yes"/>
      <point x="128" y="-153"/>
      <point x="110" y="-145"/>
      <point x="97" y="-133" type="curve"/>
      <point x="65" y="-204" type="line"/>
      <point x="92" y="-223"/>
      <point x="129" y="-235"/>
      <point x="160" y="-235" type="curve" smooth="yes"/>
      <point x="233" y="-235"/>
      <point x="284" y="-195"/>
      <point x="284" y="-132" type="curve" smooth="yes"/>
      <point x="284" y="-91"/>
      <point x="257" y="-62"/>
      <point x="216" y="-51" type="curve"/>
    </contour>
    <contour>
      <point x="175" y="0" type="move" name="_bottom"/>
    </contour>
  </outline>
</glyph>
<glyph name="ordmasculine" format="1">
  <advance width="413"/>
  <unicode hex="00BA"/>
  <outline>
    <contour>
      <point x="94" y="785"/>
      <point x="20" y="719"/>
      <point x="20" y="619" type="curve" smooth="yes"/>
      <point x="20" y="520"/>
      <point x="94" y="454"/>
      <point x="206" y="454" type="curve" smooth="yes"/>
      <point x="318" y="454"/>
      <point x="392" y="520"/>
      <point x="392" y="619" type="curve" smooth="yes"/>
      <point x="392" y="719"/>
      <point x="318" y="785"/>
      <point x="206" y="785" type="curve" smooth="yes"/>
    </contour>
    <contour>
      <point x="246" y="694"/>
      <point x="272" y="664"/>
      <point x="272" y="618" type="curve" smooth="yes"/>
      <point x="272" y="572"/>
      <point x="246" y="542"/>
      <point x="206" y="542" type="curve" smooth="yes"/>
      <point x="166" y="542"/>
      <point x="139" y="572"/>
      <point x="139" y="618" type="curve" smooth="yes"/>
      <point x="139" y="664"/>
      <point x="166" y="694"/>
      <point x="206" y="694" type="curve" smooth="yes"/>
    </contour>
  </outline>
</glyph>
<glyph name="Aring" format="1">
  <advance width="770"/>
  <unicode hex="00C5"/>
  <outline>
    <contour>
      <point x="317" y="895"/>
      <point x="260" y="838"/>
      <point x="260" y="768" type="curve" smooth="yes"/>
      <point x="260" y="697"/>
      <point x="317" y="640"/>
      <point x="388" y="640" type="curve" smooth="yes"/>
      <point x="460" y="640"/>
      <point x="517" y="697"/>
      <point x="517" y="768" type="curve" smooth="yes"/>
      <point x="517" y="838"/>
      <point x="460" y="895"/>
      <point x="388" y="895" type="curve" smooth="yes"/>
    </contour>
    <contour>
      <point x="419" y="822"/>
      <point x="444" y="798"/>
      <point x="444" y="768" type="curve" smooth="yes"/>
      <point x="444" y="738"/>
      <point x="419" y="714"/>
      <point x="389" y="714" type="curve" smooth="yes"/>
      <point x="358" y="714"/>
      <point x="334" y="738"/>
      <point x="334" y="768" type="curve" smooth="yes"/>
      <point x="334" y="798"/>
      <point x="358" y="822"/>
      <point x="389" y="822" type="curve" smooth="yes"/>
    </contour>
    <component base="A"/>
  </outline>
</glyph>
<glyph name="AE" format="1">
  <advance width="1102"/>
  <unicode hex="00C6"/>
  <outline>
    <contour>
      <point x="394" y="700" type="line"/>
      <point x="-4" y="0" type="line"/>
      <point x="181" y="0" type="line"/>
      <point x="479" y="564" type="line"/>
      <point x="771" y="564" type="line"/>
      <point x="767" y="700" type="line"/>
    </contour>
    <contour>
      <point x="208" y="276" type="line"/>
      <point x="204" y="148" type="line"/>
      <point x="588" y="148" type="line"/>
      <point x="592" y="276" type="line"/>
    </contour>
    <component base="E" xOffset="428"/>
    <contour>
      <point x="643" y="700" type="move" name="top"/>
    </contour>
  </outline>
</glyph>
<glyph name="AE" format="1">
  <advance width="1102"/>
  <unicode hex="00C6"/>
  <outline>
    <contour>
      <point x="393" y="700" type="line"/>
      <point x="-5" y="0" type="line"/>
      <point x="180" y="0" type="line"/>
      <point x="478" y="564" type="line"/>
      <point x="770" y="564" type="line"/>
      <point x="766" y="700" type="line"/>
    </contour>
    <contour>
      <point x="208" y="276" type="line"/>
      <point x="204" y="148" type="line"/>
      <point x="588" y="148" type="line"/>
      <point x="592" y="276" type="line"/>
    </contour>
    <contour>
      <point x="498" y="701" type="line"/>
      <point x="498" y="0" type="line"/>
      <point x="1057" y="0" type="line"/>
      <point x="1057" y="140" type="line"/>
      <point x="675" y="140" type="line"/>
      <point x="675" y="282" type="line"/>
      <point x="1010" y="282" type="line"/>
      <point x="1010" y="421" type="line"/>
      <point x="675" y="421" type="line"/>
      <point x="675" y="560" type="line"/>
      <point x="1046" y="560" type="line"/>
      <point x="1046" y="701" type="line"/>
    </contour>
    <contour>
      <point x="1051" y="10" type="move" name="ogonek"/>
    </contour>
    <contour>
      <point x="769" y="0" type="move" name="bottom"/>
    </contour>
    <contour>
      <point x="643" y="700" type="move" name="top"/>
    </contour>
  </outline>
</glyph>
<glyph name="Eth" format="1">
  <advance width="799"/>
  <unicode hex="00D0"/>
  <outline>
    <contour>
      <point x="0" y="398" type="line"/>
      <point x="0" y="304" type="line"/>
      <point x="438" y="304" type="line"/>
      <point x="438" y="398" type="line"/>
    </contour>
    <component base="D" xOffset="32"/>
  </outline>
</glyph>
<glyph name="multiply" format="1">
  <advance width="510"/>
  <unicode hex="00D7"/>
  <outline>
    <contour>
      <point x="136" y="522" type="line"/>
      <point x="59" y="445" type="line"/>
      <point x="373" y="131" type="line"/>
      <point x="450" y="208" type="line"/>
    </contour>
    <contour>
      <point x="373" y="522" type="line"/>
      <point x="59" y="208" type="line"/>
      <point x="136" y="131" type="line"/>
      <point x="450" y="445" type="line"/>
    </contour>
  </outline>
</glyph>
<glyph name="Oslash" format="1">
  <advance width="805"/>
  <unicode hex="00D8"/>
  <outline>
    <contour>
      <point x="496" y="809" type="line"/>
      <point x="173" y="-113" type="line"/>
      <point x="273" y="-113" type="line"/>
      <point x="596" y="809" type="line"/>
    </contour>
    <component base="O"/>
    <contour>
      <point x="389" y="700" type="move" name="top"/>
    </contour>
  </outline>
</glyph>
<glyph name="Thorn" format="1">
  <advance width="689"/>
  <unicode hex="00DE"/>
  <outline>
    <contour>
      <point x="213" y="608" type="line"/>
      <point x="237" y="472" type="line"/>
      <point x="363" y="472" type="line" smooth="yes"/>
      <point x="441" y="472"/>
      <point x="484" y="432"/>
      <point x="484" y="362" type="curve" smooth="yes"/>
      <point x="484" y="289"/>
      <point x="441" y="248"/>
      <point x="363" y="248" type="curve" smooth="yes"/>
      <point x="238" y="248" type="line"/>
      <point x="238" y="112" type="line"/>
      <point x="370" y="112" type="line" smooth="yes"/>
      <point x="555" y="112"/>
      <point x="667" y="209"/>
      <point x="667" y="367" type="curve" smooth="yes"/>
      <point x="667" y="517"/>
      <point x="555" y="608"/>
      <point x="370" y="608" type="curve" smooth="yes"/>
    </contour>
    <contour>
      <point x="70" y="700" type="line"/>
      <point x="70" y="0" type="line"/>
      <point x="248" y="0" type="line"/>
      <point x="248" y="700" type="line"/>
    </contour>
  </outline>
</glyph>
<glyph name="germandbls" format="1">
  <advance width="662"/>
  <unicode hex="00DF"/>
  <outline>
    <contour>
      <point x="162" y="750"/>
      <point x="58" y="649"/>
      <point x="58" y="492" type="curve" smooth="yes"/>
      <point x="58" y="0" type="line"/>
      <point x="230" y="0" type="line"/>
      <point x="230" y="504" type="line" smooth="yes"/>
      <point x="230" y="578"/>
      <point x="266" y="620"/>
      <point x="330" y="620" type="curve" smooth="yes"/>
      <point x="387" y="620"/>
      <point x="420" y="586"/>
      <point x="420" y="525" type="curve" smooth="yes"/>
      <point x="420" y="462"/>
      <point x="382" y="427"/>
      <point x="313" y="427" type="curve"/>
      <point x="313" y="305" type="line"/>
      <point x="331" y="305" type="line" smooth="yes"/>
      <point x="414" y="305"/>
      <point x="461" y="274"/>
      <point x="461" y="215" type="curve" smooth="yes"/>
      <point x="461" y="158"/>
      <point x="419" y="123"/>
      <point x="343" y="123" type="curve" smooth="yes"/>
      <point x="302" y="123" type="line"/>
      <point x="302" y="0" type="line"/>
      <point x="351" y="0" type="line" smooth="yes"/>
      <point x="520" y="0"/>
      <point x="629" y="86"/>
      <point x="629" y="214" type="curve" smooth="yes"/>
      <point x="629" y="300"/>
      <point x="572" y="361"/>
      <point x="491" y="383" type="curve"/>
      <point x="549" y="415"/>
      <point x="587" y="480"/>
      <point x="587" y="550" type="curve" smooth="yes"/>
      <point x="587" y="671"/>
      <point x="484" y="750"/>
      <point x="329" y="750" type="curve" smooth="yes"/>
    </contour>
  </outline>
</glyph>
<glyph name="ae" format="1">
  <advance width="966"/>
  <unicode hex="00E6"/>
  <outline>
    <contour>
      <point x="555" y="124" type="move"/>
    </contour>
    <contour>
      <point x="233" y="547"/>
      <point x="146" y="525"/>
      <point x="61" y="488" type="curve"/>
      <point x="101" y="372" type="line"/>
      <point x="162" y="401"/>
      <point x="224" y="417"/>
      <point x="273" y="417" type="curve" smooth="yes"/>
      <point x="342" y="417"/>
      <point x="379" y="385"/>
      <point x="379" y="332" type="curve"/>
      <point x="379" y="170" type="line"/>
      <point x="549" y="131" type="line"/>
      <point x="548" y="352" type="line" smooth="yes"/>
      <point x="548" y="474"/>
      <point x="461" y="547"/>
      <point x="312" y="547" type="curve" smooth="yes"/>
    </contour>
    <contour>
      <point x="235" y="317" type="line" smooth="yes"/>
      <point x="101" y="316"/>
      <point x="27" y="260"/>
      <point x="27" y="159" type="curve" smooth="yes"/>
      <point x="27" y="59"/>
      <point x="101" y="-8"/>
      <point x="223" y="-8" type="curve" smooth="yes"/>
      <point x="339" y="-8"/>
      <point x="420" y="43"/>
      <point x="458" y="136" type="curve"/>
      <point x="383" y="181" type="line"/>
      <point x="357" y="127"/>
      <point x="314" y="104"/>
      <point x="265" y="104" type="curve" smooth="yes"/>
      <point x="218" y="104"/>
      <point x="189" y="131"/>
      <point x="189" y="173" type="curve" smooth="yes"/>
      <point x="189" y="213"/>
      <point x="218" y="235"/>
      <point x="270" y="235" type="curve" smooth="yes"/>
      <point x="396" y="235" type="line"/>
      <point x="396" y="317" type="line"/>
    </contour>
    <contour>
      <point x="525" y="232" type="line"/>
      <point x="941" y="232" type="line"/>
      <point x="950" y="421"/>
      <point x="842" y="545"/>
      <point x="663" y="545" type="curve" smooth="yes"/>
      <point x="503" y="545"/>
      <point x="404" y="435"/>
      <point x="404" y="268" type="curve" smooth="yes"/>
      <point x="404" y="103"/>
      <point x="500" y="-6"/>
      <point x="667" y="-6" type="curve" smooth="yes"/>
      <point x="767" y="-6"/>
      <point x="847" y="28"/>
      <point x="903" y="89" type="curve"/>
      <point x="812" y="178" type="line"/>
      <point x="776" y="142"/>
      <point x="730" y="123"/>
      <point x="682" y="123" type="curve" smooth="yes"/>
      <point x="602" y="123"/>
      <point x="549" y="181"/>
      <point x="549" y="278" type="curve" smooth="yes"/>
      <point x="549" y="364"/>
      <point x="593" y="429"/>
      <point x="664" y="429" type="curve" smooth="yes"/>
      <point x="727" y="429"/>
      <point x="769" y="381"/>
      <point x="769" y="315" type="curve"/>
      <point x="525" y="315" type="line"/>
    </contour>
    <contour>
      <point x="484" y="539" type="move" name="top"/>
    </contour>
  </outline>
</glyph>
<glyph name="eth" format="1">
  <advance width="604"/>
  <unicode hex="00F0"/>
  <outline>
    <contour>
      <point x="102" y="679" type="line"/>
      <point x="251" y="610"/>
      <point x="372" y="495"/>
      <point x="410" y="385" type="curve"/>
      <point x="378" y="422"/>
      <point x="314" y="445"/>
      <point x="249" y="445" type="curve" smooth="yes"/>
      <point x="111" y="445"/>
      <point x="22" y="359"/>
      <point x="22" y="226" type="curve" smooth="yes"/>
      <point x="22" y="84"/>
      <point x="125" y="-8"/>
      <point x="283" y="-8" type="curve" smooth="yes"/>
      <point x="463" y="-8"/>
      <point x="580" y="107"/>
      <point x="580" y="284" type="curve" smooth="yes"/>
      <point x="580" y="479"/>
      <point x="438" y="662"/>
      <point x="218" y="749" type="curve"/>
    </contour>
    <contour>
      <point x="354" y="330"/>
      <point x="396" y="291"/>
      <point x="396" y="232" type="curve" smooth="yes"/>
      <point x="396" y="173"/>
      <point x="354" y="135"/>
      <point x="290" y="135" type="curve" smooth="yes"/>
      <point x="228" y="135"/>
      <point x="187" y="174"/>
      <point x="187" y="234" type="curve" smooth="yes"/>
      <point x="187" y="293"/>
      <point x="227" y="330"/>
      <point x="290" y="330" type="curve" smooth="yes"/>
    </contour>
    <contour>
      <point x="114" y="568" type="line"/>
      <point x="141" y="488" type="line"/>
      <point x="550" y="625" type="line"/>
      <point x="523" y="705" type="line"/>
    </contour>
  </outline>
</glyph>
<glyph name="divide" format="1">
  <advance width="510"/>
  <unicode hex="00F7"/>
  <outline>
    <contour>
      <point x="33" y="381" type="line"/>
      <point x="33" y="272" type="line"/>
      <point x="478" y="272" type="line"/>
      <point x="478" y="381" type="line"/>
    </contour>
    <component base="dotaccent" xOffset="98" yOffset="-84" xScale="0.85" yScale="0.85"/>
    <component base="dotaccent" xOffset="98" yOffset="-441" xScale="0.85" yScale="0.85"/>
  </outline>
</glyph>
<glyph name="oslash" format="1">
  <advance width="637"/>
  <unicode hex="00F8"/>
  <outline>
    <contour>
      <point x="414" y="671" type="line"/>
      <point x="150" y="-142" type="line"/>
      <point x="221" y="-142" type="line"/>
      <point x="485" y="671" type="line"/>
    </contour>
    <contour>
      <point x="141" y="545"/>
      <point x="24" y="436"/>
      <point x="24" y="270" type="curve" smooth="yes"/>
      <point x="24" y="104"/>
      <point x="141" y="-6"/>
      <point x="318" y="-6" type="curve" smooth="yes"/>
      <point x="495" y="-6"/>
      <point x="612" y="104"/>
      <point x="612" y="270" type="curve" smooth="yes"/>
      <point x="612" y="436"/>
      <point x="495" y="545"/>
      <point x="318" y="545" type="curve" smooth="yes"/>
    </contour>
    <contour>
      <point x="397" y="422"/>
      <point x="450" y="360"/>
      <point x="450" y="268" type="curve" smooth="yes"/>
      <point x="450" y="175"/>
      <point x="397" y="114"/>
      <point x="318" y="114" type="curve" smooth="yes"/>
      <point x="240" y="114"/>
      <point x="187" y="175"/>
      <point x="187" y="268" type="curve" smooth="yes"/>
      <point x="187" y="360"/>
      <point x="240" y="422"/>
      <point x="318" y="422" type="curve" smooth="yes"/>
    </contour>
    <contour>
      <point x="319" y="539" type="move" name="top"/>
    </contour>
  </outline>
</glyph>
<glyph name="Aogonek" format="1">
  <advance width="770"/>
  <unicode hex="0104"/>
  <outline>
    <contour>
      <point x="298" y="701" type="line"/>
      <point x="-4" y="0" type="line"/>
      <point x="179" y="0" type="line"/>
      <point x="230" y="129" type="line"/>
      <point x="536" y="129" type="line"/>
      <point x="587" y="0" type="line"/>
      <point x="641" y="0" type="line"/>
      <point x="613" y="-42"/>
      <point x="594" y="-81"/>
      <point x="594" y="-120" type="curve" smooth="yes"/>
      <point x="594" y="-182"/>
      <point x="642" y="-203"/>
      <point x="682" y="-203" type="curve" smooth="yes"/>
      <point x="725" y="-203"/>
      <point x="765" y="-179"/>
      <point x="790" y="-136" type="curve"/>
      <point x="746" y="-85" type="line"/>
      <point x="733" y="-104"/>
      <point x="718" y="-116"/>
      <point x="703" y="-116" type="curve" smooth="yes"/>
      <point x="690" y="-116"/>
      <point x="681" y="-108"/>
      <point x="681" y="-92" type="curve" smooth="yes"/>
      <point x="681" y="-73"/>
      <point x="697" y="-41"/>
      <point x="725" y="0" type="curve"/>
      <point x="776" y="0" type="line"/>
      <point x="481" y="701" type="line"/>
    </contour>
    <contour>
      <point x="485" y="264" type="line"/>
      <point x="281" y="264" type="line"/>
      <point x="384" y="523" type="line"/>
    </contour>
  </outline>
</glyph>
<glyph name="aogonek" format="1">
  <advance width="605"/>
  <unicode hex="0105"/>
  <outline>
    <contour>
      <point x="221" y="547"/>
      <point x="145" y="525"/>
      <point x="61" y="486" type="curve"/>
      <point x="109" y="372" type="line"/>
      <point x="167" y="401"/>
      <point x="226" y="417"/>
      <point x="272" y="417" type="curve" smooth="yes"/>
      <point x="341" y="417"/>
      <point x="377" y="386"/>
      <point x="379" y="333" type="curve"/>
      <point x="379" y="324" type="line"/>
      <point x="234" y="324" type="line" smooth="yes"/>
      <point x="101" y="323"/>
      <point x="27" y="263"/>
      <point x="27" y="161" type="curve" smooth="yes"/>
      <point x="27" y="62"/>
      <point x="96" y="-8"/>
      <point x="213" y="-8" type="curve" smooth="yes"/>
      <point x="287" y="-8"/>
      <point x="344" y="16"/>
      <point x="379" y="62" type="curve"/>
      <point x="379" y="0" type="line"/>
      <point x="425" y="0" type="line"/>
      <point x="396" y="-41"/>
      <point x="377" y="-81"/>
      <point x="377" y="-120" type="curve" smooth="yes"/>
      <point x="377" y="-182"/>
      <point x="424" y="-203"/>
      <point x="465" y="-203" type="curve" smooth="yes"/>
      <point x="508" y="-203"/>
      <point x="547" y="-179"/>
      <point x="573" y="-136" type="curve"/>
      <point x="528" y="-85" type="line"/>
      <point x="515" y="-104"/>
      <point x="501" y="-116"/>
      <point x="486" y="-116" type="curve" smooth="yes"/>
      <point x="473" y="-116"/>
      <point x="464" y="-108"/>
      <point x="464" y="-92" type="curve" smooth="yes"/>
      <point x="464" y="-73"/>
      <point x="479" y="-41"/>
      <point x="508" y="0" type="curve"/>
      <point x="549" y="0" type="line"/>
      <point x="549" y="352" type="line" smooth="yes"/>
      <point x="548" y="474"/>
      <point x="461" y="547"/>
      <point x="312" y="547" type="curve" smooth="yes"/>
    </contour>
    <contour>
      <point x="379" y="181" type="line"/>
      <point x="368" y="141"/>
      <point x="319" y="109"/>
      <point x="265" y="109" type="curve" smooth="yes"/>
      <point x="218" y="109"/>
      <point x="189" y="134"/>
      <point x="189" y="173" type="curve" smooth="yes"/>
      <point x="189" y="213"/>
      <point x="215" y="231"/>
      <point x="268" y="231" type="curve" smooth="yes"/>
      <point x="379" y="231" type="line"/>
    </contour>
  </outline>
</glyph>
<glyph name="Eogonek" format="1">
  <advance width="678"/>
  <unicode hex="0118"/>
  <outline>
    <contour>
      <point x="70" y="700" type="line"/>
      <point x="70" y="0" type="line"/>
      <point x="479" y="0" type="line"/>
      <point x="450" y="-43"/>
      <point x="432" y="-81"/>
      <point x="432" y="-120" type="curve" smooth="yes"/>
      <point x="432" y="-182"/>
      <point x="479" y="-203"/>
      <point x="519" y="-203" type="curve" smooth="yes"/>
      <point x="563" y="-203"/>
      <point x="602" y="-179"/>
      <point x="628" y="-136" type="curve"/>
      <point x="583" y="-85" type="line"/>
      <point x="570" y="-104"/>
      <point x="556" y="-116"/>
      <point x="540" y="-116" type="curve" smooth="yes"/>
      <point x="528" y="-116"/>
      <point x="519" y="-108"/>
      <point x="519" y="-92" type="curve" smooth="yes"/>
      <point x="519" y="-73"/>
      <point x="533" y="-42"/>
      <point x="562" y="0" type="curve"/>
      <point x="633" y="0" type="line"/>
      <point x="633" y="136" type="line"/>
      <point x="248" y="136" type="line"/>
      <point x="248" y="285" type="line"/>
      <point x="587" y="285" type="line"/>
      <point x="587" y="421" type="line"/>
      <point x="248" y="421" type="line"/>
      <point x="248" y="564" type="line"/>
      <point x="623" y="564" type="line"/>
      <point x="623" y="700" type="line"/>
    </contour>
  </outline>
</glyph>
<glyph name="eogonek" format="1">
  <advance width="602"/>
  <unicode hex="0119"/>
  <outline>
    <contour>
      <point x="131" y="543"/>
      <point x="25" y="431"/>
      <point x="25" y="269" type="curve" smooth="yes"/>
      <point x="25" y="103"/>
      <point x="136" y="-6"/>
      <point x="308" y="-6" type="curve" smooth="yes"/>
      <point x="343" y="-6"/>
      <point x="373" y="1"/>
      <point x="404" y="17" type="curve"/>
      <point x="370" y="-30"/>
      <point x="349" y="-76"/>
      <point x="349" y="-119" type="curve" smooth="yes"/>
      <point x="349" y="-182"/>
      <point x="396" y="-203"/>
      <point x="437" y="-203" type="curve" smooth="yes"/>
      <point x="481" y="-203"/>
      <point x="519" y="-179"/>
      <point x="544" y="-136" type="curve"/>
      <point x="499" y="-85" type="line"/>
      <point x="487" y="-103"/>
      <point x="474" y="-116"/>
      <point x="458" y="-116" type="curve" smooth="yes"/>
      <point x="445" y="-116"/>
      <point x="436" y="-108"/>
      <point x="436" y="-91" type="curve" smooth="yes"/>
      <point x="436" y="-45"/>
      <point x="499" y="35"/>
      <point x="545" y="89" type="curve"/>
      <point x="455" y="178" type="line"/>
      <point x="419" y="142"/>
      <point x="372" y="122"/>
      <point x="325" y="122" type="curve" smooth="yes"/>
      <point x="260" y="122"/>
      <point x="216" y="160"/>
      <point x="199" y="223" type="curve"/>
      <point x="578" y="223" type="line"/>
      <point x="590" y="422"/>
      <point x="490" y="547"/>
      <point x="306" y="545" type="curve" smooth="yes"/>
    </contour>
    <contour>
      <point x="369" y="425"/>
      <point x="411" y="380"/>
      <point x="411" y="316" type="curve"/>
      <point x="195" y="316" type="line"/>
      <point x="204" y="381"/>
      <point x="247" y="425"/>
      <point x="307" y="425" type="curve" smooth="yes"/>
    </contour>
  </outline>
</glyph>
<glyph name="hbar" format="1">
  <advance width="743"/>
  <unicode hex="0127"/>
  <outline>
    <contour>
      <point x="-6" y="670" type="line"/>
      <point x="-6" y="576" type="line"/>
      <point x="364" y="576" type="line"/>
      <point x="364" y="670" type="line"/>
    </contour>
    <component base="h"/>
  </outline>
</glyph>
<glyph name="Iogonek" format="1">
  <advance width="318"/>
  <unicode hex="012E"/>
  <outline>
    <contour>
      <point x="231" y="-85" type="line"/>
      <point x="218" y="-104"/>
      <point x="203" y="-116"/>
      <point x="187" y="-116" type="curve" smooth="yes"/>
      <point x="175" y="-116"/>
      <point x="166" y="-108"/>
      <point x="166" y="-92" type="curve" smooth="yes"/>
      <point x="166" y="-73"/>
      <point x="182" y="-41"/>
      <point x="210" y="0" type="curve"/>
      <point x="248" y="0" type="line"/>
      <point x="248" y="701" type="line"/>
      <point x="70" y="701" type="line"/>
      <point x="70" y="0" type="line"/>
      <point x="126" y="0" type="line"/>
      <point x="98" y="-42"/>
      <point x="79" y="-81"/>
      <point x="79" y="-120" type="curve" smooth="yes"/>
      <point x="79" y="-182"/>
      <point x="127" y="-203"/>
      <point x="167" y="-203" type="curve" smooth="yes"/>
      <point x="210" y="-203"/>
      <point x="250" y="-179"/>
      <point x="275" y="-136" type="curve"/>
    </contour>
  </outline>
</glyph>
<glyph name="iogonek" format="1">
  <advance width="290"/>
  <unicode hex="012F"/>
  <outline>
    <contour>
      <point x="60" y="539" type="line"/>
      <point x="60" y="0" type="line"/>
      <point x="109" y="0" type="line"/>
      <point x="81" y="-42"/>
      <point x="61" y="-81"/>
      <point x="61" y="-120" type="curve" smooth="yes"/>
      <point x="61" y="-182"/>
      <point x="109" y="-203"/>
      <point x="149" y="-203" type="curve" smooth="yes"/>
      <point x="193" y="-203"/>
      <point x="232" y="-179"/>
      <point x="257" y="-136" type="curve"/>
      <point x="213" y="-85" type="line"/>
      <point x="200" y="-104"/>
      <point x="186" y="-116"/>
      <point x="170" y="-116" type="curve" smooth="yes"/>
      <point x="157" y="-116"/>
      <point x="149" y="-108"/>
      <point x="149" y="-92" type="curve" smooth="yes"/>
      <point x="149" y="-73"/>
      <point x="164" y="-41"/>
      <point x="192" y="0" type="curve"/>
      <point x="233" y="0" type="line"/>
      <point x="233" y="539" type="line"/>
    </contour>
    <contour>
      <point x="92" y="785"/>
      <point x="54" y="747"/>
      <point x="54" y="693" type="curve" smooth="yes"/>
      <point x="54" y="640"/>
      <point x="92" y="602"/>
      <point x="146" y="602" type="curve" smooth="yes"/>
      <point x="199" y="602"/>
      <point x="237" y="640"/>
      <point x="237" y="693" type="curve" smooth="yes"/>
      <point x="237" y="747"/>
      <point x="199" y="785"/>
      <point x="146" y="785" type="curve" smooth="yes"/>
    </contour>
  </outline>
</glyph>
<glyph name="dotlessi" format="1">
  <advance width="311"/>
  <unicode hex="0131"/>
  <outline>
    <contour>
      <point x="69" y="539" type="line"/>
      <point x="69" y="0" type="line"/>
      <point x="241" y="0" type="line"/>
      <point x="241" y="539" type="line"/>
    </contour>
    <contour>
      <point x="271" y="10" type="move" name="ogonek"/>
    </contour>
    <contour>
      <point x="156" y="539" type="move" name="top"/>
    </contour>
  </outline>
</glyph>
<glyph name="kcedilla" format="1">
  <advance width="630"/>
  <unicode hex="0137"/>
  <outline>
    <contour>
      <point x="208" y="13" type="line"/>
      <point x="111" y="13" type="line"/>
      <point x="67" y="-76" type="line"/>
      <point x="78" y="-74"/>
      <point x="92" y="-73"/>
      <point x="101" y="-73" type="curve" smooth="yes"/>
      <point x="128" y="-73"/>
      <point x="147" y="-88"/>
      <point x="147" y="-111" type="curve" smooth="yes"/>
      <point x="147" y="-135"/>
      <point x="129" y="-151"/>
      <point x="102" y="-151" type="curve" smooth="yes"/>
      <point x="86" y="-151"/>
      <point x="67" y="-143"/>
      <point x="56" y="-132" type="curve"/>
      <point x="24" y="-203" type="line"/>
      <point x="51" y="-222"/>
      <point x="89" y="-234"/>
      <point x="117" y="-234" type="curve" smooth="yes"/>
      <point x="194" y="-234"/>
      <point x="244" y="-192"/>
      <point x="243" y="-128" type="curve" smooth="yes"/>
      <point x="243" y="-91"/>
      <point x="216" y="-59"/>
      <point x="176" y="-49" type="curve"/>
    </contour>
    <component base="k"/>
  </outline>
</glyph>
<glyph name="kgreenlandic" format="1">
  <advance width="624"/>
  <unicode hex="0138"/>
  <outline>
    <contour>
      <point x="230" y="111" type="move"/>
    </contour>
    <contour>
      <point x="69" y="539" type="line"/>
      <point x="69" y="0" type="line"/>
      <point x="241" y="0" type="line"/>
      <point x="241" y="539" type="line"/>
    </contour>
    <contour>
      <point x="419" y="539" type="line"/>
      <point x="231" y="339" type="line"/>
      <point x="231" y="137" type="line"/>
      <point x="615" y="539" type="line"/>
    </contour>
    <contour>
      <point x="277" y="247" type="line"/>
      <point x="416" y="0" type="line"/>
      <point x="621" y="0" type="line"/>
      <point x="404" y="351" type="line"/>
    </contour>
    <contour>
      <point x="271" y="10" type="move" name="ogonek"/>
    </contour>
    <contour>
      <point x="309" y="0" type="move" name="bottom"/>
    </contour>
    <contour>
      <point x="156" y="539" type="move" name="top"/>
    </contour>
  </outline>
</glyph>
<glyph name="lcaron" format="1">
  <advance width="406"/>
  <unicode hex="013E"/>
  <outline>
    <contour>
      <point x="128" y="-135" type="move"/>
    </contour>
    <component base="l"/>
    <component base="quoteright" xOffset="243" yOffset="-24"/>
  </outline>
</glyph>
<glyph name="ldot" format="1">
  <advance width="393"/>
  <unicode hex="0140"/>
  <outline>
    <contour>
      <point x="298" y="395"/>
      <point x="264" y="361"/>
      <point x="264" y="312" type="curve" smooth="yes"/>
      <point x="264" y="263"/>
      <point x="298" y="229"/>
      <point x="347" y="229" type="curve" smooth="yes"/>
      <point x="395" y="229"/>
      <point x="430" y="263"/>
      <point x="430" y="312" type="curve" smooth="yes"/>
      <point x="430" y="361"/>
      <point x="395" y="395"/>
      <point x="347" y="395" type="curve" smooth="yes"/>
    </contour>
    <component base="l"/>
  </outline>
</glyph>
<glyph name="Lslash" format="1">
  <advance width="580"/>
  <unicode hex="0141"/>
  <outline>
    <contour>
      <point x="-13" y="416" type="line"/>
      <point x="16" y="312" type="line"/>
      <point x="440" y="434" type="line"/>
      <point x="411" y="539" type="line"/>
    </contour>
    <component base="L" xOffset="19"/>
  </outline>
</glyph>
<glyph name="Lslash" format="1">
  <advance width="580"/>
  <unicode hex="0141"/>
  <outline>
    <contour>
      <point x="-13" y="416" type="line"/>
      <point x="17" y="312" type="line"/>
      <point x="441" y="434" type="line"/>
      <point x="411" y="539" type="line"/>
    </contour>
    <component base="L" xOffset="19"/>
  </outline>
</glyph>
<glyph name="lslash" format="1">
  <advance width="343"/>
  <unicode hex="0142"/>
  <outline>
    <contour>
      <point x="-33" y="428" type="line"/>
      <point x="-4" y="324" type="line"/>
      <point x="380" y="434" type="line"/>
      <point x="350" y="539" type="line"/>
    </contour>
    <component base="l" xOffset="21"/>
  </outline>
</glyph>
<glyph name="OE" format="1">
  <advance width="1113"/>
  <unicode hex="0152"/>
  <outline>
    <contour>
      <point x="401" y="701" type="line"/>
      <point x="185" y="701"/>
      <point x="24" y="549"/>
      <point x="24" y="349" type="curve" smooth="yes"/>
      <point x="24" y="149"/>
      <point x="187" y="0"/>
      <point x="401" y="0" type="curve"/>
      <point x="562" y="0" type="line"/>
      <point x="564" y="145" type="line"/>
      <point x="402" y="143" type="line"/>
      <point x="290" y="143"/>
      <point x="206" y="231"/>
      <point x="206" y="348" type="curve" smooth="yes"/>
      <point x="206" y="466"/>
      <point x="290" y="554"/>
      <point x="402" y="554" type="curve"/>
      <point x="548" y="554" type="line"/>
      <point x="548" y="701" type="line"/>
    </contour>
    <component base="E" xOffset="439"/>
    <contour>
      <point x="554" y="701" type="move" name="top"/>
    </contour>
  </outline>
</glyph>
<glyph name="OE" format="1">
  <advance width="1113"/>
  <unicode hex="0152"/>
  <outline>
    <contour>
      <point x="401" y="701" type="line"/>
      <point x="185" y="701"/>
      <point x="24" y="549"/>
      <point x="24" y="349" type="curve" smooth="yes"/>
      <point x="24" y="149"/>
      <point x="187" y="0"/>
      <point x="401" y="0" type="curve"/>
      <point x="562" y="0" type="line"/>
      <point x="564" y="145" type="line"/>
      <point x="402" y="143" type="line"/>
      <point x="290" y="143"/>
      <point x="206" y="231"/>
      <point x="206" y="348" type="curve" smooth="yes"/>
      <point x="206" y="466"/>
      <point x="290" y="554"/>
      <point x="402" y="554" type="curve"/>
      <point x="548" y="554" type="line"/>
      <point x="548" y="701" type="line"/>
    </contour>
    <contour>
      <point x="509" y="701" type="line"/>
      <point x="509" y="0" type="line"/>
      <point x="1068" y="0" type="line"/>
      <point x="1068" y="140" type="line"/>
      <point x="687" y="140" type="line"/>
      <point x="687" y="282" type="line"/>
      <point x="1021" y="282" type="line"/>
      <point x="1021" y="421" type="line"/>
      <point x="687" y="421" type="line"/>
      <point x="687" y="560" type="line"/>
      <point x="1058" y="560" type="line"/>
      <point x="1058" y="701" type="line"/>
    </contour>
    <contour>
      <point x="1062" y="10" type="move" name="ogonek"/>
    </contour>
    <contour>
      <point x="781" y="0" type="move" name="bottom"/>
    </contour>
    <contour>
      <point x="554" y="701" type="move" name="top"/>
    </contour>
  </outline>
</glyph>
<glyph name="oe" format="1">
  <advance width="1019"/>
  <unicode hex="0153"/>
  <outline>
    <contour>
      <point x="336" y="229" type="move"/>
    </contour>
    <contour>
      <point x="141" y="545"/>
      <point x="24" y="436"/>
      <point x="24" y="270" type="curve" smooth="yes"/>
      <point x="24" y="104"/>
      <point x="141" y="-6"/>
      <point x="318" y="-6" type="curve" smooth="yes"/>
      <point x="481" y="-6"/>
      <point x="575" y="104"/>
      <point x="575" y="270" type="curve" smooth="yes"/>
      <point x="575" y="436"/>
      <point x="481" y="545"/>
      <point x="318" y="545" type="curve" smooth="yes"/>
    </contour>
    <contour>
      <point x="390" y="408"/>
      <point x="438" y="351"/>
      <point x="438" y="268" type="curve" smooth="yes"/>
      <point x="438" y="184"/>
      <point x="390" y="128"/>
      <point x="318" y="128" type="curve" smooth="yes"/>
      <point x="247" y="128"/>
      <point x="198" y="184"/>
      <point x="198" y="268" type="curve" smooth="yes"/>
      <point x="198" y="351"/>
      <point x="247" y="408"/>
      <point x="318" y="408" type="curve" smooth="yes"/>
    </contour>
    <contour>
      <point x="575" y="232" type="line"/>
      <point x="994" y="232" type="line"/>
      <point x="1003" y="421"/>
      <point x="894" y="545"/>
      <point x="715" y="545" type="curve" smooth="yes"/>
      <point x="560" y="545"/>
      <point x="469" y="435"/>
      <point x="469" y="268" type="curve" smooth="yes"/>
      <point x="469" y="104"/>
      <point x="556" y="-6"/>
      <point x="719" y="-6" type="curve" smooth="yes"/>
      <point x="819" y="-6"/>
      <point x="900" y="29"/>
      <point x="956" y="89" type="curve"/>
      <point x="865" y="178" type="line"/>
      <point x="828" y="142"/>
      <point x="782" y="123"/>
      <point x="734" y="123" type="curve" smooth="yes"/>
      <point x="654" y="123"/>
      <point x="599" y="180"/>
      <point x="599" y="278" type="curve" smooth="yes"/>
      <point x="599" y="364"/>
      <point x="644" y="429"/>
      <point x="716" y="429" type="curve" smooth="yes"/>
      <point x="779" y="429"/>
      <point x="822" y="381"/>
      <point x="822" y="315" type="curve"/>
      <point x="575" y="315" type="line"/>
    </contour>
    <contour>
      <point x="513" y="539" type="move" name="top"/>
    </contour>
  </outline>
</glyph>
<glyph name="tcaron" format="1">
  <advance width="428"/>
  <unicode hex="0165"/>
  <outline>
    <contour>
      <point x="167" y="-98" type="move"/>
    </contour>
    <component base="t"/>
    <component base="quoteright" xOffset="280" yOffset="132"/>
  </outline>
</glyph>
<glyph name="Uogonek" format="1">
  <advance width="759"/>
  <unicode hex="0172"/>
  <outline>
    <contour>
      <point x="523" y="701" type="line"/>
      <point x="523" y="294" type="line" smooth="yes"/>
      <point x="523" y="198"/>
      <point x="466" y="141"/>
      <point x="382" y="141" type="curve" smooth="yes"/>
      <point x="297" y="141"/>
      <point x="235" y="199"/>
      <point x="235" y="294" type="curve" smooth="yes"/>
      <point x="235" y="701" type="line"/>
      <point x="58" y="701" type="line"/>
      <point x="58" y="294" type="line" smooth="yes"/>
      <point x="58" y="109"/>
      <point x="184" y="-8"/>
      <point x="381" y="-8" type="curve" smooth="yes"/>
      <point x="577" y="-8"/>
      <point x="701" y="109"/>
      <point x="701" y="294" type="curve" smooth="yes"/>
      <point x="701" y="701" type="line"/>
    </contour>
    <contour>
      <point x="427" y="19" type="line"/>
      <point x="393" y="-28"/>
      <point x="367" y="-75"/>
      <point x="367" y="-120" type="curve" smooth="yes"/>
      <point x="367" y="-182"/>
      <point x="414" y="-203"/>
      <point x="455" y="-203" type="curve" smooth="yes"/>
      <point x="498" y="-203"/>
      <point x="537" y="-179"/>
      <point x="563" y="-136" type="curve"/>
      <point x="518" y="-85" type="line"/>
      <point x="506" y="-104"/>
      <point x="491" y="-116"/>
      <point x="475" y="-116" type="curve" smooth="yes"/>
      <point x="463" y="-116"/>
      <point x="454" y="-108"/>
      <point x="454" y="-92" type="curve" smooth="yes"/>
      <point x="454" y="-69"/>
      <point x="475" y="-31"/>
      <point x="511" y="19" type="curve"/>
    </contour>
  </outline>
</glyph>
<glyph name="uogonek" format="1">
  <advance width="660"/>
  <unicode hex="0173"/>
  <outline>
    <contour>
      <point x="426" y="539" type="line"/>
      <point x="426" y="262" type="line" smooth="yes"/>
      <point x="423" y="194"/>
      <point x="383" y="146"/>
      <point x="320" y="145" type="curve" smooth="yes"/>
      <point x="263" y="145"/>
      <point x="226" y="184"/>
      <point x="226" y="248" type="curve" smooth="yes"/>
      <point x="226" y="539" type="line"/>
      <point x="54" y="539" type="line"/>
      <point x="54" y="199" type="line" smooth="yes"/>
      <point x="54" y="73"/>
      <point x="131" y="-7"/>
      <point x="249" y="-7" type="curve" smooth="yes"/>
      <point x="328" y="-7"/>
      <point x="389" y="25"/>
      <point x="426" y="89" type="curve"/>
      <point x="426" y="0" type="line"/>
      <point x="473" y="0" type="line"/>
      <point x="445" y="-42"/>
      <point x="425" y="-81"/>
      <point x="425" y="-120" type="curve" smooth="yes"/>
      <point x="425" y="-182"/>
      <point x="473" y="-203"/>
      <point x="513" y="-203" type="curve" smooth="yes"/>
      <point x="557" y="-203"/>
      <point x="596" y="-179"/>
      <point x="621" y="-136" type="curve"/>
      <point x="577" y="-85" type="line"/>
      <point x="564" y="-104"/>
      <point x="550" y="-116"/>
      <point x="534" y="-116" type="curve" smooth="yes"/>
      <point x="521" y="-116"/>
      <point x="513" y="-108"/>
      <point x="513" y="-92" type="curve" smooth="yes"/>
      <point x="513" y="-73"/>
      <point x="528" y="-41"/>
      <point x="556" y="0" type="curve"/>
      <point x="599" y="0" type="line"/>
      <point x="599" y="539" type="line"/>
    </contour>
  </outline>
</glyph>
<glyph name="florin" format="1">
  <advance width="410"/>
  <unicode hex="0192"/>
  <outline>
    <contour>
      <point x="220" y="753"/>
      <point x="135" y="683"/>
      <point x="122" y="575" type="curve" smooth="yes"/>
      <point x="52" y="1" type="line" smooth="yes"/>
      <point x="46" y="-41"/>
      <point x="25" y="-68"/>
      <point x="-11" y="-67" type="curve" smooth="yes"/>
      <point x="-29" y="-67"/>
      <point x="-52" y="-58"/>
      <point x="-69" y="-44" type="curve"/>
      <point x="-112" y="-163" type="line"/>
      <point x="-83" y="-186"/>
      <point x="-34" y="-201"/>
      <point x="10" y="-202" type="curve" smooth="yes"/>
      <point x="127" y="-203"/>
      <point x="207" y="-133"/>
      <point x="220" y="-24" type="curve" smooth="yes"/>
      <point x="290" y="550" type="line" smooth="yes"/>
      <point x="295" y="592"/>
      <point x="325" y="619"/>
      <point x="365" y="618" type="curve" smooth="yes"/>
      <point x="384" y="617"/>
      <point x="408" y="609"/>
      <point x="426" y="595" type="curve"/>
      <point x="485" y="713" type="line"/>
      <point x="448" y="737"/>
      <point x="390" y="752"/>
      <point x="337" y="752" type="curve" smooth="yes"/>
    </contour>
    <contour>
      <point x="35" y="466" type="line"/>
      <point x="22" y="355" type="line"/>
      <point x="388" y="355" type="line"/>
      <point x="401" y="466" type="line"/>
    </contour>
  </outline>
</glyph>
<glyph name="dotlessj" format="1">
  <advance width="308"/>
  <unicode hex="0237"/>
  <outline>
    <contour>
      <point x="71" y="539" type="line"/>
      <point x="71" y="5" type="line"/>
      <point x="71" y="-43"/>
      <point x="51" y="-67"/>
      <point x="14" y="-66" type="curve"/>
      <point x="-8" y="-66"/>
      <point x="-29" y="-59"/>
      <point x="-50" y="-47" type="curve"/>
      <point x="-90" y="-166" type="line"/>
      <point x="-50" y="-188"/>
      <point x="-1" y="-200"/>
      <point x="53" y="-201" type="curve"/>
      <point x="171" y="-202"/>
      <point x="244" y="-134"/>
      <point x="244" y="-20" type="curve"/>
      <point x="244" y="539" type="line"/>
    </contour>
    <contour>
      <point x="151" y="539" type="move" name="top"/>
    </contour>
  </outline>
</glyph>
<glyph name="circumflex" format="1">
  <advance width="350"/>
  <unicode hex="02C6"/>
  <outline>
    <contour>
      <point x="106" y="762" type="line"/>
      <point x="-6" y="611" type="line"/>
      <point x="117" y="611" type="line"/>
      <point x="175" y="696" type="line"/>
      <point x="234" y="611" type="line"/>
      <point x="357" y="611" type="line"/>
      <point x="245" y="762" type="line"/>
    </contour>
    <contour>
      <point x="175" y="541" type="move" name="_top"/>
    </contour>
  </outline>
</glyph>
<glyph name="caron" format="1">
  <advance width="350"/>
  <unicode hex="02C7"/>
  <outline>
    <contour>
      <point x="250" y="598" type="line"/>
      <point x="371" y="762" type="line"/>
      <point x="236" y="762" type="line"/>
      <point x="175" y="670" type="line"/>
      <point x="113" y="762" type="line"/>
      <point x="-22" y="762" type="line"/>
      <point x="99" y="598" type="line"/>
    </contour>
    <contour>
      <point x="180" y="541" type="move" name="_top"/>
    </contour>
  </outline>
</glyph>
<glyph name="breve" format="1">
  <advance width="350"/>
  <unicode hex="02D8"/>
  <outline>
    <contour>
      <point x="230" y="759" type="line"/>
      <point x="228" y="725"/>
      <point x="205" y="701"/>
      <point x="175" y="701" type="curve" smooth="yes"/>
      <point x="144" y="701"/>
      <point x="121" y="725"/>
      <point x="119" y="759" type="curve"/>
      <point x="11" y="759" type="line"/>
      <point x="15" y="663"/>
      <point x="80" y="601"/>
      <point x="175" y="601" type="curve" smooth="yes"/>
      <point x="269" y="601"/>
      <point x="334" y="663"/>
      <point x="338" y="759" type="curve"/>
    </contour>
    <contour>
      <point x="175" y="540" type="move" name="_top"/>
    </contour>
  </outline>
</glyph>
<glyph name="dotaccent" format="1">
  <advance width="350"/>
  <unicode hex="02D9"/>
  <outline>
    <contour>
      <point x="122" y="785"/>
      <point x="84" y="747"/>
      <point x="84" y="694" type="curve" smooth="yes"/>
      <point x="84" y="640"/>
      <point x="122" y="602"/>
      <point x="175" y="602" type="curve" smooth="yes"/>
      <point x="229" y="602"/>
      <point x="267" y="640"/>
      <point x="267" y="694" type="curve" smooth="yes"/>
      <point x="267" y="747"/>
      <point x="229" y="785"/>
      <point x="175" y="785" type="curve" smooth="yes"/>
    </contour>
    <contour>
      <point x="175" y="539" type="move" name="_top"/>
    </contour>
  </outline>
</glyph>
<glyph name="ring" format="1">
  <advance width="350"/>
  <unicode hex="02DA"/>
  <outline>
    <contour>
      <point x="108" y="814"/>
      <point x="54" y="760"/>
      <point x="54" y="694" type="curve" smooth="yes"/>
      <point x="54" y="628"/>
      <point x="108" y="574"/>
      <point x="175" y="574" type="curve" smooth="yes"/>
      <point x="242" y="574"/>
      <point x="296" y="628"/>
      <point x="296" y="694" type="curve" smooth="yes"/>
      <point x="296" y="760"/>
      <point x="242" y="814"/>
      <point x="175" y="814" type="curve" smooth="yes"/>
    </contour>
    <contour>
      <point x="204" y="746"/>
      <point x="227" y="722"/>
      <point x="227" y="694" type="curve" smooth="yes"/>
      <point x="227" y="665"/>
      <point x="204" y="642"/>
      <point x="175" y="642" type="curve" smooth="yes"/>
      <point x="145" y="642"/>
      <point x="122" y="665"/>
      <point x="122" y="694" type="curve" smooth="yes"/>
      <point x="122" y="722"/>
      <point x="145" y="746"/>
      <point x="175" y="746" type="curve" smooth="yes"/>
    </contour>
    <contour>
      <point x="175" y="539" type="move" name="_top"/>
    </contour>
  </outline>
</glyph>
<glyph name="ogonek" format="1">
  <advance width="350"/>
  <unicode hex="02DB"/>
  <outline>
    <contour>
      <point x="138" y="18" type="line"/>
      <point x="104" y="-28"/>
      <point x="78" y="-75"/>
      <point x="78" y="-120" type="curve" smooth="yes"/>
      <point x="78" y="-182"/>
      <point x="125" y="-203"/>
      <point x="166" y="-203" type="curve" smooth="yes"/>
      <point x="209" y="-203"/>
      <point x="248" y="-179"/>
      <point x="274" y="-136" type="curve"/>
      <point x="230" y="-85" type="line"/>
      <point x="217" y="-104"/>
      <point x="202" y="-116"/>
      <point x="187" y="-116" type="curve" smooth="yes"/>
      <point x="174" y="-116"/>
      <point x="165" y="-108"/>
      <point x="165" y="-92" type="curve" smooth="yes"/>
      <point x="165" y="-69"/>
      <point x="186" y="-31"/>
      <point x="221" y="18" type="curve"/>
    </contour>
    <contour>
      <point x="274" y="10" type="move" name="_ogonek"/>
    </contour>
  </outline>
</glyph>
<glyph name="tilde" format="1">
  <advance width="350"/>
  <unicode hex="02DC"/>
  <outline>
    <contour>
      <point x="32" y="777"/>
      <point x="-3" y="726"/>
      <point x="-3" y="621" type="curve"/>
      <point x="103" y="621" type="line"/>
      <point x="103" y="650"/>
      <point x="113" y="664"/>
      <point x="133" y="664" type="curve"/>
      <point x="162" y="664"/>
      <point x="188" y="617"/>
      <point x="249" y="617" type="curve"/>
      <point x="319" y="617"/>
      <point x="353" y="667"/>
      <point x="353" y="772" type="curve"/>
      <point x="248" y="772" type="line"/>
      <point x="248" y="744"/>
      <point x="238" y="730"/>
      <point x="217" y="730" type="curve"/>
      <point x="189" y="730"/>
      <point x="160" y="777"/>
      <point x="102" y="777" type="curve"/>
    </contour>
    <contour>
      <point x="175" y="539" type="move" name="_top"/>
    </contour>
  </outline>
</glyph>
<glyph name="hungarumlaut" format="1">
  <advance width="350"/>
  <unicode hex="02DD"/>
  <outline>
    <contour>
      <point x="164" y="600" type="line"/>
      <point x="290" y="600" type="line"/>
      <point x="381" y="723" type="line"/>
      <point x="249" y="771" type="line"/>
    </contour>
    <contour>
      <point x="-31" y="600" type="line"/>
      <point x="95" y="600" type="line"/>
      <point x="186" y="723" type="line"/>
      <point x="54" y="771" type="line"/>
    </contour>
    <contour>
      <point x="144" y="541" type="move" name="_top"/>
    </contour>
  </outline>
</glyph>
<glyph name="commaaccentcomb" format="1">
  <advance width="241"/>
  <unicode hex="0326"/>
  <outline>
    <contour>
      <point x="27" y="-295" type="line"/>
      <point x="109" y="-295" type="line"/>
      <point x="182" y="-189" type="line" smooth="yes"/>
      <point x="196" y="-170"/>
      <point x="205" y="-148"/>
      <point x="205" y="-123" type="curve" smooth="yes"/>
      <point x="205" y="-70"/>
      <point x="166" y="-41"/>
      <point x="122" y="-41" type="curve" smooth="yes"/>
      <point x="74" y="-41"/>
      <point x="39" y="-75"/>
      <point x="39" y="-124" type="curve" smooth="yes"/>
      <point x="39" y="-169"/>
      <point x="71" y="-208"/>
      <point x="144" y="-206" type="curve"/>
      <point x="98" y="-127" type="line"/>
    </contour>
    <contour>
      <point x="116" y="0" type="move" name="_bottom"/>
    </contour>
  </outline>
</glyph>
<glyph name="Delta" format="1">
  <advance width="770"/>
  <unicode hex="0394"/>
  <outline>
    <contour>
      <point x="297" y="700" type="line"/>
      <point x="-5" y="0" type="line"/>
      <point x="178" y="0" type="line"/>
      <point x="384" y="523" type="line"/>
      <point x="585" y="0" type="line"/>
      <point x="775" y="0" type="line"/>
      <point x="480" y="700" type="line"/>
    </contour>
    <contour>
      <point x="148" y="129" type="line"/>
      <point x="148" y="0" type="line" smooth="yes"/>
      <point x="610" y="0" type="line"/>
      <point x="610" y="129" type="line"/>
    </contour>
  </outline>
</glyph>
<glyph name="pi" format="1">
  <advance width="729"/>
  <unicode hex="03C0"/>
  <outline>
    <contour>
      <point x="163" y="539" type="line"/>
      <point x="59" y="539"/>
      <point x="-18" y="473"/>
      <point x="-17" y="384" type="curve"/>
      <point x="-16" y="340"/>
      <point x="-1" y="286"/>
      <point x="21" y="245" type="curve"/>
      <point x="140" y="286" type="line"/>
      <point x="127" y="309"/>
      <point x="118" y="336"/>
      <point x="118" y="355" type="curve"/>
      <point x="117" y="392"/>
      <point x="146" y="418"/>
      <point x="186" y="418" type="curve"/>
      <point x="717" y="418" type="line"/>
      <point x="717" y="539" type="line"/>
    </contour>
    <contour>
      <point x="449" y="435" type="line"/>
      <point x="449" y="0" type="line"/>
      <point x="592" y="0" type="line"/>
      <point x="592" y="435" type="line"/>
    </contour>
    <contour>
      <point x="219" y="435" type="line"/>
      <point x="173" y="0" type="line"/>
      <point x="316" y="0" type="line"/>
      <point x="362" y="435" type="line"/>
    </contour>
  </outline>
</glyph>
<glyph name="dagger" format="1">
  <advance width="574"/>
  <unicode hex="2020"/>
  <outline>
    <contour>
      <point x="200" y="699" type="line"/>
      <point x="200" y="494" type="line"/>
      <point x="18" y="494" type="line"/>
      <point x="18" y="354" type="line"/>
      <point x="200" y="354" type="line"/>
      <point x="200" y="-187" type="line"/>
      <point x="370" y="-187" type="line"/>
      <point x="370" y="354" type="line"/>
      <point x="556" y="354" type="line"/>
      <point x="556" y="494" type="line"/>
      <point x="370" y="494" type="line"/>
      <point x="370" y="699" type="line"/>
    </contour>
  </outline>
</glyph>
<glyph name="daggerdbl" format="1">
  <advance width="574"/>
  <unicode hex="2021"/>
  <outline>
    <contour>
      <point x="200" y="699" type="line"/>
      <point x="200" y="494" type="line"/>
      <point x="18" y="494" type="line"/>
      <point x="18" y="354" type="line"/>
      <point x="200" y="354" type="line"/>
      <point x="200" y="-187" type="line"/>
      <point x="370" y="-187" type="line"/>
      <point x="370" y="354" type="line"/>
      <point x="556" y="354" type="line"/>
      <point x="556" y="494" type="line"/>
      <point x="370" y="494" type="line"/>
      <point x="370" y="699" type="line"/>
    </contour>
    <contour>
      <point x="18" y="171" type="line"/>
      <point x="18" y="31" type="line"/>
      <point x="556" y="31" type="line"/>
      <point x="556" y="171" type="line"/>
    </contour>
  </outline>
</glyph>
<glyph name="bullet" format="1">
  <advance width="327"/>
  <unicode hex="2022"/>
  <outline>
    <contour>
      <point x="90" y="401"/>
      <point x="38" y="349"/>
      <point x="38" y="276" type="curve" smooth="yes"/>
      <point x="38" y="202"/>
      <point x="90" y="149"/>
      <point x="163" y="149" type="curve" smooth="yes"/>
      <point x="237" y="149"/>
      <point x="289" y="202"/>
      <point x="289" y="276" type="curve" smooth="yes"/>
      <point x="289" y="349"/>
      <point x="237" y="401"/>
      <point x="163" y="401" type="curve" smooth="yes"/>
    </contour>
  </outline>
</glyph>
<glyph name="guilsinglleft" format="1">
  <advance width="281"/>
  <unicode hex="2039"/>
  <outline>
    <contour>
      <point x="122" y="450" type="line"/>
      <point x="2" y="266" type="line"/>
      <point x="122" y="82" type="line"/>
      <point x="262" y="82" type="line"/>
      <point x="156" y="266" type="line"/>
      <point x="262" y="450" type="line"/>
    </contour>
  </outline>
</glyph>
<glyph name="fraction" format="1">
  <advance width="117"/>
  <unicode hex="2044"/>
  <outline>
    <contour>
      <point x="387" y="701" type="line"/>
      <point x="226" y="701" type="line"/>
      <point x="-275" y="0" type="line"/>
      <point x="-112" y="0" type="line"/>
    </contour>
  </outline>
</glyph>
<glyph name="Euro" format="1">
  <advance width="782"/>
  <unicode hex="20AC"/>
  <outline>
    <contour>
      <point x="273" y="706"/>
      <point x="113" y="554"/>
      <point x="113" y="352" type="curve" smooth="yes"/>
      <point x="113" y="147"/>
      <point x="270" y="-8"/>
      <point x="481" y="-8" type="curve" smooth="yes"/>
      <point x="585" y="-8"/>
      <point x="695" y="43"/>
      <point x="769" y="120" type="curve"/>
      <point x="666" y="230" type="line"/>
      <point x="617" y="180"/>
      <point x="549" y="148"/>
      <point x="490" y="148" type="curve" smooth="yes"/>
      <point x="380" y="148"/>
      <point x="295" y="237"/>
      <point x="295" y="354" type="curve" smooth="yes"/>
      <point x="295" y="469"/>
      <point x="380" y="557"/>
      <point x="490" y="557" type="curve" smooth="yes"/>
      <point x="552" y="557"/>
      <point x="620" y="522"/>
      <point x="666" y="466" type="curve"/>
      <point x="769" y="588" type="line"/>
      <point x="699" y="660"/>
      <point x="591" y="706"/>
      <point x="488" y="706" type="curve" smooth="yes"/>
    </contour>
    <component base="equal" xOffset="-10" yOffset="126" xScale="1.17" yScale="0.69"/>
  </outline>
</glyph>
<glyph name="uni2113" format="1">
  <advance width="473"/>
  <unicode hex="2113"/>
  <outline>
    <contour>
      <point x="235" y="709"/>
      <point x="159" y="640"/>
      <point x="131" y="485" type="curve" smooth="yes"/>
      <point x="92" y="245" type="line"/>
      <point x="9" y="187" type="line"/>
      <point x="34" y="116" type="line"/>
      <point x="81" y="146" type="line"/>
      <point x="87" y="52"/>
      <point x="129" y="-6"/>
      <point x="223" y="-6" type="curve" smooth="yes"/>
      <point x="300" y="-6"/>
      <point x="373" y="32"/>
      <point x="433" y="126" type="curve"/>
      <point x="382" y="187" type="line"/>
      <point x="350" y="148"/>
      <point x="310" y="108"/>
      <point x="261" y="108" type="curve" smooth="yes"/>
      <point x="215" y="108"/>
      <point x="195" y="141"/>
      <point x="207" y="220" type="curve"/>
      <point x="304" y="301"/>
      <point x="444" y="423"/>
      <point x="444" y="574" type="curve" smooth="yes"/>
      <point x="444" y="659"/>
      <point x="399" y="709"/>
      <point x="323" y="709" type="curve" smooth="yes"/>
    </contour>
    <contour>
      <point x="338" y="619"/>
      <point x="349" y="601"/>
      <point x="349" y="571" type="curve" smooth="yes"/>
      <point x="349" y="492"/>
      <point x="285" y="402"/>
      <point x="227" y="343" type="curve"/>
      <point x="253" y="500" type="line" smooth="yes"/>
      <point x="268" y="587"/>
      <point x="292" y="619"/>
      <point x="319" y="619" type="curve" smooth="yes"/>
    </contour>
  </outline>
</glyph>
<glyph name="trademark" format="1">
  <advance width="904"/>
  <unicode hex="2122"/>
  <outline>
    <contour>
      <point x="83" y="-148" type="move"/>
    </contour>
    <contour>
      <point x="726" y="701" type="line"/>
      <point x="623" y="470" type="line"/>
      <point x="521" y="701" type="line"/>
      <point x="383" y="701" type="line"/>
      <point x="383" y="280" type="line"/>
      <point x="496" y="280" type="line"/>
      <point x="496" y="525" type="line"/>
      <point x="581" y="321" type="line"/>
      <point x="666" y="321" type="line"/>
      <point x="752" y="525" type="line"/>
      <point x="752" y="280" type="line"/>
      <point x="864" y="280" type="line"/>
      <point x="864" y="701" type="line"/>
    </contour>
    <contour>
      <point x="-8" y="701" type="line"/>
      <point x="-8" y="600" type="line"/>
      <point x="103" y="600" type="line"/>
      <point x="103" y="280" type="line"/>
      <point x="228" y="280" type="line"/>
      <point x="228" y="600" type="line"/>
      <point x="340" y="600" type="line"/>
      <point x="340" y="701" type="line"/>
    </contour>
  </outline>
</glyph>
<glyph name="Omega" format="1">
  <advance width="856"/>
  <unicode hex="2126"/>
  <outline>
    <contour>
      <point x="220" y="709"/>
      <point x="68" y="570"/>
      <point x="68" y="381" type="curve" smooth="yes"/>
      <point x="68" y="295"/>
      <point x="117" y="195"/>
      <point x="183" y="139" type="curve"/>
      <point x="7" y="139" type="line"/>
      <point x="7" y="0" type="line"/>
      <point x="357" y="0" type="line"/>
      <point x="357" y="128" type="line"/>
      <point x="281" y="179"/>
      <point x="226" y="280"/>
      <point x="226" y="366" type="curve" smooth="yes"/>
      <point x="226" y="481"/>
      <point x="311" y="564"/>
      <point x="428" y="564" type="curve" smooth="yes"/>
      <point x="545" y="564"/>
      <point x="631" y="481"/>
      <point x="631" y="366" type="curve" smooth="yes"/>
      <point x="631" y="280"/>
      <point x="576" y="179"/>
      <point x="500" y="129" type="curve"/>
      <point x="500" y="0" type="line"/>
      <point x="850" y="0" type="line"/>
      <point x="850" y="139" type="line"/>
      <point x="675" y="139" type="line"/>
      <point x="741" y="195"/>
      <point x="789" y="296"/>
      <point x="789" y="381" type="curve" smooth="yes"/>
      <point x="789" y="570"/>
      <point x="636" y="709"/>
      <point x="428" y="709" type="curve" smooth="yes"/>
    </contour>
    <contour>
      <point x="20" y="701" type="move" name="topleft"/>
    </contour>
  </outline>
</glyph>
<glyph name="partialdiff" format="1">
  <advance width="632"/>
  <unicode hex="2202"/>
  <outline>
    <contour>
      <point x="194" y="708"/>
      <point x="104" y="682"/>
      <point x="42" y="641" type="curve"/>
      <point x="110" y="515" type="line"/>
      <point x="153" y="552"/>
      <point x="207" y="570"/>
      <point x="265" y="570" type="curve" smooth="yes"/>
      <point x="371" y="570"/>
      <point x="427" y="500"/>
      <point x="421" y="373" type="curve"/>
      <point x="394" y="425"/>
      <point x="339" y="460"/>
      <point x="260" y="460" type="curve" smooth="yes"/>
      <point x="119" y="460"/>
      <point x="28" y="370"/>
      <point x="28" y="233" type="curve" smooth="yes"/>
      <point x="28" y="85"/>
      <point x="132" y="-8"/>
      <point x="289" y="-8" type="curve" smooth="yes"/>
      <point x="477" y="-8"/>
      <point x="591" y="128"/>
      <point x="591" y="347" type="curve" smooth="yes"/>
      <point x="591" y="565"/>
      <point x="468" y="708"/>
      <point x="275" y="708" type="curve" smooth="yes"/>
    </contour>
    <contour>
      <point x="363" y="330"/>
      <point x="402" y="290"/>
      <point x="402" y="232" type="curve" smooth="yes"/>
      <point x="402" y="180"/>
      <point x="369" y="135"/>
      <point x="296" y="135" type="curve" smooth="yes"/>
      <point x="232" y="135"/>
      <point x="193" y="170"/>
      <point x="193" y="234" type="curve" smooth="yes"/>
      <point x="193" y="296"/>
      <point x="229" y="330"/>
      <point x="293" y="330" type="curve" smooth="yes"/>
    </contour>
  </outline>
</glyph>
<glyph name="product" format="1">
  <advance width="742"/>
  <unicode hex="220F"/>
  <outline>
    <contour>
      <point x="70" y="742" type="line"/>
      <point x="70" y="-194" type="line"/>
      <point x="243" y="-194" type="line"/>
      <point x="243" y="606" type="line"/>
      <point x="499" y="606" type="line"/>
      <point x="499" y="-194" type="line"/>
      <point x="672" y="-194" type="line"/>
      <point x="672" y="742" type="line"/>
    </contour>
  </outline>
</glyph>
<glyph name="summation" format="1">
  <advance width="616"/>
  <unicode hex="2211"/>
  <outline>
    <contour>
      <point x="37" y="744" type="line"/>
      <point x="37" y="618" type="line"/>
      <point x="291" y="303" type="line"/>
      <point x="27" y="-14" type="line"/>
      <point x="27" y="-138" type="line"/>
      <point x="610" y="-138" type="line"/>
      <point x="610" y="11" type="line"/>
      <point x="242" y="11" type="line"/>
      <point x="480" y="303" type="line"/>
      <point x="243" y="596" type="line"/>
      <point x="600" y="596" type="line"/>
      <point x="600" y="744" type="line"/>
    </contour>
  </outline>
</glyph>
<glyph name="radical" format="1">
  <advance width="708"/>
  <unicode hex="221A"/>
  <outline>
    <contour>
      <point x="2" y="273" type="line"/>
      <point x="128" y="273" type="line"/>
      <point x="265" y="-157" type="line"/>
      <point x="449" y="-157" type="line"/>
      <point x="720" y="746" type="line"/>
      <point x="555" y="746" type="line"/>
      <point x="358" y="15" type="line"/>
      <point x="247" y="408" type="line"/>
      <point x="2" y="408" type="line"/>
    </contour>
  </outline>
</glyph>
<glyph name="infinity" format="1">
  <advance width="854"/>
  <unicode hex="221E"/>
  <outline>
    <contour>
      <point x="228" y="513" type="line"/>
      <point x="110" y="513"/>
      <point x="24" y="422"/>
      <point x="24" y="299" type="curve"/>
      <point x="24" y="176"/>
      <point x="110" y="85"/>
      <point x="228" y="85" type="curve"/>
      <point x="469" y="85"/>
      <point x="442" y="397"/>
      <point x="625" y="397" type="curve"/>
      <point x="676" y="397"/>
      <point x="713" y="356"/>
      <point x="713" y="300" type="curve"/>
      <point x="713" y="243"/>
      <point x="676" y="202"/>
      <point x="625" y="202" type="curve"/>
      <point x="442" y="202"/>
      <point x="461" y="513"/>
      <point x="228" y="513" type="curve"/>
      <point x="228" y="397" type="line"/>
      <point x="410" y="397"/>
      <point x="391" y="85"/>
      <point x="625" y="85" type="curve"/>
      <point x="743" y="85"/>
      <point x="829" y="176"/>
      <point x="829" y="300" type="curve"/>
      <point x="829" y="423"/>
      <point x="743" y="513"/>
      <point x="625" y="513" type="curve"/>
      <point x="384" y="513"/>
      <point x="410" y="201"/>
      <point x="228" y="201" type="curve"/>
      <point x="178" y="201"/>
      <point x="141" y="242"/>
      <point x="141" y="299" type="curve"/>
      <point x="141" y="355"/>
      <point x="178" y="397"/>
      <point x="228" y="397" type="curve"/>
    </contour>
  </outline>
</glyph>
<glyph name="integral" format="1">
  <advance width="390"/>
  <unicode hex="222B"/>
  <outline>
    <contour>
      <point x="403" y="829" type="line"/>
      <point x="368" y="844"/>
      <point x="342" y="851"/>
      <point x="309" y="851" type="curve" smooth="yes"/>
      <point x="175" y="851"/>
      <point x="123" y="783"/>
      <point x="123" y="607" type="curve" smooth="yes"/>
      <point x="123" y="510"/>
      <point x="149" y="200"/>
      <point x="149" y="95" type="curve" smooth="yes"/>
      <point x="149" y="12"/>
      <point x="126" y="-20"/>
      <point x="66" y="-20" type="curve" smooth="yes"/>
      <point x="46" y="-20"/>
      <point x="28" y="-14"/>
      <point x="1" y="-2" type="curve"/>
      <point x="-19" y="-112" type="line"/>
      <point x="11" y="-131"/>
      <point x="41" y="-138"/>
      <point x="87" y="-138" type="curve" smooth="yes"/>
      <point x="223" y="-138"/>
      <point x="276" y="-70"/>
      <point x="276" y="107" type="curve" smooth="yes"/>
      <point x="276" y="212"/>
      <point x="250" y="528"/>
      <point x="250" y="622" type="curve" smooth="yes"/>
      <point x="250" y="701"/>
      <point x="273" y="730"/>
      <point x="330" y="730" type="curve" smooth="yes"/>
      <point x="348" y="730"/>
      <point x="364" y="727"/>
      <point x="386" y="719" type="curve"/>
    </contour>
  </outline>
</glyph>
<glyph name="approxequal" format="1">
  <advance width="510"/>
  <unicode hex="2248"/>
  <outline>
    <contour>
      <point x="93" y="298"/>
      <point x="56" y="243"/>
      <point x="56" y="128" type="curve"/>
      <point x="172" y="128" type="line"/>
      <point x="172" y="159"/>
      <point x="182" y="174"/>
      <point x="204" y="174" type="curve"/>
      <point x="237" y="174"/>
      <point x="273" y="124"/>
      <point x="341" y="124" type="curve"/>
      <point x="417" y="124"/>
      <point x="454" y="179"/>
      <point x="454" y="294" type="curve"/>
      <point x="338" y="294" type="line"/>
      <point x="338" y="263"/>
      <point x="328" y="248"/>
      <point x="306" y="248" type="curve"/>
      <point x="273" y="248"/>
      <point x="236" y="298"/>
      <point x="169" y="298" type="curve"/>
    </contour>
    <contour>
      <point x="93" y="528"/>
      <point x="56" y="473"/>
      <point x="56" y="358" type="curve"/>
      <point x="172" y="358" type="line"/>
      <point x="172" y="389"/>
      <point x="182" y="404"/>
      <point x="204" y="404" type="curve"/>
      <point x="237" y="404"/>
      <point x="273" y="354"/>
      <point x="341" y="354" type="curve"/>
      <point x="417" y="354"/>
      <point x="454" y="409"/>
      <point x="454" y="524" type="curve"/>
      <point x="338" y="524" type="line"/>
      <point x="338" y="493"/>
      <point x="328" y="478"/>
      <point x="306" y="478" type="curve"/>
      <point x="273" y="478"/>
      <point x="236" y="528"/>
      <point x="169" y="528" type="curve"/>
    </contour>
  </outline>
</glyph>
<glyph name="notequal" format="1">
  <advance width="510"/>
  <unicode hex="2260"/>
  <outline>
    <contour>
      <point x="33" y="489" type="line"/>
      <point x="33" y="380" type="line"/>
      <point x="478" y="380" type="line"/>
      <point x="478" y="489" type="line"/>
    </contour>
    <contour>
      <point x="33" y="274" type="line"/>
      <point x="33" y="165" type="line"/>
      <point x="478" y="165" type="line"/>
      <point x="478" y="274" type="line"/>
    </contour>
    <contour>
      <point x="280" y="626" type="line"/>
      <point x="89" y="22" type="line"/>
      <point x="219" y="22" type="line"/>
      <point x="409" y="626" type="line"/>
    </contour>
  </outline>
</glyph>
<glyph name="lozenge" format="1">
  <advance width="508"/>
  <unicode hex="25CA"/>
  <outline>
    <contour>
      <point x="25" y="330" type="line"/>
      <point x="253" y="-14" type="line"/>
      <point x="484" y="330" type="line"/>
      <point x="255" y="671" type="line"/>
    </contour>
    <contour>
      <point x="358" y="330" type="line"/>
      <point x="253" y="175" type="line"/>
      <point x="150" y="330" type="line"/>
      <point x="254" y="484" type="line"/>
    </contour>
  </outline>
</glyph>
<glyph name="fi" format="1">
  <advance width="697"/>
  <unicode hex="FB01"/>
  <outline>
    <contour>
      <point x="192" y="750"/>
      <point x="101" y="686"/>
      <point x="101" y="565" type="curve"/>
      <point x="101" y="0" type="line"/>
      <point x="273" y="0" type="line"/>
      <point x="273" y="554" type="line"/>
      <point x="273" y="595"/>
      <point x="298" y="613"/>
      <point x="334" y="613" type="curve"/>
      <point x="356" y="613"/>
      <point x="383" y="605"/>
      <point x="407" y="592" type="curve"/>
      <point x="412" y="729" type="line"/>
      <point x="384" y="742"/>
      <point x="345" y="750"/>
      <point x="307" y="750" type="curve"/>
    </contour>
    <contour>
      <point x="28" y="520" type="line"/>
      <point x="28" y="406" type="line"/>
      <point x="394" y="406" type="line"/>
      <point x="394" y="520" type="line"/>
    </contour>
    <component base="i" xOffset="386"/>
  </outline>
</glyph>
<glyph name="fl" format="1">
  <advance width="714"/>
  <unicode hex="FB02"/>
  <outline>
    <contour>
      <point x="184" y="753"/>
      <point x="101" y="680"/>
      <point x="101" y="572" type="curve"/>
      <point x="101" y="0" type="line"/>
      <point x="273" y="0" type="line"/>
      <point x="273" y="547" type="line"/>
      <point x="273" y="590"/>
      <point x="302" y="619"/>
      <point x="344" y="618" type="curve"/>
      <point x="364" y="617"/>
      <point x="388" y="609"/>
      <point x="408" y="595" type="curve"/>
      <point x="413" y="733" type="line"/>
      <point x="386" y="745"/>
      <point x="345" y="752"/>
      <point x="308" y="752" type="curve"/>
    </contour>
    <contour>
      <point x="28" y="520" type="line"/>
      <point x="28" y="407" type="line"/>
      <point x="394" y="407" type="line"/>
      <point x="394" y="520" type="line"/>
    </contour>
    <component base="l" xOffset="393"/>
  </outline>
</glyph>
<glyph name="A.ss01" format="1">
  <advance width="763"/>
  <outline>
    <contour>
      <point x="182" y="707"/>
      <point x="58" y="590"/>
      <point x="58" y="405" type="curve" smooth="yes"/>
      <point x="58" y="0" type="line"/>
      <point x="236" y="0" type="line"/>
      <point x="236" y="168" type="line"/>
      <point x="527" y="168" type="line"/>
      <point x="527" y="0" type="line"/>
      <point x="705" y="0" type="line"/>
      <point x="705" y="405" type="line" smooth="yes"/>
      <point x="705" y="590"/>
      <point x="579" y="707"/>
      <point x="380" y="707" type="curve" smooth="yes"/>
    </contour>
    <contour>
      <point x="471" y="559"/>
      <point x="528" y="499"/>
      <point x="528" y="405" type="curve" smooth="yes"/>
      <point x="528" y="303" type="line"/>
      <point x="236" y="303" type="line"/>
      <point x="236" y="405" type="line" smooth="yes"/>
      <point x="236" y="499"/>
      <point x="292" y="559"/>
      <point x="382" y="559" type="curve" smooth="yes"/>
    </contour>
    <contour>
      <point x="725" y="10" type="move" name="ogonek"/>
    </contour>
    <contour>
      <point x="382" y="700" type="move" name="top"/>
    </contour>
  </outline>
</glyph>
<glyph name="Aogonek.ss01" format="1">
  <advance width="766"/>
  <outline>
    <contour>
      <point x="182" y="707"/>
      <point x="58" y="590"/>
      <point x="58" y="405" type="curve" smooth="yes"/>
      <point x="58" y="0" type="line"/>
      <point x="236" y="0" type="line"/>
      <point x="236" y="168" type="line"/>
      <point x="527" y="168" type="line"/>
      <point x="527" y="0" type="line"/>
      <point x="577" y="0" type="line"/>
      <point x="549" y="-42"/>
      <point x="530" y="-81"/>
      <point x="530" y="-120" type="curve" smooth="yes"/>
      <point x="530" y="-182"/>
      <point x="577" y="-203"/>
      <point x="618" y="-203" type="curve" smooth="yes"/>
      <point x="661" y="-203"/>
      <point x="700" y="-179"/>
      <point x="726" y="-136" type="curve"/>
      <point x="681" y="-85" type="line"/>
      <point x="668" y="-104"/>
      <point x="654" y="-116"/>
      <point x="638" y="-116" type="curve" smooth="yes"/>
      <point x="626" y="-116"/>
      <point x="617" y="-108"/>
      <point x="617" y="-92" type="curve" smooth="yes"/>
      <point x="617" y="-73"/>
      <point x="632" y="-41"/>
      <point x="660" y="0" type="curve"/>
      <point x="704.99" y="0" type="line"/>
      <point x="705" y="405" type="line" smooth="yes"/>
      <point x="705" y="590"/>
      <point x="579" y="707"/>
      <point x="380" y="707" type="curve" smooth="yes"/>
    </contour>
    <contour>
      <point x="471" y="559"/>
      <point x="528" y="499"/>
      <point x="528" y="405" type="curve" smooth="yes"/>
      <point x="528" y="303" type="line"/>
      <point x="236" y="303" type="line"/>
      <point x="236" y="405" type="line" smooth="yes"/>
      <point x="236" y="499"/>
      <point x="292" y="559"/>
      <point x="382" y="559" type="curve" smooth="yes"/>
    </contour>
  </outline>
</glyph>
<glyph name="E.ss01" format="1">
  <advance width="610"/>
  <outline>
    <contour>
      <point x="179" y="708"/>
      <point x="72" y="634"/>
      <point x="72" y="523" type="curve" smooth="yes"/>
      <point x="72" y="454"/>
      <point x="113" y="393"/>
      <point x="173" y="369" type="curve"/>
      <point x="89" y="344"/>
      <point x="34" y="272"/>
      <point x="34" y="192" type="curve" smooth="yes"/>
      <point x="34" y="72"/>
      <point x="154" y="-8"/>
      <point x="321" y="-8" type="curve" smooth="yes"/>
      <point x="423" y="-8"/>
      <point x="533" y="23"/>
      <point x="596" y="62" type="curve"/>
      <point x="529" y="191" type="line"/>
      <point x="492" y="167"/>
      <point x="409" y="137"/>
      <point x="341" y="137" type="curve" smooth="yes"/>
      <point x="272" y="137"/>
      <point x="217" y="167"/>
      <point x="217" y="216" type="curve" smooth="yes"/>
      <point x="217" y="260"/>
      <point x="261" y="291"/>
      <point x="323" y="291" type="curve" smooth="yes"/>
      <point x="486" y="291" type="line"/>
      <point x="486" y="427" type="line"/>
      <point x="323" y="427" type="line" smooth="yes"/>
      <point x="273" y="427"/>
      <point x="239" y="457"/>
      <point x="239" y="495" type="curve" smooth="yes"/>
      <point x="239" y="540"/>
      <point x="289" y="564"/>
      <point x="356" y="564" type="curve" smooth="yes"/>
      <point x="406" y="564"/>
      <point x="464" y="551"/>
      <point x="514" y="528" type="curve"/>
      <point x="571" y="658" type="line"/>
      <point x="517" y="688"/>
      <point x="420" y="708"/>
      <point x="338" y="708" type="curve" smooth="yes"/>
    </contour>
    <contour>
      <point x="549" y="10" type="move" name="ogonek"/>
    </contour>
    <contour>
      <point x="306" y="0" type="move" name="bottom"/>
    </contour>
    <contour>
      <point x="306" y="701" type="move" name="top"/>
    </contour>
  </outline>
</glyph>
<glyph name="Eogonek.ss01" format="1">
  <advance width="610"/>
  <outline>
    <contour>
      <point x="179" y="708"/>
      <point x="72" y="634"/>
      <point x="72" y="523" type="curve" smooth="yes"/>
      <point x="72" y="454"/>
      <point x="113" y="393"/>
      <point x="173" y="369" type="curve"/>
      <point x="89" y="344"/>
      <point x="34" y="272"/>
      <point x="34" y="192" type="curve" smooth="yes"/>
      <point x="34" y="72"/>
      <point x="154" y="-8"/>
      <point x="321" y="-8" type="curve" smooth="yes"/>
      <point x="423" y="-8"/>
      <point x="533" y="23"/>
      <point x="596" y="62" type="curve"/>
      <point x="529" y="191" type="line"/>
      <point x="492" y="167"/>
      <point x="409" y="137"/>
      <point x="341" y="137" type="curve" smooth="yes"/>
      <point x="272" y="137"/>
      <point x="217" y="167"/>
      <point x="217" y="216" type="curve" smooth="yes"/>
      <point x="217" y="260"/>
      <point x="261" y="291"/>
      <point x="323" y="291" type="curve" smooth="yes"/>
      <point x="486" y="291" type="line"/>
      <point x="486" y="427" type="line"/>
      <point x="323" y="427" type="line" smooth="yes"/>
      <point x="273" y="427"/>
      <point x="239" y="457"/>
      <point x="239" y="495" type="curve" smooth="yes"/>
      <point x="239" y="540"/>
      <point x="289" y="564"/>
      <point x="356" y="564" type="curve" smooth="yes"/>
      <point x="406" y="564"/>
      <point x="464" y="551"/>
      <point x="514" y="528" type="curve"/>
      <point x="571" y="658" type="line"/>
      <point x="517" y="688"/>
      <point x="420" y="708"/>
      <point x="338" y="708" type="curve" smooth="yes"/>
    </contour>
    <contour>
      <point x="413" y="19" type="line"/>
      <point x="379" y="-28"/>
      <point x="353" y="-74"/>
      <point x="353" y="-120" type="curve" smooth="yes"/>
      <point x="353" y="-182"/>
      <point x="400" y="-203"/>
      <point x="441" y="-203" type="curve" smooth="yes"/>
      <point x="484" y="-203"/>
      <point x="523" y="-179"/>
      <point x="549" y="-136" type="curve"/>
      <point x="504" y="-85" type="line"/>
      <point x="492" y="-104"/>
      <point x="477" y="-116"/>
      <point x="461" y="-116" type="curve" smooth="yes"/>
      <point x="449" y="-116"/>
      <point x="440" y="-108"/>
      <point x="440" y="-92" type="curve" smooth="yes"/>
      <point x="440" y="-67"/>
      <point x="464" y="-24"/>
      <point x="506" y="32" type="curve"/>
    </contour>
  </outline>
</glyph>
<glyph name="F.ss01" format="1">
  <advance width="557"/>
  <outline>
    <contour>
      <point x="236" y="0" type="line"/>
      <point x="236" y="463" type="line" smooth="yes"/>
      <point x="236" y="521"/>
      <point x="274" y="559"/>
      <point x="332" y="559" type="curve" smooth="yes"/>
      <point x="387" y="559"/>
      <point x="462" y="540"/>
      <point x="520" y="516" type="curve"/>
      <point x="561" y="662" type="line"/>
      <point x="501" y="690"/>
      <point x="406" y="708"/>
      <point x="316" y="708" type="curve" smooth="yes"/>
      <point x="159" y="708"/>
      <point x="58" y="613"/>
      <point x="58" y="466" type="curve" smooth="yes"/>
      <point x="58" y="0" type="line"/>
    </contour>
    <contour>
      <point x="95" y="391" type="line"/>
      <point x="95" y="251" type="line" smooth="yes"/>
      <point x="498" y="251" type="line"/>
      <point x="498" y="391" type="line"/>
    </contour>
  </outline>
</glyph>
<glyph name="G.ss01" format="1">
  <advance width="744"/>
  <outline>
    <contour>
      <point x="188" y="706"/>
      <point x="24" y="553"/>
      <point x="24" y="350" type="curve" smooth="yes"/>
      <point x="24" y="146"/>
      <point x="176" y="-8"/>
      <point x="379" y="-8" type="curve" smooth="yes"/>
      <point x="483" y="-8"/>
      <point x="591" y="56"/>
      <point x="645" y="145" type="curve"/>
      <point x="560" y="240" type="line"/>
      <point x="531" y="181"/>
      <point x="467" y="141"/>
      <point x="399" y="141" type="curve" smooth="yes"/>
      <point x="290" y="141"/>
      <point x="206" y="231"/>
      <point x="206" y="350" type="curve" smooth="yes"/>
      <point x="206" y="467"/>
      <point x="294" y="557"/>
      <point x="409" y="557" type="curve" smooth="yes"/>
      <point x="475" y="557"/>
      <point x="545" y="528"/>
      <point x="596" y="481" type="curve"/>
      <point x="697" y="602" type="line"/>
      <point x="624" y="666"/>
      <point x="512" y="706"/>
      <point x="407" y="706" type="curve" smooth="yes"/>
    </contour>
    <contour>
      <point x="535" y="362" type="line"/>
      <point x="535" y="114" type="line"/>
      <point x="557" y="94" type="line"/>
      <point x="557" y="0" type="line"/>
      <point x="688" y="0" type="line"/>
      <point x="688" y="362" type="line"/>
    </contour>
    <contour>
      <point x="374" y="701" type="move" name="top"/>
    </contour>
    <contour>
      <point x="374" y="0" type="move" name="bottom"/>
    </contour>
  </outline>
</glyph>
<glyph name="I.ss01" format="1">
  <advance width="505"/>
  <outline>
    <contour>
      <point x="45" y="560" type="line"/>
      <point x="459" y="560" type="line"/>
      <point x="459" y="701" type="line"/>
      <point x="45" y="701" type="line"/>
    </contour>
    <contour>
      <point x="45" y="0" type="line"/>
      <point x="459" y="0" type="line"/>
      <point x="459" y="140" type="line"/>
      <point x="45" y="140" type="line"/>
    </contour>
    <contour>
      <point x="164" y="701" type="line"/>
      <point x="164" y="0" type="line"/>
      <point x="342" y="0" type="line"/>
      <point x="342" y="701" type="line"/>
    </contour>
    <contour>
      <point x="454" y="10" type="move" name="ogonek"/>
    </contour>
    <contour>
      <point x="252" y="701" type="move" name="top"/>
    </contour>
  </outline>
</glyph>
<glyph name="J.ss01" format="1">
  <advance width="536"/>
  <outline>
    <contour>
      <point x="59" y="701" type="line"/>
      <point x="59" y="557" type="line"/>
      <point x="300" y="557" type="line"/>
      <point x="300" y="131" type="line" smooth="yes"/>
      <point x="300" y="74"/>
      <point x="271" y="45"/>
      <point x="224" y="45" type="curve" smooth="yes"/>
      <point x="183" y="45"/>
      <point x="127" y="71"/>
      <point x="76" y="123" type="curve"/>
      <point x="-5" y="4" type="line"/>
      <point x="57" y="-67"/>
      <point x="137" y="-108"/>
      <point x="235" y="-108" type="curve" smooth="yes"/>
      <point x="384" y="-108"/>
      <point x="478" y="-22"/>
      <point x="478" y="127" type="curve" smooth="yes"/>
      <point x="478" y="701" type="line"/>
    </contour>
    <contour>
      <point x="271" y="701" type="move" name="top"/>
    </contour>
  </outline>
</glyph>
<glyph name="M.ss01" format="1">
  <advance width="1177"/>
  <outline>
    <contour>
      <point x="298" y="699"/>
      <point x="196" y="578"/>
      <point x="196" y="395" type="curve"/>
      <point x="247" y="378" type="line"/>
      <point x="247" y="470"/>
      <point x="304" y="540"/>
      <point x="384" y="541" type="curve" smooth="yes"/>
      <point x="457" y="541"/>
      <point x="503" y="485"/>
      <point x="503" y="402" type="curve" smooth="yes"/>
      <point x="503" y="0" type="line"/>
      <point x="683" y="0" type="line"/>
      <point x="683" y="444" type="line" smooth="yes"/>
      <point x="683" y="598"/>
      <point x="590" y="700"/>
      <point x="456" y="700" type="curve" smooth="yes"/>
    </contour>
    <contour>
      <point x="734" y="699"/>
      <point x="632" y="578"/>
      <point x="632" y="395" type="curve"/>
      <point x="683" y="378" type="line"/>
      <point x="683" y="470"/>
      <point x="740" y="540"/>
      <point x="820" y="541" type="curve" smooth="yes"/>
      <point x="893" y="541"/>
      <point x="939" y="485"/>
      <point x="939" y="402" type="curve" smooth="yes"/>
      <point x="939" y="0" type="line"/>
      <point x="1119" y="0" type="line"/>
      <point x="1119" y="444" type="line" smooth="yes"/>
      <point x="1119" y="598"/>
      <point x="1026" y="700"/>
      <point x="891" y="700" type="curve" smooth="yes"/>
    </contour>
    <contour>
      <point x="70" y="700" type="line"/>
      <point x="70" y="0" type="line"/>
      <point x="248" y="0" type="line"/>
      <point x="248" y="700" type="line"/>
    </contour>
    <contour>
      <point x="275" y="10" type="move" name="ogonek"/>
    </contour>
    <contour>
      <point x="159" y="700" type="move" name="top"/>
    </contour>
  </outline>
</glyph>
<glyph name="N.ss01" format="1">
  <advance width="765"/>
  <outline>
    <contour>
      <point x="304" y="699"/>
      <point x="196" y="578"/>
      <point x="196" y="395" type="curve"/>
      <point x="247" y="378" type="line"/>
      <point x="247" y="471"/>
      <point x="309" y="540"/>
      <point x="400" y="541" type="curve" smooth="yes"/>
      <point x="476" y="541"/>
      <point x="527" y="484"/>
      <point x="527" y="402" type="curve" smooth="yes"/>
      <point x="527" y="0" type="line"/>
      <point x="707" y="0" type="line"/>
      <point x="707" y="444" type="line" smooth="yes"/>
      <point x="707" y="598"/>
      <point x="611" y="700"/>
      <point x="468" y="700" type="curve" smooth="yes"/>
    </contour>
    <contour>
      <point x="70" y="700" type="line"/>
      <point x="70" y="0" type="line"/>
      <point x="248" y="0" type="line"/>
      <point x="248" y="700" type="line"/>
    </contour>
    <contour>
      <point x="275" y="10" type="move" name="ogonek"/>
    </contour>
    <contour>
      <point x="383" y="0" type="move" name="bottom"/>
    </contour>
    <contour>
      <point x="393" y="701" type="move" name="top"/>
    </contour>
  </outline>
</glyph>
<glyph name="T.ss01" format="1">
  <advance width="684"/>
  <outline>
    <contour>
      <point x="222" y="708"/>
      <point x="110" y="680"/>
      <point x="18" y="630" type="curve"/>
      <point x="68" y="493" type="line"/>
      <point x="145" y="533"/>
      <point x="239" y="557"/>
      <point x="337" y="557" type="curve" smooth="yes"/>
      <point x="435" y="557"/>
      <point x="528" y="534"/>
      <point x="608" y="493" type="curve"/>
      <point x="658" y="629" type="line"/>
      <point x="564" y="680"/>
      <point x="452" y="708"/>
      <point x="337" y="708" type="curve" smooth="yes"/>
    </contour>
    <contour>
      <point x="249" y="623" type="line"/>
      <point x="249" y="0" type="line"/>
      <point x="427" y="0" type="line"/>
      <point x="427" y="623" type="line"/>
    </contour>
    <contour>
      <point x="342" y="351" type="move" name="center"/>
    </contour>
    <contour>
      <point x="325" y="0" type="move" name="bottom"/>
    </contour>
    <contour>
      <point x="342" y="700" type="move" name="top"/>
    </contour>
  </outline>
</glyph>
<glyph name="W.ss01" format="1">
  <advance width="1166"/>
  <outline>
    <contour>
      <point x="931" y="700" type="line"/>
      <point x="931" y="273" type="line" smooth="yes"/>
      <point x="931" y="195"/>
      <point x="880" y="141"/>
      <point x="805" y="141" type="curve" smooth="yes"/>
      <point x="729" y="141"/>
      <point x="672" y="195"/>
      <point x="672" y="273" type="curve" smooth="yes"/>
      <point x="672" y="700" type="line"/>
      <point x="495" y="700" type="line"/>
      <point x="495" y="273" type="line" smooth="yes"/>
      <point x="494" y="195"/>
      <point x="441" y="141"/>
      <point x="365" y="141" type="curve" smooth="yes"/>
      <point x="290" y="141"/>
      <point x="236" y="195"/>
      <point x="236" y="273" type="curve" smooth="yes"/>
      <point x="236" y="700" type="line"/>
      <point x="58" y="700" type="line"/>
      <point x="58" y="273" type="line" smooth="yes"/>
      <point x="58" y="109"/>
      <point x="174" y="-8"/>
      <point x="337" y="-8" type="curve" smooth="yes"/>
      <point x="446" y="-8"/>
      <point x="541" y="45"/>
      <point x="584" y="120" type="curve"/>
      <point x="628" y="45"/>
      <point x="724" y="-8"/>
      <point x="832" y="-8" type="curve" smooth="yes"/>
      <point x="994" y="-8"/>
      <point x="1108" y="109"/>
      <point x="1108" y="273" type="curve" smooth="yes"/>
      <point x="1108" y="700" type="line"/>
    </contour>
    <contour>
      <point x="583" y="700" type="move" name="top"/>
    </contour>
  </outline>
</glyph>
<glyph name="Y.ss01" format="1">
  <advance width="743"/>
  <outline>
    <contour>
      <point x="460" y="155"/>
      <point x="559" y="274"/>
      <point x="559" y="454" type="curve"/>
      <point x="508" y="463" type="line"/>
      <point x="508" y="370"/>
      <point x="450" y="307"/>
      <point x="366" y="306" type="curve" smooth="yes"/>
      <point x="288" y="306"/>
      <point x="236" y="359"/>
      <point x="236" y="437" type="curve" smooth="yes"/>
      <point x="236" y="700" type="line"/>
      <point x="58" y="700" type="line"/>
      <point x="58" y="421" type="line" smooth="yes"/>
      <point x="58" y="261"/>
      <point x="159" y="154"/>
      <point x="308" y="154" type="curve" smooth="yes"/>
    </contour>
    <contour>
      <point x="508" y="700" type="line"/>
      <point x="508" y="188" type="line" smooth="yes"/>
      <point x="508" y="101"/>
      <point x="440" y="41"/>
      <point x="341" y="41" type="curve"/>
      <point x="273" y="41"/>
      <point x="192" y="71"/>
      <point x="138" y="115" type="curve"/>
      <point x="66" y="-4" type="line"/>
      <point x="135" y="-66"/>
      <point x="252" y="-108"/>
      <point x="364" y="-108" type="curve" smooth="yes"/>
      <point x="556" y="-108"/>
      <point x="685" y="9"/>
      <point x="685" y="184" type="curve" smooth="yes"/>
      <point x="685" y="700" type="line"/>
    </contour>
    <contour>
      <point x="371" y="700" type="move" name="top"/>
    </contour>
  </outline>
</glyph>
<glyph name="Z.ss01" format="1">
  <advance width="675"/>
  <outline>
    <contour>
      <point x="189" y="414" type="line"/>
      <point x="189" y="298" type="line"/>
      <point x="448" y="298" type="line"/>
      <point x="448" y="414" type="line"/>
    </contour>
    <contour>
      <point x="224" y="406" type="line"/>
      <point x="224" y="290" type="line"/>
      <point x="473" y="290" type="line"/>
      <point x="473" y="406" type="line"/>
    </contour>
    <contour>
      <point x="41" y="700" type="line"/>
      <point x="40" y="559" type="line"/>
      <point x="403" y="559" type="line"/>
      <point x="28" y="114" type="line"/>
      <point x="28" y="0" type="line"/>
      <point x="646" y="0" type="line"/>
      <point x="646" y="141" type="line"/>
      <point x="266" y="141" type="line"/>
      <point x="640" y="586" type="line"/>
      <point x="640" y="700" type="line"/>
    </contour>
    <contour>
      <point x="338" y="700" type="move" name="top"/>
    </contour>
  </outline>
</glyph>
<glyph name="a.ss01" format="1">
  <advance width="680"/>
  <outline>
    <contour>
      <point x="439" y="539" type="line"/>
      <point x="439" y="0" type="line"/>
      <point x="611" y="0" type="line"/>
      <point x="611" y="539" type="line"/>
    </contour>
    <contour>
      <point x="123" y="545"/>
      <point x="25" y="436"/>
      <point x="25" y="272" type="curve" smooth="yes"/>
      <point x="25" y="105"/>
      <point x="125" y="-7"/>
      <point x="278" y="-7" type="curve" smooth="yes"/>
      <point x="413" y="-7"/>
      <point x="496" y="101"/>
      <point x="495" y="271" type="curve"/>
      <point x="496" y="440"/>
      <point x="411" y="546"/>
      <point x="273" y="546" type="curve" smooth="yes"/>
    </contour>
    <contour>
      <point x="390" y="408"/>
      <point x="439" y="351"/>
      <point x="439" y="268" type="curve" smooth="yes"/>
      <point x="439" y="185"/>
      <point x="390" y="127"/>
      <point x="319" y="127" type="curve" smooth="yes"/>
      <point x="247" y="127"/>
      <point x="198" y="185"/>
      <point x="198" y="268" type="curve" smooth="yes"/>
      <point x="198" y="351"/>
      <point x="247" y="408"/>
      <point x="319" y="408" type="curve" smooth="yes"/>
    </contour>
    <contour>
      <point x="635" y="10" type="move" name="ogonek"/>
    </contour>
    <contour>
      <point x="335" y="539" type="move" name="top"/>
    </contour>
  </outline>
</glyph>
<glyph name="ae.ss01" format="1">
  <advance width="959"/>
  <outline>
    <contour>
      <point x="555" y="124" type="move"/>
    </contour>
    <contour>
      <point x="234" y="324" type="line" smooth="yes"/>
      <point x="101" y="323"/>
      <point x="27" y="263"/>
      <point x="27" y="162" type="curve" smooth="yes"/>
      <point x="27" y="62"/>
      <point x="100" y="-8"/>
      <point x="225" y="-8" type="curve" smooth="yes"/>
      <point x="342" y="-8"/>
      <point x="424" y="43"/>
      <point x="462" y="136" type="curve"/>
      <point x="379" y="186" type="line"/>
      <point x="369" y="140"/>
      <point x="321" y="109"/>
      <point x="265" y="109" type="curve" smooth="yes"/>
      <point x="217" y="109"/>
      <point x="189" y="134"/>
      <point x="189" y="173" type="curve" smooth="yes"/>
      <point x="189" y="213"/>
      <point x="215" y="231"/>
      <point x="268" y="231" type="curve" smooth="yes"/>
      <point x="396" y="231" type="line"/>
      <point x="396" y="324" type="line"/>
    </contour>
    <contour>
      <point x="110" y="372" type="line"/>
      <point x="168" y="401"/>
      <point x="227" y="417"/>
      <point x="272" y="417" type="curve" smooth="yes"/>
      <point x="343" y="417"/>
      <point x="378" y="385"/>
      <point x="379" y="331" type="curve"/>
      <point x="379" y="146" type="line"/>
      <point x="549" y="118" type="line"/>
      <point x="548" y="352" type="line" smooth="yes"/>
      <point x="548" y="474"/>
      <point x="462" y="547"/>
      <point x="313" y="547" type="curve" smooth="yes"/>
      <point x="222" y="547"/>
      <point x="145" y="525"/>
      <point x="61" y="486" type="curve"/>
    </contour>
    <contour>
      <point x="782" y="146"/>
      <point x="735" y="122"/>
      <point x="687" y="122" type="curve" smooth="yes"/>
      <point x="608" y="122"/>
      <point x="555" y="183"/>
      <point x="555" y="279" type="curve" smooth="yes"/>
      <point x="555" y="371"/>
      <point x="599" y="425"/>
      <point x="671" y="425" type="curve" smooth="yes"/>
      <point x="719" y="425"/>
      <point x="755" y="402"/>
      <point x="770" y="349" type="curve"/>
      <point x="526" y="285" type="line"/>
      <point x="528" y="187" type="line"/>
      <point x="935" y="289" type="line"/>
      <point x="930" y="446"/>
      <point x="831" y="546"/>
      <point x="671" y="545" type="curve" smooth="yes"/>
      <point x="502" y="545"/>
      <point x="402" y="433"/>
      <point x="402" y="271" type="curve" smooth="yes"/>
      <point x="402" y="103"/>
      <point x="509" y="-6"/>
      <point x="676" y="-6" type="curve" smooth="yes"/>
      <point x="770" y="-6"/>
      <point x="857" y="29"/>
      <point x="921" y="104" type="curve"/>
      <point x="823" y="190" type="line"/>
    </contour>
    <contour>
      <point x="476" y="539" type="move" name="top"/>
    </contour>
  </outline>
</glyph>
<glyph name="bp.util" format="1">
  <advance width="523"/>
  <outline>
    <contour>
      <point x="112" y="545"/>
      <point x="29" y="439"/>
      <point x="29" y="268" type="curve"/>
      <point x="29" y="100"/>
      <point x="113" y="-6"/>
      <point x="251" y="-6" type="curve" smooth="yes"/>
      <point x="401" y="-6"/>
      <point x="499" y="103"/>
      <point x="499" y="267" type="curve" smooth="yes"/>
      <point x="499" y="434"/>
      <point x="398" y="545"/>
      <point x="246" y="545" type="curve" smooth="yes"/>
    </contour>
    <contour>
      <point x="276" y="412"/>
      <point x="325" y="354"/>
      <point x="325" y="272" type="curve" smooth="yes"/>
      <point x="325" y="189"/>
      <point x="276" y="131"/>
      <point x="205" y="131" type="curve" smooth="yes"/>
      <point x="134" y="131"/>
      <point x="85" y="188"/>
      <point x="85" y="272" type="curve" smooth="yes"/>
      <point x="85" y="354"/>
      <point x="134" y="412"/>
      <point x="205" y="412" type="curve" smooth="yes"/>
    </contour>
  </outline>
</glyph>
<glyph name="dq.util" format="1">
  <advance width="525"/>
  <outline>
    <contour>
      <point x="123" y="545"/>
      <point x="25" y="436"/>
      <point x="25" y="272" type="curve" smooth="yes"/>
      <point x="25" y="105"/>
      <point x="125" y="-7"/>
      <point x="278" y="-7" type="curve" smooth="yes"/>
      <point x="413" y="-7"/>
      <point x="496" y="101"/>
      <point x="495" y="271" type="curve"/>
      <point x="496" y="440"/>
      <point x="411" y="546"/>
      <point x="273" y="546" type="curve" smooth="yes"/>
    </contour>
    <contour>
      <point x="390" y="408"/>
      <point x="439" y="351"/>
      <point x="439" y="268" type="curve" smooth="yes"/>
      <point x="439" y="185"/>
      <point x="390" y="127"/>
      <point x="319" y="127" type="curve" smooth="yes"/>
      <point x="247" y="127"/>
      <point x="198" y="185"/>
      <point x="198" y="268" type="curve" smooth="yes"/>
      <point x="198" y="351"/>
      <point x="247" y="408"/>
      <point x="319" y="408" type="curve" smooth="yes"/>
    </contour>
  </outline>
</glyph>
<glyph name="e.ss01" format="1">
  <advance width="608"/>
  <outline>
    <contour>
      <point x="171" y="190" type="line"/>
      <point x="577" y="291" type="line"/>
      <point x="573" y="449"/>
      <point x="467" y="546"/>
      <point x="306" y="545" type="curve" smooth="yes"/>
      <point x="134" y="545"/>
      <point x="25" y="433"/>
      <point x="25" y="268" type="curve" smooth="yes"/>
      <point x="25" y="103"/>
      <point x="142" y="-6"/>
      <point x="316" y="-6" type="curve" smooth="yes"/>
      <point x="417" y="-6"/>
      <point x="500" y="30"/>
      <point x="563" y="104" type="curve"/>
      <point x="466" y="190" type="line"/>
      <point x="425" y="146"/>
      <point x="377" y="122"/>
      <point x="329" y="122" type="curve" smooth="yes"/>
      <point x="250" y="122"/>
      <point x="198" y="184"/>
      <point x="198" y="278" type="curve" smooth="yes"/>
      <point x="198" y="372"/>
      <point x="242" y="425"/>
      <point x="314" y="425" type="curve" smooth="yes"/>
      <point x="360" y="425"/>
      <point x="393" y="401"/>
      <point x="407" y="351" type="curve"/>
      <point x="168" y="288" type="line"/>
    </contour>
    <contour>
      <point x="550" y="10" type="move" name="ogonek"/>
    </contour>
    <contour>
      <point x="306" y="0" type="move" name="bottom"/>
    </contour>
    <contour>
      <point x="306" y="539" type="move" name="top"/>
    </contour>
  </outline>
</glyph>
<glyph name="eight.dnom" format="1">
  <advance width="416"/>
  <outline>
    <contour>
      <point x="111" y="422"/>
      <point x="49" y="379"/>
      <point x="49" y="312" type="curve" smooth="yes"/>
      <point x="49" y="277"/>
      <point x="72" y="243"/>
      <point x="107" y="223" type="curve"/>
      <point x="58" y="204"/>
      <point x="26" y="163"/>
      <point x="26" y="116" type="curve" smooth="yes"/>
      <point x="26" y="42"/>
      <point x="97" y="-5"/>
      <point x="208" y="-5" type="curve" smooth="yes"/>
      <point x="319" y="-5"/>
      <point x="390" y="42"/>
      <point x="390" y="118" type="curve" smooth="yes"/>
      <point x="390" y="163"/>
      <point x="361" y="204"/>
      <point x="315" y="223" type="curve"/>
      <point x="346" y="242"/>
      <point x="367" y="274"/>
      <point x="367" y="308" type="curve" smooth="yes"/>
      <point x="367" y="377"/>
      <point x="305" y="422"/>
      <point x="207" y="422" type="curve" smooth="yes"/>
    </contour>
    <contour>
      <point x="251" y="176"/>
      <point x="275" y="159"/>
      <point x="275" y="128" type="curve" smooth="yes"/>
      <point x="275" y="96"/>
      <point x="251" y="80"/>
      <point x="208" y="80" type="curve" smooth="yes"/>
      <point x="164" y="80"/>
      <point x="141" y="96"/>
      <point x="141" y="128" type="curve" smooth="yes"/>
      <point x="141" y="159"/>
      <point x="164" y="176"/>
      <point x="208" y="176" type="curve" smooth="yes"/>
    </contour>
    <contour>
      <point x="244" y="345"/>
      <point x="265" y="330"/>
      <point x="265" y="302" type="curve" smooth="yes"/>
      <point x="265" y="275"/>
      <point x="244" y="260"/>
      <point x="208" y="260" type="curve" smooth="yes"/>
      <point x="171" y="260"/>
      <point x="151" y="275"/>
      <point x="151" y="302" type="curve" smooth="yes"/>
      <point x="151" y="330"/>
      <point x="171" y="345"/>
      <point x="208" y="345" type="curve" smooth="yes"/>
    </contour>
  </outline>
</glyph>
<glyph name="eight.numr" format="1">
  <advance width="416"/>
  <outline>
    <contour>
      <point x="111" y="705"/>
      <point x="49" y="662"/>
      <point x="49" y="595" type="curve" smooth="yes"/>
      <point x="49" y="560"/>
      <point x="72" y="526"/>
      <point x="107" y="506" type="curve"/>
      <point x="58" y="487"/>
      <point x="26" y="446"/>
      <point x="26" y="399" type="curve" smooth="yes"/>
      <point x="26" y="326"/>
      <point x="97" y="278"/>
      <point x="208" y="278" type="curve" smooth="yes"/>
      <point x="319" y="278"/>
      <point x="390" y="326"/>
      <point x="390" y="402" type="curve" smooth="yes"/>
      <point x="390" y="447"/>
      <point x="361" y="487"/>
      <point x="315" y="506" type="curve"/>
      <point x="346" y="525"/>
      <point x="367" y="557"/>
      <point x="367" y="591" type="curve" smooth="yes"/>
      <point x="367" y="661"/>
      <point x="305" y="705"/>
      <point x="207" y="705" type="curve" smooth="yes"/>
    </contour>
    <contour>
      <point x="251" y="460"/>
      <point x="275" y="442"/>
      <point x="275" y="411" type="curve" smooth="yes"/>
      <point x="275" y="379"/>
      <point x="251" y="363"/>
      <point x="208" y="363" type="curve" smooth="yes"/>
      <point x="164" y="363"/>
      <point x="141" y="380"/>
      <point x="141" y="412" type="curve" smooth="yes"/>
      <point x="141" y="442"/>
      <point x="164" y="460"/>
      <point x="208" y="460" type="curve" smooth="yes"/>
    </contour>
    <contour>
      <point x="244" y="628"/>
      <point x="265" y="613"/>
      <point x="265" y="585" type="curve" smooth="yes"/>
      <point x="265" y="558"/>
      <point x="244" y="544"/>
      <point x="208" y="544" type="curve" smooth="yes"/>
      <point x="171" y="544"/>
      <point x="151" y="558"/>
      <point x="151" y="585" type="curve" smooth="yes"/>
      <point x="151" y="613"/>
      <point x="171" y="628"/>
      <point x="208" y="628" type="curve" smooth="yes"/>
    </contour>
  </outline>
</glyph>
<glyph name="eight.ss01" format="1">
  <advance width="642"/>
  <outline>
    <contour>
      <point x="168" y="708"/>
      <point x="70" y="637"/>
      <point x="70" y="525" type="curve" smooth="yes"/>
      <point x="70" y="464"/>
      <point x="108" y="408"/>
      <point x="167" y="375" type="curve"/>
      <point x="86" y="343"/>
      <point x="34" y="275"/>
      <point x="34" y="195" type="curve" smooth="yes"/>
      <point x="34" y="71"/>
      <point x="146" y="-8"/>
      <point x="321" y="-8" type="curve" smooth="yes"/>
      <point x="496" y="-8"/>
      <point x="608" y="72"/>
      <point x="608" y="198" type="curve" smooth="yes"/>
      <point x="608" y="276"/>
      <point x="560" y="343"/>
      <point x="483" y="375" type="curve"/>
      <point x="538" y="405"/>
      <point x="571" y="459"/>
      <point x="571" y="520" type="curve" smooth="yes"/>
      <point x="571" y="635"/>
      <point x="474" y="708"/>
      <point x="320" y="708" type="curve" smooth="yes"/>
    </contour>
    <contour>
      <point x="398" y="304"/>
      <point x="441" y="271"/>
      <point x="441" y="213" type="curve" smooth="yes"/>
      <point x="441" y="153"/>
      <point x="398" y="121"/>
      <point x="321" y="121" type="curve" smooth="yes"/>
      <point x="244" y="121"/>
      <point x="202" y="154"/>
      <point x="202" y="213" type="curve" smooth="yes"/>
      <point x="202" y="271"/>
      <point x="244" y="304"/>
      <point x="321" y="304" type="curve" smooth="yes"/>
    </contour>
    <contour>
      <point x="386" y="591"/>
      <point x="422" y="562"/>
      <point x="422" y="510" type="curve" smooth="yes"/>
      <point x="422" y="460"/>
      <point x="386" y="432"/>
      <point x="321" y="432" type="curve" smooth="yes"/>
      <point x="256" y="432"/>
      <point x="220" y="460"/>
      <point x="220" y="510" type="curve" smooth="yes"/>
      <point x="220" y="562"/>
      <point x="256" y="591"/>
      <point x="321" y="591" type="curve" smooth="yes"/>
    </contour>
  </outline>
</glyph>
<glyph name="eogonek.ss01" format="1">
  <advance width="608"/>
  <outline>
    <contour>
      <point x="250" y="122"/>
      <point x="198" y="184"/>
      <point x="198" y="278" type="curve" smooth="yes"/>
      <point x="198" y="372"/>
      <point x="242" y="425"/>
      <point x="314" y="425" type="curve" smooth="yes"/>
      <point x="360" y="425"/>
      <point x="393" y="401"/>
      <point x="407" y="351" type="curve"/>
      <point x="168" y="288" type="line"/>
      <point x="171" y="190" type="line"/>
      <point x="577" y="291" type="line"/>
      <point x="573" y="449"/>
      <point x="467" y="546"/>
      <point x="306" y="545" type="curve" smooth="yes"/>
      <point x="134" y="545"/>
      <point x="25" y="433"/>
      <point x="25" y="268" type="curve" smooth="yes"/>
      <point x="25" y="103"/>
      <point x="142" y="-6"/>
      <point x="316" y="-6" type="curve"/>
      <point x="349" y="-6"/>
      <point x="381" y="3"/>
      <point x="410" y="17" type="curve"/>
      <point x="375" y="-31"/>
      <point x="354" y="-76"/>
      <point x="354" y="-120" type="curve" smooth="yes"/>
      <point x="354" y="-182"/>
      <point x="402" y="-203"/>
      <point x="442" y="-203" type="curve" smooth="yes"/>
      <point x="486" y="-203"/>
      <point x="524" y="-179"/>
      <point x="549" y="-136" type="curve"/>
      <point x="505" y="-85" type="line"/>
      <point x="492" y="-104"/>
      <point x="478" y="-116"/>
      <point x="463" y="-116" type="curve" smooth="yes"/>
      <point x="451" y="-116"/>
      <point x="442" y="-108"/>
      <point x="442" y="-92" type="curve" smooth="yes"/>
      <point x="442" y="-44"/>
      <point x="505" y="35"/>
      <point x="551" y="89" type="curve"/>
      <point x="460" y="178" type="line"/>
      <point x="424" y="142"/>
      <point x="376" y="122"/>
      <point x="329" y="122" type="curve"/>
    </contour>
  </outline>
</glyph>
<glyph name="f.ss01" format="1">
  <advance width="350"/>
  <outline>
    <contour>
      <point x="149" y="750"/>
      <point x="59" y="684"/>
      <point x="59" y="565" type="curve"/>
      <point x="59" y="0" type="line"/>
      <point x="231" y="0" type="line"/>
      <point x="231" y="554" type="line"/>
      <point x="231" y="594"/>
      <point x="257" y="614"/>
      <point x="292" y="613" type="curve"/>
      <point x="312" y="613"/>
      <point x="336" y="605"/>
      <point x="356" y="591" type="curve"/>
      <point x="416" y="712" type="line"/>
      <point x="376" y="736"/>
      <point x="318" y="750"/>
      <point x="265" y="750" type="curve"/>
    </contour>
    <contour>
      <point x="77" y="515" type="line"/>
      <point x="77" y="401" type="line"/>
      <point x="352" y="401" type="line"/>
      <point x="352" y="515" type="line"/>
    </contour>
  </outline>
</glyph>
<glyph name="fi.ss01" format="1">
  <advance width="661"/>
  <outline>
    <contour>
      <point x="150" y="750"/>
      <point x="59" y="686"/>
      <point x="59" y="565" type="curve"/>
      <point x="59" y="0" type="line"/>
      <point x="231" y="0" type="line"/>
      <point x="231" y="554" type="line"/>
      <point x="231" y="595"/>
      <point x="256" y="613"/>
      <point x="292" y="613" type="curve"/>
      <point x="314" y="613"/>
      <point x="341" y="605"/>
      <point x="365" y="592" type="curve"/>
      <point x="370" y="729" type="line"/>
      <point x="342" y="742"/>
      <point x="303" y="750"/>
      <point x="265" y="750" type="curve"/>
    </contour>
    <contour>
      <point x="86" y="515" type="line"/>
      <point x="86" y="401" type="line"/>
      <point x="352" y="401" type="line"/>
      <point x="352" y="515" type="line"/>
    </contour>
    <component base="i" xOffset="350"/>
  </outline>
</glyph>
<glyph name="five.dnom" format="1">
  <advance width="387"/>
  <outline>
    <contour>
      <point x="343" y="417" type="line"/>
      <point x="50" y="417" type="line"/>
      <point x="50" y="175" type="line"/>
      <point x="77" y="177"/>
      <point x="149" y="178"/>
      <point x="170" y="178" type="curve"/>
      <point x="210" y="178"/>
      <point x="231" y="162"/>
      <point x="231" y="133" type="curve"/>
      <point x="231" y="100"/>
      <point x="210" y="82"/>
      <point x="171" y="82" type="curve"/>
      <point x="132" y="82"/>
      <point x="94" y="101"/>
      <point x="62" y="138" type="curve"/>
      <point x="13" y="48" type="line"/>
      <point x="59" y="16"/>
      <point x="127" y="-5"/>
      <point x="185" y="-5" type="curve"/>
      <point x="292" y="-5"/>
      <point x="362" y="53"/>
      <point x="362" y="141" type="curve"/>
      <point x="362" y="216"/>
      <point x="296" y="264"/>
      <point x="195" y="264" type="curve"/>
      <point x="188" y="264"/>
      <point x="170" y="263"/>
      <point x="162" y="261" type="curve"/>
      <point x="162" y="327" type="line"/>
      <point x="343" y="327" type="line"/>
    </contour>
  </outline>
</glyph>
<glyph name="five.numr" format="1">
  <advance width="387"/>
  <outline>
    <contour>
      <point x="343" y="700" type="line"/>
      <point x="50" y="700" type="line"/>
      <point x="50" y="458" type="line"/>
      <point x="77" y="460"/>
      <point x="149" y="461"/>
      <point x="170" y="461" type="curve"/>
      <point x="210" y="461"/>
      <point x="231" y="445"/>
      <point x="231" y="416" type="curve"/>
      <point x="231" y="383"/>
      <point x="210" y="366"/>
      <point x="171" y="366" type="curve"/>
      <point x="132" y="366"/>
      <point x="94" y="384"/>
      <point x="62" y="421" type="curve"/>
      <point x="13" y="331" type="line"/>
      <point x="59" y="300"/>
      <point x="127" y="278"/>
      <point x="185" y="278" type="curve"/>
      <point x="292" y="278"/>
      <point x="362" y="336"/>
      <point x="362" y="424" type="curve"/>
      <point x="362" y="499"/>
      <point x="296" y="547"/>
      <point x="195" y="547" type="curve"/>
      <point x="188" y="547"/>
      <point x="170" y="546"/>
      <point x="162" y="545" type="curve"/>
      <point x="162" y="610" type="line"/>
      <point x="343" y="610" type="line"/>
    </contour>
  </outline>
</glyph>
